<svg width="295" height="294" viewBox="0 0 295 294" fill="none" xmlns="http://www.w3.org/2000/svg">
<path d="M241.31 122.651C233.53 111.332 215.385 109.127 205.136 118.282C205.03 113.654 203.569 109.158 200.933 105.351C198.298 101.545 194.603 98.595 190.308 96.8671C186.013 95.1391 181.305 94.7089 176.768 95.6296C172.231 96.5504 168.063 98.7818 164.781 102.047C166.245 96.9024 160.848 91.8868 155.509 91.6104C150.17 91.3341 145.224 94.2035 140.644 96.9612C136.063 99.7189 131.089 102.559 125.75 102.2C119.97 101.812 115.166 97.7785 109.768 95.6911C96.5498 90.5814 79.8212 99.6484 76.893 113.513C62.2636 107.633 43.4946 117.277 39.8137 132.618L254.01 135.117C253.246 132.071 251.656 129.295 249.415 127.095C247.174 124.896 244.369 123.358 241.31 122.651Z" fill="#F5F5F5"/>
<path d="M232.69 53.7196C233.06 51.0266 229.261 48.8098 226.404 48.5805C225.046 48.4747 223.628 48.6805 222.341 48.2336C219.548 47.2575 218.431 43.6472 215.708 42.5006C213.668 41.6362 211.322 42.4065 209.346 43.4002C207.37 44.394 205.418 45.6464 203.207 45.7875C201.29 45.911 199.203 45.1995 197.527 46.1344C196.275 46.8342 195.616 48.2748 194.464 49.1274C193.311 49.98 191.865 50.1328 190.459 50.2093C189.054 50.2857 187.613 50.3034 186.343 50.8855C185.073 51.4676 183.991 52.82 184.279 54.1959L232.69 53.7196Z" fill="#FAFAFA"/>
<path d="M46.2288 31.5756C46.4346 30.0703 44.3178 28.8355 42.7008 28.712C41.9565 28.7364 41.212 28.6693 40.484 28.5121C38.9258 27.9711 38.3025 25.9543 36.7796 25.3134C35.6448 24.8371 34.3335 25.2604 33.2516 25.819C32.1697 26.3776 31.0113 27.048 29.7824 27.1479C28.7064 27.2185 27.548 26.8186 26.6072 27.342C25.9075 27.7359 25.5429 28.518 24.902 29.0119C24.2298 29.42 23.4536 29.6242 22.6676 29.5999C21.8826 29.5812 21.101 29.7088 20.3627 29.9762C19.9932 30.1151 19.6787 30.3702 19.4667 30.7032C19.2546 31.0361 19.1563 31.4289 19.1867 31.8225L46.2288 31.5756Z" fill="#FAFAFA"/>
<path d="M267.017 81.1734C267.44 78.0805 263.077 75.5345 259.796 75.2934C258.226 75.164 256.604 75.4051 255.092 74.8877C251.882 73.7705 250.6 69.5957 247.448 68.2962C245.096 67.3083 242.409 68.1903 240.134 69.3311C237.858 70.4718 235.618 71.9124 233.078 72.077C230.867 72.2181 228.474 71.4008 226.539 72.4769C225.104 73.2824 224.352 74.9406 223.011 75.9167C221.67 76.8927 220.018 77.0926 218.413 77.1632C216.808 77.2338 215.132 77.2691 213.668 77.9394C212.204 78.6097 210.986 80.162 211.316 81.7437L267.017 81.1734Z" fill="#EBEBEB"/>
<path d="M261.025 28.0887C261.325 25.9073 258.25 24.1197 255.939 23.9316C254.84 23.8434 253.693 24.0139 252.652 23.6493C250.388 22.8614 249.489 19.9391 247.284 19.01C245.631 18.3162 243.756 18.9336 242.139 19.7391C240.522 20.5447 238.958 21.5561 237.17 21.6678C235.618 21.7677 233.93 21.1915 232.572 21.95C231.561 22.538 231.031 23.714 230.097 24.3726C229.131 24.9688 228.014 25.273 226.88 25.2487C225.743 25.2239 224.61 25.4093 223.54 25.7955C222.511 26.2659 221.659 27.3596 221.87 28.4768L261.025 28.0887Z" fill="#EBEBEB"/>
<path d="M55.0782 80.0856C55.3017 78.4627 53.0143 77.1456 51.2974 76.9927C50.4744 77.0266 49.6504 76.9554 48.8454 76.781C47.1637 76.193 46.4934 74.0233 44.8529 73.3294C43.624 72.812 42.2128 73.2765 41.025 73.8704C39.8373 74.4643 38.673 75.2228 37.3324 75.311C36.1564 75.3816 34.9216 74.9582 33.9102 75.5227C33.1517 75.9402 32.7342 76.8104 32.0639 77.322C31.34 77.7673 30.5028 77.9939 29.6531 77.9746C28.8079 77.9541 27.9664 78.0917 27.1718 78.3804C26.7767 78.5337 26.4419 78.8106 26.2173 79.1699C25.9926 79.5291 25.8901 79.9514 25.9252 80.3737L55.0782 80.0856Z" fill="#EBEBEB"/>
<path d="M115.525 55.2308C115.995 51.8087 111.162 48.9921 107.534 48.6981C105.799 48.557 104.006 48.8216 102.359 48.2513C98.8313 47.0106 97.3848 42.4183 93.9215 40.9601C91.3284 39.8664 88.3414 40.8366 85.8306 42.1008C83.3199 43.365 80.8326 44.9585 78.022 45.1407C75.5818 45.2936 72.9299 44.3881 70.7896 45.5817C69.1961 46.4696 68.367 48.3042 66.897 49.392C65.427 50.4798 63.5866 50.6738 61.805 50.7679C60.0233 50.862 58.1829 50.8855 56.56 51.6264C54.9371 52.3673 53.5965 54.096 53.9316 55.86L115.525 55.2308Z" fill="#F5F5F5"/>
<path d="M16.8759 178.111C16.8759 178.111 11.8661 178.823 14.7179 189.789C17.5697 200.755 19.9687 206.388 19.9687 206.388C19.9687 206.388 20.3509 208.875 18.3459 208.805C16.3408 208.734 12.2601 207.141 10.8724 209.328C9.4847 211.515 10.7019 214.273 13.8594 217.095C17.017 219.918 23.6908 226.345 24.2905 226.933C24.8903 227.521 25.3313 228.697 23.9613 228.891C22.5912 229.085 12.8481 227.926 12.5717 232.589C12.2953 237.252 22.3972 243.667 23.485 244.39C24.5728 245.114 24.7433 245.678 24.5022 246.313C24.2611 246.948 21.0154 246.26 18.2224 246.054C15.4294 245.849 12.166 246.102 12.2483 248.806C12.3306 251.511 17.6285 258.326 33.0459 263.359L40.3429 265.223L45.7114 259.896C56.5188 247.801 57.6831 239.251 56.3953 236.87C55.1076 234.489 52.15 235.917 49.8391 237.493C47.5283 239.069 45.0646 241.292 44.5471 240.868C44.0297 240.445 43.8886 239.863 44.4648 238.693C45.0411 237.523 50.533 226.933 47.9928 223.011C45.4527 219.089 37.5441 224.975 36.2563 225.516C34.9686 226.057 34.7569 224.781 34.9804 223.987C35.2038 223.193 37.7557 214.261 39.0964 210.239C40.437 206.217 40.143 203.248 37.7793 202.007C35.4155 200.767 32.7695 204.277 31.0702 205.347C29.3709 206.417 28.4595 204.071 28.4595 204.071C28.4595 204.071 27.6715 197.991 24.6081 187.078C21.5446 176.165 16.7583 178.129 16.7583 178.129" fill="#EBEBEB"/>
<path d="M40.3371 267.034C38.1321 259.008 34.4571 244.69 31.229 232.389C28.0008 220.088 25.0785 208.987 22.9088 200.949C21.8268 196.939 20.9507 193.687 20.3392 191.435L19.6395 188.842L19.4631 188.172L19.4102 187.937C19.4102 187.937 19.4396 188.013 19.4866 188.166L19.6865 188.83C19.857 189.418 20.104 190.294 20.4274 191.406C21.0683 193.646 21.968 196.892 23.0734 200.902C25.2784 208.928 28.2302 220.041 31.4524 232.331C34.6746 244.62 38.332 258.955 40.4841 266.993" fill="#E0E0E0"/>
<path d="M16.5054 211.798C16.6716 211.869 16.831 211.956 16.9817 212.056C17.2874 212.233 17.7167 212.503 18.2459 212.838C19.2984 213.515 20.7272 214.479 22.2913 215.578L26.2779 218.401L27.4892 219.253C27.6462 219.346 27.7922 219.457 27.9243 219.583C27.7544 219.517 27.5926 219.433 27.4422 219.33C27.1364 219.153 26.7072 218.883 26.1839 218.542C25.1372 217.854 23.7143 216.866 22.1561 215.772L18.14 212.974L16.964 212.133C16.795 212.045 16.6403 211.932 16.5054 211.798Z" fill="#E0E0E0"/>
<path d="M28.53 219.224C28.4712 219.189 30.3411 216.149 32.699 212.433C35.0568 208.716 37.0149 205.735 37.0678 205.8C37.1207 205.865 35.2568 208.869 32.8989 212.586C30.541 216.302 28.583 219.259 28.53 219.224Z" fill="#E0E0E0"/>
<path d="M32.6284 238.31C32.7467 238.166 32.8808 238.036 33.0283 237.922L34.1631 236.929C35.1157 236.082 36.4328 234.912 37.8381 233.565C39.2434 232.219 40.4782 230.96 41.3661 230.037L42.4186 228.95C42.5375 228.806 42.6738 228.677 42.8243 228.567C42.7257 228.725 42.6115 228.873 42.4833 229.008C42.254 229.285 41.8953 229.673 41.4896 230.149C40.637 231.102 39.4198 232.383 38.0027 233.73C36.5857 235.076 35.2627 236.235 34.2748 237.046C33.7809 237.452 33.3752 237.775 33.0988 237.987C32.9567 238.115 32.7985 238.223 32.6284 238.31Z" fill="#E0E0E0"/>
<path d="M20.2745 234.024C20.4452 234.043 20.613 234.083 20.7743 234.142L22.1091 234.553C23.2322 234.906 24.7845 235.412 26.4897 235.982C28.1949 236.552 29.7355 237.087 30.8527 237.481L32.1639 237.964C32.3287 238.012 32.4867 238.081 32.6343 238.169C32.4638 238.146 32.2963 238.105 32.1345 238.046L30.7997 237.64C29.6708 237.282 28.1243 236.776 26.4133 236.205C24.7022 235.635 23.1675 235.106 22.0562 234.706L20.7449 234.23C20.5813 234.178 20.4236 234.109 20.2745 234.024Z" fill="#E0E0E0"/>
<path d="M21.7504 251.305C21.9682 251.34 22.1826 251.393 22.3913 251.464L24.1024 251.981C25.5488 252.428 27.5363 253.063 29.7354 253.745C31.9345 254.428 33.9102 255.116 35.339 255.604L37.0325 256.192C37.2356 256.256 37.4324 256.338 37.6205 256.439C37.402 256.408 37.1872 256.355 36.9796 256.28L35.292 255.78C33.8455 255.333 31.8581 254.698 29.659 254.016C27.4598 253.334 25.4842 252.646 24.0553 252.158L22.3619 251.57C22.1488 251.505 21.9437 251.416 21.7504 251.305Z" fill="#E0E0E0"/>
<path d="M37.2971 256.239C37.4454 256.055 37.6108 255.885 37.791 255.733L39.1846 254.416C40.3606 253.299 41.9717 251.758 43.7122 250C45.4527 248.242 46.9815 246.619 48.081 245.431L49.3864 244.02C49.5381 243.841 49.7053 243.676 49.8862 243.526C49.7576 243.721 49.6141 243.906 49.457 244.079C49.1688 244.432 48.7396 244.931 48.2045 245.537C47.1344 246.754 45.6173 248.401 43.8768 250.159C42.1364 251.917 40.4841 253.428 39.3081 254.539C38.7201 255.074 38.2085 255.51 37.8616 255.804C37.6852 255.963 37.4965 256.109 37.2971 256.239Z" fill="#E0E0E0"/>
<path d="M248.724 267.628C236.535 260.884 231.955 245.872 230.537 232.013C230.302 229.696 229.738 227.309 230.49 225.139C231.243 222.97 233.43 221.264 235.506 221.97C237.217 222.558 238.181 224.445 239.299 225.968C240.754 227.971 242.748 229.519 245.049 230.431C246.525 231.019 248.283 231.237 249.53 230.255C251.241 228.897 251.088 226.139 250.771 223.834L248.971 211.033C248.648 208.74 248.324 206.4 248.701 204.136C249.077 201.872 250.277 199.644 252.229 198.756C254.181 197.868 256.88 198.756 257.609 200.955C257.818 201.893 257.968 202.844 258.056 203.801C258.244 204.742 258.797 205.735 259.679 205.888C260.561 206.041 261.343 205.3 261.89 204.512C263.795 201.89 264.894 198.703 265.894 195.545C266.894 192.388 267.852 189.165 269.522 186.367C271.192 183.568 273.697 181.18 276.737 180.575C279.777 179.969 283.328 181.539 284.534 184.632C285.739 187.725 284.428 191.276 282.858 194.158C280.562 198.391 277.669 202.273 274.267 205.682C273.583 206.232 273.09 206.983 272.856 207.829C272.597 209.416 274.155 210.769 275.637 211.057C277.307 211.404 279.018 210.986 280.717 210.969C282.417 210.951 284.334 211.486 285.192 213.091C286.368 215.308 284.886 218.019 283.299 219.877C280.156 223.571 276.384 226.679 272.156 229.055C270.663 229.89 269.075 230.661 267.964 231.995C266.852 233.33 266.358 235.523 267.346 237.029C268.334 238.534 270.374 238.793 271.98 238.205C273.585 237.617 274.92 236.488 276.425 235.635C279.206 234.042 283.04 233.736 285.292 236.194C286.774 237.811 287.221 240.31 286.88 242.509C286.453 244.687 285.609 246.762 284.392 248.618C280.47 255.192 275.067 260.796 268.575 264.271C262.084 267.746 255.845 269.304 248.701 267.581" fill="#F5F5F5"/>
<path d="M250.894 258.52C252.019 250.721 253.57 242.989 255.539 235.359C256.051 233.336 256.556 231.331 257.05 229.361C257.544 227.391 258.044 225.439 258.644 223.563C259.79 219.977 261.127 216.453 262.648 213.009C264.077 209.722 265.547 206.658 266.941 203.807C268.334 200.955 269.687 198.321 271.015 195.98C273.086 192.291 275.445 188.772 278.071 185.455C278.989 184.279 279.73 183.409 280.241 182.821L280.829 182.157C280.893 182.078 280.964 182.005 281.041 181.939C280.988 182.026 280.929 182.108 280.864 182.186L280.306 182.88C279.818 183.468 279.095 184.385 278.195 185.567C275.631 188.919 273.32 192.457 271.28 196.151C269.969 198.503 268.64 201.131 267.252 203.983C265.865 206.835 264.395 209.916 262.983 213.185C261.476 216.619 260.151 220.131 259.014 223.705C258.426 225.574 257.932 227.509 257.433 229.479C256.933 231.449 256.433 233.454 255.921 235.476C253.959 243.089 252.4 250.801 251.253 258.579" fill="#E0E0E0"/>
<path d="M258.756 223.534C258.608 223.232 258.494 222.914 258.415 222.587C258.215 221.97 257.956 221.064 257.65 219.941C257.062 217.701 256.298 214.579 255.492 211.121C254.687 207.664 253.899 204.571 253.258 202.348C252.94 201.237 252.67 200.337 252.487 199.72C252.371 199.403 252.285 199.077 252.229 198.744C252.399 199.035 252.533 199.345 252.629 199.667C252.864 200.255 253.175 201.155 253.522 202.26C254.234 204.471 255.069 207.552 255.874 211.027C256.68 214.502 257.38 217.495 257.921 219.847C258.173 220.912 258.391 221.805 258.562 222.523C258.658 222.853 258.723 223.192 258.756 223.534Z" fill="#E0E0E0"/>
<path d="M285.568 214.226C285.219 214.36 284.856 214.459 284.486 214.52C283.787 214.685 282.775 214.92 281.546 215.249C279.065 215.89 275.666 216.901 271.956 218.189C268.246 219.477 264.953 220.817 262.589 221.858C261.413 222.364 260.461 222.805 259.802 223.105C259.471 223.278 259.124 223.422 258.767 223.534C259.068 223.303 259.394 223.106 259.738 222.946C260.373 222.599 261.307 222.117 262.478 221.57C265.529 220.146 268.651 218.881 271.833 217.778C274.994 216.656 278.216 215.709 281.482 214.943C282.734 214.655 283.757 214.467 284.469 214.355C284.83 214.275 285.198 214.232 285.568 214.226Z" fill="#E0E0E0"/>
<path d="M251.159 257.926C251.159 257.926 251.065 257.82 250.918 257.597L250.33 256.591C249.8 255.721 249.059 254.439 248.172 252.846C246.408 249.653 244.056 245.161 241.539 240.174C239.022 235.188 236.729 230.672 235.012 227.444L232.966 223.634L232.413 222.587C232.339 222.471 232.281 222.344 232.243 222.211C232.337 222.312 232.418 222.424 232.484 222.546L233.072 223.546C233.601 224.416 234.342 225.698 235.23 227.297C236.994 230.49 239.346 234.977 241.862 239.969C244.379 244.961 246.672 249.465 248.389 252.693L250.435 256.509L250.988 257.544C251.061 257.664 251.118 257.792 251.159 257.926Z" fill="#E0E0E0"/>
<path d="M286.074 240.263C285.971 240.349 285.856 240.42 285.733 240.474L284.722 240.998L280.976 242.897C277.818 244.502 273.485 246.772 268.699 249.288C263.912 251.805 259.555 254.034 256.351 255.568C254.757 256.339 253.463 256.944 252.558 257.332L251.517 257.785C251.276 257.885 251.147 257.932 251.141 257.914C251.245 257.832 251.36 257.762 251.482 257.709L252.493 257.179L256.233 255.28C259.385 253.675 263.724 251.405 268.51 248.889C273.297 246.372 277.654 244.143 280.858 242.609C282.452 241.844 283.751 241.233 284.657 240.845L285.698 240.392C285.816 240.331 285.943 240.287 286.074 240.263Z" fill="#E0E0E0"/>
<path d="M285.521 281.27C285.521 281.358 223.458 281.429 146.918 281.429C70.3779 281.429 8.30273 281.358 8.30273 281.27C8.30273 281.182 70.3544 281.117 146.918 281.117C223.481 281.117 285.521 281.188 285.521 281.27Z" fill="#263238"/>
<path d="M249.43 129.589H42.1187C37.3872 129.589 33.5515 133.425 33.5515 138.157V269.445C33.5515 274.177 37.3872 278.012 42.1187 278.012H249.43C254.161 278.012 257.997 274.177 257.997 269.445V138.157C257.997 133.425 254.161 129.589 249.43 129.589Z" fill="#455A64"/>
<path d="M24.7786 268.428H267.952V271.168C267.952 273.885 266.873 276.49 264.952 278.411C263.031 280.332 260.425 281.411 257.709 281.411H35.0215C32.3049 281.411 29.6996 280.332 27.7787 278.411C25.8577 276.49 24.7786 273.885 24.7786 271.168V268.428Z" fill="#455A64"/>
<path d="M251.341 135.487H39.5726V260.831H251.341V135.487Z" fill="#263238"/>
<path d="M123.645 267.04L126.667 271.838H169.127L171.926 267.04H123.645Z" fill="#263238"/>
<path d="M245.496 139.732H45.8583C44.7964 139.732 43.9355 140.593 43.9355 141.655V258.508C43.9355 259.57 44.7964 260.431 45.8583 260.431H245.496C246.558 260.431 247.419 259.57 247.419 258.508V141.655C247.419 140.593 246.558 139.732 245.496 139.732Z" fill="#EBEBEB"/>
<path d="M247.201 260.607H43.718L43.9356 148.752H247.201V260.607Z" fill="#FAFAFA"/>
<path d="M60.6231 144.395C60.6219 144.716 60.5257 145.029 60.3467 145.295C60.1677 145.561 59.9138 145.768 59.6172 145.89C59.3205 146.012 58.9944 146.044 58.68 145.98C58.3656 145.917 58.077 145.762 57.8506 145.535C57.6242 145.308 57.4702 145.018 57.4081 144.704C57.3459 144.389 57.3784 144.063 57.5014 143.767C57.6244 143.471 57.8324 143.218 58.0992 143.04C58.3659 142.861 58.6795 142.766 59.0002 142.766C59.2138 142.766 59.4253 142.809 59.6226 142.891C59.8199 142.972 59.999 143.093 60.1498 143.244C60.3006 143.395 60.42 143.575 60.5012 143.772C60.5824 143.97 60.6238 144.182 60.6231 144.395Z" fill="#263238"/>
<path d="M50.774 144.395C50.774 144.718 50.6783 145.033 50.4991 145.301C50.3199 145.569 50.0651 145.777 49.7672 145.901C49.4692 146.024 49.1414 146.056 48.8253 145.992C48.5092 145.929 48.219 145.773 47.9915 145.545C47.7639 145.316 47.6092 145.026 47.5471 144.709C47.4849 144.393 47.518 144.065 47.6422 143.768C47.7663 143.47 47.976 143.216 48.2446 143.038C48.5133 142.86 48.8287 142.765 49.1511 142.766C49.3647 142.766 49.5763 142.809 49.7735 142.891C49.9708 142.972 50.15 143.093 50.3008 143.244C50.4515 143.395 50.5709 143.575 50.6522 143.772C50.7334 143.97 50.7748 144.182 50.774 144.395Z" fill="#263238"/>
<path d="M55.5016 144.395C55.5004 144.716 55.4043 145.029 55.2252 145.295C55.0462 145.561 54.7924 145.768 54.4957 145.89C54.1991 146.012 53.873 146.044 53.5585 145.98C53.2441 145.917 52.9555 145.762 52.7291 145.535C52.5027 145.308 52.3488 145.018 52.2866 144.704C52.2245 144.389 52.257 144.063 52.38 143.767C52.503 143.471 52.711 143.218 52.9777 143.04C53.2445 142.861 53.558 142.766 53.8787 142.766C54.0923 142.766 54.3039 142.809 54.5011 142.891C54.6984 142.972 54.8776 143.093 55.0284 143.244C55.1791 143.395 55.2986 143.575 55.3798 143.772C55.461 143.97 55.5024 144.182 55.5016 144.395Z" fill="#263238"/>
<path d="M256.068 267.04C256.068 267.117 206.253 267.181 144.813 267.181C83.3728 267.181 33.5515 267.117 33.5515 267.04C33.5515 266.964 83.3551 266.893 144.813 266.893C206.271 266.893 256.068 266.952 256.068 267.04Z" fill="#263238"/>
<path d="M166.657 198.232H130.107C123.697 198.232 118.5 203.429 118.5 209.84V211.468C118.5 217.879 123.697 223.075 130.107 223.075H166.657C173.068 223.075 178.264 217.879 178.264 211.468V209.84C178.264 203.429 173.068 198.232 166.657 198.232Z" fill="#3362CC"/>
<path d="M136.369 212.297L136.775 211.398C137.274 211.745 137.866 211.933 138.474 211.939C139.18 211.939 139.468 211.703 139.468 211.386C139.468 210.422 136.469 211.08 136.469 209.169C136.469 208.293 137.181 207.564 138.645 207.564C139.263 207.555 139.872 207.711 140.409 208.017L140.044 208.922C139.61 208.669 139.118 208.531 138.615 208.522C137.904 208.522 137.633 208.787 137.633 209.11C137.633 210.057 140.632 209.404 140.632 211.298C140.632 212.156 139.915 212.897 138.445 212.897C137.709 212.91 136.985 212.701 136.369 212.297Z" fill="white"/>
<path d="M142.467 208.622H140.814V207.652H145.307V208.622H143.66V212.809H142.484L142.467 208.622Z" fill="white"/>
<path d="M149.082 211.68H146.689L146.236 212.785H145.013L147.306 207.629H148.482L150.787 212.785H149.535L149.082 211.68ZM148.705 210.774L147.888 208.799L147.071 210.774H148.705Z" fill="white"/>
<path d="M154.615 212.809L153.615 211.368H152.522V212.809H151.346V207.652H153.58C154.956 207.652 155.814 208.364 155.814 209.522C155.828 209.87 155.734 210.213 155.544 210.505C155.355 210.796 155.079 211.022 154.756 211.151L155.932 212.809H154.615ZM153.492 208.622H152.522V210.422H153.492C154.221 210.422 154.591 210.081 154.591 209.522C154.591 208.963 154.221 208.622 153.492 208.622Z" fill="white"/>
<path d="M157.731 208.622H156.085V207.652H160.577V208.622H158.925V212.809H157.749L157.731 208.622Z" fill="white"/>
<path d="M238.746 269.745L245.696 272.185L245.62 278.865C242.291 279.806 241.827 281.487 241.827 281.487L248.783 281.329L254.834 269.022L250.047 265.894L241.098 261.978" fill="#3362CC"/>
<g opacity="0.6">
<path d="M254.833 269.022L248.783 281.329L241.827 281.487L242.585 280.423L248.236 279.982L253.816 268.357L254.833 269.022Z" fill="white"/>
</g>
<path d="M245.596 275.807C245.649 275.878 246.043 275.637 246.584 275.643C247.125 275.649 247.519 275.86 247.572 275.79C247.625 275.719 247.236 275.325 246.584 275.337C245.931 275.349 245.531 275.772 245.596 275.807Z" fill="#263238"/>
<path d="M245.696 274.149C245.766 274.196 246.066 273.779 246.619 273.655C247.172 273.532 247.619 273.779 247.66 273.708C247.701 273.638 247.601 273.561 247.407 273.455C247.14 273.329 246.839 273.295 246.551 273.36C246.263 273.425 246.006 273.585 245.819 273.814C245.661 274.008 245.637 274.126 245.696 274.149Z" fill="#263238"/>
<path d="M245.578 272.021C245.655 272.056 245.884 271.65 246.366 271.474C246.848 271.297 247.283 271.444 247.319 271.362C247.354 271.28 247.242 271.233 247.048 271.168C246.79 271.08 246.509 271.085 246.254 271.181C245.998 271.278 245.784 271.46 245.649 271.697C245.549 271.874 245.543 272.009 245.578 272.021Z" fill="#263238"/>
<path d="M245.067 272.015C245.155 272.015 245.102 271.556 245.308 271.086C245.514 270.615 245.855 270.345 245.814 270.268C245.772 270.192 245.273 270.386 245.026 270.968C244.779 271.55 244.99 272.056 245.067 272.015Z" fill="#263238"/>
<path d="M244.244 271.233C244.347 270.931 244.402 270.616 244.408 270.298C244.438 269.963 244.467 269.627 244.502 269.28C244.532 269.066 244.532 268.848 244.502 268.634C244.466 268.491 244.378 268.367 244.255 268.287C244.185 268.24 244.102 268.216 244.017 268.216C243.933 268.216 243.85 268.24 243.779 268.287C243.591 268.45 243.454 268.665 243.385 268.904C243.314 269.107 243.273 269.319 243.262 269.533C243.241 269.894 243.303 270.254 243.444 270.586C243.691 271.174 244.032 271.356 244.032 271.333C243.879 271.067 243.741 270.792 243.62 270.509C243.522 270.202 243.486 269.878 243.515 269.557C243.535 269.37 243.579 269.186 243.644 269.01C243.696 268.832 243.793 268.67 243.926 268.54C243.947 268.524 243.973 268.515 244 268.515C244.026 268.515 244.052 268.524 244.073 268.54C244.131 268.576 244.172 268.633 244.191 268.698C244.212 268.882 244.212 269.067 244.191 269.251C244.191 269.598 244.191 269.939 244.161 270.274C244.137 270.596 244.165 270.92 244.244 271.233Z" fill="#263238"/>
<path d="M244.132 271.538C244.161 271.538 243.955 271.215 243.42 271.039C243.059 270.929 242.672 270.939 242.316 271.066C241.961 271.193 241.655 271.431 241.445 271.744C241.429 271.789 241.424 271.836 241.429 271.883C241.434 271.93 241.449 271.975 241.474 272.015C241.518 272.082 241.581 272.133 241.656 272.162C241.762 272.2 241.873 272.222 241.986 272.226C242.181 272.246 242.378 272.246 242.574 272.226C242.89 272.198 243.2 272.119 243.491 271.991C243.991 271.774 244.22 271.521 244.196 271.497C244.173 271.474 243.902 271.638 243.42 271.791C243.139 271.882 242.846 271.933 242.55 271.944C242.38 271.959 242.209 271.959 242.038 271.944C241.958 271.938 241.879 271.922 241.803 271.897C241.744 271.862 241.762 271.868 241.762 271.85C241.794 271.786 241.841 271.729 241.897 271.685C241.96 271.624 242.029 271.569 242.103 271.521C242.24 271.425 242.39 271.352 242.55 271.303C242.823 271.22 243.111 271.206 243.391 271.262C243.644 271.336 243.892 271.428 244.132 271.538Z" fill="#263238"/>
<g opacity="0.6">
<path d="M249.283 268.939C249.285 269.048 249.309 269.154 249.352 269.253C249.396 269.352 249.458 269.442 249.536 269.516C249.614 269.591 249.706 269.65 249.807 269.689C249.908 269.728 250.015 269.747 250.123 269.745C250.232 269.743 250.338 269.719 250.437 269.676C250.536 269.632 250.626 269.569 250.7 269.491C250.775 269.413 250.834 269.321 250.873 269.22C250.912 269.12 250.931 269.012 250.929 268.904C250.927 268.796 250.903 268.689 250.86 268.59C250.816 268.491 250.754 268.402 250.675 268.327C250.597 268.252 250.505 268.194 250.405 268.154C250.304 268.115 250.196 268.096 250.088 268.099C249.98 268.101 249.874 268.124 249.775 268.168C249.676 268.211 249.586 268.274 249.511 268.352C249.436 268.43 249.378 268.522 249.339 268.623C249.299 268.724 249.28 268.831 249.283 268.939Z" fill="white"/>
</g>
<path d="M203.089 266.952L203.184 276.054C203.184 276.054 193.958 279.212 193.811 280.893L211.451 281.346L211.886 267.152L203.089 266.952Z" fill="#3362CC"/>
<g opacity="0.6">
<path d="M208.652 275.431C208.82 275.488 208.961 275.604 209.049 275.758C209.137 275.912 209.165 276.093 209.128 276.266C209.077 276.435 208.964 276.58 208.811 276.669C208.659 276.758 208.478 276.787 208.305 276.748C208.127 276.687 207.977 276.564 207.884 276.4C207.791 276.236 207.76 276.044 207.799 275.86C207.87 275.687 208.005 275.548 208.176 275.472C208.347 275.397 208.541 275.39 208.717 275.454" fill="white"/>
</g>
<g opacity="0.6">
<path d="M211.474 281.346V279.911L194.546 280.017C194.546 280.017 193.746 280.335 193.823 280.893L211.474 281.346Z" fill="white"/>
</g>
<path d="M202.895 275.96C202.895 276.042 203.331 276.095 203.748 276.384C204.166 276.672 204.377 277.042 204.46 277.007C204.542 276.972 204.424 276.472 203.913 276.137C203.401 275.801 202.884 275.878 202.895 275.96Z" fill="#263238"/>
<path d="M201.008 276.677C201.008 276.76 201.355 276.919 201.637 277.265C201.919 277.612 201.996 278.024 202.084 278.024C202.172 278.024 202.237 277.536 201.878 277.077C201.52 276.619 201.008 276.595 201.008 276.677Z" fill="#263238"/>
<path d="M199.914 278.865C199.997 278.865 200.126 278.459 199.914 277.983C199.703 277.507 199.326 277.307 199.267 277.395C199.209 277.483 199.473 277.724 199.644 278.118C199.814 278.512 199.832 278.859 199.914 278.865Z" fill="#263238"/>
<path d="M203.107 273.879C203.142 273.961 203.536 273.879 204.024 273.879C204.512 273.879 204.889 274.09 204.936 274.014C204.983 273.937 204.624 273.626 204.048 273.579C203.472 273.532 203.066 273.814 203.107 273.879Z" fill="#263238"/>
<g opacity="0.3">
<path d="M203.107 268.751L203.125 270.374L211.804 270.521L211.851 269.057L203.107 268.751Z" fill="black"/>
</g>
<path d="M203.119 272.044C203.409 272.125 203.716 272.125 204.007 272.044C204.326 271.996 204.638 271.909 204.936 271.785C205.114 271.711 205.287 271.624 205.453 271.527C205.554 271.476 205.646 271.409 205.724 271.327C205.782 271.267 205.819 271.189 205.829 271.106C205.838 271.023 205.82 270.94 205.777 270.868C205.735 270.808 205.679 270.758 205.615 270.722C205.551 270.687 205.48 270.666 205.406 270.662C205.293 270.66 205.181 270.672 205.071 270.698C204.882 270.739 204.697 270.798 204.518 270.874C204.217 271 203.937 271.173 203.689 271.385C203.266 271.756 203.101 272.073 203.148 272.091C203.195 272.109 203.395 271.856 203.819 271.556C204.065 271.38 204.334 271.237 204.618 271.133C204.785 271.07 204.956 271.021 205.13 270.986C205.318 270.944 205.477 270.944 205.524 271.033C205.571 271.121 205.524 271.074 205.524 271.127C205.466 271.187 205.399 271.237 205.324 271.274C205.165 271.374 205.006 271.456 204.854 271.532C204.574 271.658 204.285 271.76 203.989 271.838C203.694 271.883 203.403 271.952 203.119 272.044Z" fill="#263238"/>
<path d="M203.231 272.173C203.401 271.922 203.49 271.624 203.483 271.321C203.51 270.994 203.478 270.666 203.389 270.351C203.339 270.163 203.268 269.981 203.178 269.81C203.133 269.691 203.059 269.586 202.962 269.505C202.866 269.423 202.749 269.368 202.625 269.345C202.546 269.345 202.468 269.367 202.401 269.41C202.335 269.453 202.282 269.514 202.249 269.586C202.202 269.687 202.168 269.794 202.149 269.904C202.121 270.099 202.121 270.297 202.149 270.492C202.186 270.825 202.307 271.142 202.502 271.415C202.837 271.879 203.189 272.003 203.201 271.962C203.213 271.921 202.931 271.744 202.678 271.297C202.534 271.04 202.446 270.756 202.419 270.462C202.406 270.291 202.416 270.119 202.449 269.951C202.484 269.763 202.554 269.616 202.625 269.633C202.696 269.651 202.86 269.78 202.931 269.933C203.012 270.088 203.081 270.25 203.137 270.415C203.226 270.703 203.276 271.002 203.284 271.303C203.284 271.838 203.184 272.156 203.231 272.173Z" fill="#263238"/>
<path d="M244.144 262.313L223.805 254.751L245.184 251.746L246.26 241.333L206.282 244.82L200.637 252.952L202.119 263.148L241.074 273.05L244.144 262.313Z" fill="#263238"/>
<path d="M201.008 269.598L199.062 232.378C199.115 230.595 199.622 228.856 200.536 227.325C201.45 225.793 202.74 224.521 204.283 223.628C205.566 222.884 206.992 222.422 208.467 222.271C209.942 222.12 211.432 222.284 212.839 222.752L238.775 231.402L253.011 235.065C253.011 235.065 255.439 241.045 254.01 245.69C252.617 250.241 247.631 253.269 243.244 251.97C237.793 250.353 212.78 239.622 212.78 239.622V269.892L201.008 269.598Z" fill="#263238"/>
<path d="M242.879 252.064L242.727 252.017L242.28 251.846L240.58 251.164L234.342 248.618L213.791 240.139L212.744 239.704L212.915 239.592C212.915 248.018 212.886 255.586 212.874 261.072C212.874 263.794 212.874 265.999 212.838 267.54C212.838 268.287 212.838 268.875 212.838 269.304C212.838 269.492 212.838 269.645 212.838 269.757C212.847 269.809 212.847 269.863 212.838 269.916C212.833 269.863 212.833 269.81 212.838 269.757V269.304C212.838 268.887 212.838 268.299 212.838 267.54C212.838 265.999 212.838 263.794 212.803 261.072C212.803 255.586 212.803 248.018 212.768 239.592V239.416L212.933 239.481L213.979 239.916L234.5 248.459L240.616 251.076L242.297 251.799L242.732 251.993L242.879 252.064Z" fill="#455A64"/>
<path d="M218.924 252.111C220.805 252.44 222.522 253.39 223.799 254.81C223.746 254.863 222.823 254.004 221.447 253.257C220.071 252.511 218.901 252.181 218.924 252.111Z" fill="#455A64"/>
<path d="M210.534 234.559C211.092 235.339 211.554 236.184 211.91 237.076C212.334 237.935 212.658 238.841 212.874 239.775C212.809 239.775 212.333 238.599 211.698 237.176C211.063 235.753 210.475 234.612 210.534 234.559Z" fill="#455A64"/>
<path d="M210.592 218.16L206.006 217.301L201.19 222.217L202.078 225.351L207.693 223.281L210.592 218.16Z" fill="#FFBE9D"/>
<path d="M168.215 206.941L173.431 205.765L181.827 207.076L181.504 212.433C181.504 212.433 178.899 212.809 177.976 212.503C177.42 212.321 176.822 212.309 176.259 212.468C176.259 212.468 176.771 213.52 175.889 213.691C175.007 213.861 173.566 214.232 173.296 212.985C173.074 212.999 172.854 212.935 172.675 212.804C172.496 212.673 172.368 212.483 172.314 212.268C172.314 212.268 171.631 212.515 171.326 211.321C171.02 210.128 171.196 208.334 173.554 207.764C173.678 207.735 173.737 207.452 173.501 207.464L169.773 208.164C169.773 208.164 167.269 208.275 168.215 206.941Z" fill="#FFBE9D"/>
<path d="M172.655 210.675C172.943 210.586 173.241 210.532 173.542 210.516C173.87 210.466 174.2 210.437 174.53 210.428C174.642 210.43 174.753 210.455 174.854 210.503C174.955 210.55 175.045 210.619 175.118 210.704C175.191 210.808 175.233 210.931 175.239 211.058C175.245 211.184 175.216 211.31 175.154 211.421C175.031 211.598 174.873 211.747 174.69 211.859C174.507 211.971 174.302 212.044 174.089 212.074C173.772 212.164 173.45 212.235 173.125 212.286C172.826 212.344 172.518 212.344 172.219 212.286C172.508 212.207 172.8 212.147 173.096 212.103C173.366 212.045 173.684 211.962 174.031 211.851C174.207 211.807 174.38 211.75 174.548 211.68C174.717 211.599 174.858 211.47 174.954 211.31C174.997 211.238 175.02 211.155 175.02 211.071C175.02 210.987 174.997 210.905 174.954 210.833C174.843 210.711 174.689 210.637 174.524 210.627C174.189 210.627 173.842 210.663 173.566 210.669C173.264 210.709 172.957 210.711 172.655 210.675Z" fill="#EB996E"/>
<path d="M173.548 209.522C173.548 209.587 173.29 209.722 173.09 210.034C172.89 210.345 172.86 210.651 172.796 210.657C172.731 210.663 172.649 210.281 172.902 209.904C173.154 209.528 173.548 209.463 173.548 209.522Z" fill="#EB996E"/>
<path d="M174.983 211.433C174.983 211.433 175.036 211.433 175.118 211.433C175.201 211.433 175.295 211.604 175.365 211.715C175.421 211.801 175.457 211.898 175.473 212C175.488 212.101 175.481 212.205 175.453 212.303C175.412 212.421 175.34 212.525 175.245 212.606C175.15 212.686 175.035 212.74 174.912 212.762C174.538 212.879 174.154 212.965 173.766 213.021C173.466 213.05 173.278 213.021 173.278 212.991C173.278 212.962 173.46 212.932 173.742 212.862C174.025 212.791 174.413 212.668 174.848 212.55C174.937 212.536 175.021 212.5 175.093 212.446C175.164 212.392 175.222 212.32 175.259 212.239C175.317 212.097 175.317 211.939 175.259 211.798C175.189 211.651 175.165 211.557 175.107 211.509C175.048 211.462 174.971 211.445 174.983 211.433Z" fill="#EB996E"/>
<path d="M175.33 212.344C175.33 212.344 175.389 212.239 175.553 212.215C175.761 212.201 175.967 212.255 176.141 212.368C176.231 212.431 176.304 212.513 176.356 212.609C176.408 212.705 176.437 212.812 176.441 212.921C176.441 213.074 176.441 213.168 176.388 213.168C176.335 213.168 176.33 213.079 176.283 212.95C176.242 212.796 176.151 212.659 176.024 212.562C175.883 212.47 175.725 212.406 175.559 212.374C175.43 212.35 175.348 212.374 175.33 212.344Z" fill="#EB996E"/>
<path d="M177.929 208.181L175.577 209.116L173.372 210.68C173.372 210.68 173.372 211.221 174.624 211.021C175.412 210.889 176.165 210.597 176.835 210.163C176.835 210.163 178.476 211.198 179.928 210.957" fill="#FFBE9D"/>
<path d="M179.905 210.957C179.905 210.957 179.828 210.986 179.675 211.016C179.453 211.04 179.228 211.04 179.005 211.016C178.21 210.918 177.445 210.653 176.759 210.239H176.865C176.043 210.794 175.086 211.116 174.095 211.168C173.928 211.174 173.761 211.15 173.601 211.098C173.506 211.07 173.422 211.015 173.357 210.94C173.292 210.865 173.251 210.773 173.237 210.675V210.622L173.284 210.586L175.518 209.034C176.241 208.758 176.835 208.534 177.253 208.387C177.465 208.297 177.685 208.228 177.911 208.181C177.714 208.303 177.505 208.405 177.288 208.487C176.882 208.664 176.3 208.911 175.583 209.205L173.372 210.786L173.419 210.692C173.419 210.763 173.519 210.863 173.637 210.904C173.771 210.948 173.912 210.968 174.054 210.963C175.001 210.909 175.917 210.609 176.712 210.092L176.771 210.057H176.823C177.482 210.468 178.212 210.749 178.976 210.886C179.283 210.932 179.594 210.955 179.905 210.957Z" fill="#EB996E"/>
<path d="M174.507 208.064C174.507 208.128 174.23 208.123 173.96 207.958C173.689 207.793 173.554 207.552 173.601 207.517C173.648 207.482 173.836 207.623 174.072 207.764C174.307 207.905 174.548 208.005 174.507 208.064Z" fill="#EB996E"/>
<path d="M181.375 213.85L201.284 216.743C203.262 217.367 205.406 217.188 207.253 216.243L224.987 207.147L219.695 195.439C219.01 195.674 218.342 195.955 217.695 196.28L203.107 206.794L181.939 206.053L181.375 213.85Z" fill="#3362CC"/>
<path d="M252.628 234.977L251.358 232.748L237.787 229.349L239.387 232.113L252.628 234.977Z" fill="#FFBE9D"/>
<path d="M219.677 195.439C219.677 195.91 217.684 210.645 217.684 213.667C217.684 216.69 223.446 219.941 223.446 219.941L229.755 233.342H252.234L244.549 218.912L241.074 207.352C239.757 202.978 239.898 200.714 236.635 197.509L230.349 193.276L219.677 195.439Z" fill="#3362CC"/>
<path d="M226.204 207.07L229.979 222.911L210.939 217.56L207.694 223.299L232.466 234.577C233.947 235.25 235.617 235.384 237.187 234.954C238.756 234.525 240.125 233.559 241.057 232.225C241.632 231.401 242.024 230.463 242.203 229.475C242.383 228.486 242.347 227.471 242.097 226.498L236.553 204.83C236.373 204.123 236.049 203.461 235.602 202.886C235.154 202.31 234.593 201.833 233.953 201.485C233.312 201.137 232.607 200.924 231.88 200.861C231.154 200.799 230.423 200.886 229.732 201.12C228.528 201.523 227.509 202.346 226.861 203.439C226.213 204.531 225.98 205.82 226.204 207.07Z" fill="#3362CC"/>
<path d="M223.799 220.676C223.635 220.375 223.437 220.093 223.211 219.836C223.07 219.765 222.87 219.659 222.623 219.512C221.895 219.102 221.197 218.64 220.535 218.13C219.521 217.391 218.682 216.438 218.078 215.337C217.49 214.02 217.49 212.397 217.731 210.81C217.972 209.222 218.319 207.717 218.483 206.335C218.648 204.953 218.842 203.713 218.918 202.666C218.995 201.619 219.012 200.767 219.012 200.179C219.012 199.591 219.012 199.261 219.012 199.261C219.036 199.338 219.05 199.417 219.054 199.497C219.054 199.649 219.089 199.879 219.107 200.173C219.15 201.007 219.15 201.843 219.107 202.678C219.054 203.73 218.924 204.989 218.724 206.37C218.524 207.752 218.219 209.257 217.989 210.845C217.76 212.433 217.731 213.991 218.295 215.243C218.875 216.317 219.676 217.255 220.647 217.995C221.296 218.513 221.973 218.994 222.676 219.436C223.119 219.781 223.499 220.201 223.799 220.676Z" fill="#263238"/>
<path d="M231.372 194.322C231.274 194.466 231.157 194.597 231.025 194.71C230.796 194.945 230.437 195.298 230.02 195.68C229.155 196.486 227.927 197.568 226.492 198.697C225.057 199.826 223.764 200.79 222.787 201.461C222.299 201.796 221.9 202.049 221.611 202.231C221.471 202.333 221.319 202.418 221.159 202.484C221.281 202.361 221.415 202.251 221.559 202.154L222.682 201.319C223.628 200.62 224.934 199.638 226.339 198.509C227.744 197.38 228.985 196.327 229.867 195.569L230.925 194.651C231.061 194.524 231.211 194.414 231.372 194.322Z" fill="#263238"/>
<path d="M226.204 207.07C226.245 207.169 226.276 207.271 226.298 207.376C226.357 207.595 226.433 207.889 226.527 208.258C226.727 209.052 227.003 210.169 227.35 211.562C228.038 214.397 228.997 218.348 230.09 222.881L230.137 223.075L229.949 223.023L225.116 221.676L210.939 217.648L211.039 217.607L208.634 221.782L207.964 222.911L207.788 223.199C207.746 223.269 207.723 223.299 207.717 223.299C207.728 223.26 207.744 223.222 207.764 223.187L207.923 222.887L208.546 221.711L210.898 217.495L210.933 217.437H210.998L225.192 221.4L230.049 222.776L229.902 222.911C228.838 218.371 227.909 214.414 227.239 211.574C226.921 210.175 226.651 209.046 226.486 208.252C226.404 207.876 226.339 207.582 226.292 207.358C226.255 207.265 226.226 207.168 226.204 207.07Z" fill="#263238"/>
<path d="M236.635 206.082C236.678 206.17 236.71 206.263 236.729 206.359C236.788 206.564 236.858 206.823 236.952 207.146L237.717 210.086C238.346 212.58 239.21 215.966 240.157 219.736C240.621 221.623 241.08 223.416 241.468 225.063C241.854 226.519 241.976 228.033 241.827 229.532C241.707 230.546 241.344 231.516 240.768 232.36C240.562 232.67 240.303 232.943 240.004 233.165C240.25 232.895 240.478 232.608 240.686 232.307C241.225 231.463 241.56 230.504 241.662 229.508C241.781 228.029 241.642 226.541 241.251 225.11C240.839 223.475 240.392 221.682 239.922 219.818L237.57 210.151L236.876 207.211L236.699 206.411C236.668 206.304 236.647 206.194 236.635 206.082Z" fill="#263238"/>
<g opacity="0.3">
<path d="M240.092 233.33C242.879 233.583 244.496 231.995 244.796 229.802C244.862 228.594 244.649 227.387 244.173 226.274C242.462 221.264 240.733 216.213 238.022 211.662C239.046 216.213 240.374 220.582 241.38 225.133C241.705 226.398 241.849 227.703 241.809 229.008C241.745 230.601 241.14 232.123 240.092 233.324" fill="black"/>
</g>
<path d="M217.237 210.504C216.809 210.141 216.429 209.724 216.108 209.263C215.287 208.191 214.587 207.032 214.02 205.806C213.453 204.578 213.025 203.29 212.744 201.966C212.604 201.423 212.533 200.864 212.533 200.302C212.703 200.831 212.844 201.369 212.956 201.913C213.293 203.204 213.742 204.463 214.297 205.677C214.855 206.886 215.521 208.043 216.284 209.134C216.884 209.998 217.272 210.504 217.237 210.504Z" fill="#FAFAFA"/>
<path d="M211.78 213.756C211.439 213.363 211.139 212.935 210.886 212.48C210.369 211.668 209.71 210.528 208.993 209.24C208.276 207.952 207.7 206.764 207.3 205.894C207.054 205.436 206.857 204.953 206.712 204.453C207.008 204.877 207.264 205.328 207.476 205.8L209.24 209.093C209.916 210.328 210.534 211.445 211.045 212.368C211.331 212.808 211.576 213.272 211.78 213.756Z" fill="#FAFAFA"/>
<path d="M204.271 216.684C203.867 215.137 203.561 213.566 203.354 211.98C203.048 210.409 202.842 208.82 202.737 207.223C203.141 208.77 203.447 210.341 203.654 211.927C203.963 213.498 204.169 215.087 204.271 216.684Z" fill="#FAFAFA"/>
<path d="M197.592 216.231C197.485 215.792 197.434 215.342 197.439 214.89C197.386 214.055 197.357 212.903 197.386 211.627C197.415 210.351 197.504 209.205 197.592 208.375C197.609 207.923 197.682 207.475 197.809 207.041C197.858 207.488 197.858 207.94 197.809 208.387C197.774 209.222 197.727 210.369 197.692 211.633C197.656 212.897 197.656 214.05 197.656 214.885C197.686 215.334 197.664 215.786 197.592 216.231Z" fill="#FAFAFA"/>
<path d="M190.906 206.506C191.011 206.913 191.066 207.332 191.071 207.752C191.13 208.528 191.165 209.604 191.147 210.792C191.13 211.98 191.047 213.056 190.959 213.826C190.944 214.249 190.873 214.669 190.747 215.073C190.659 215.073 190.8 213.15 190.836 210.786C190.871 208.422 190.812 206.511 190.906 206.506Z" fill="#FAFAFA"/>
<path d="M185.414 207.211C185.457 208.409 185.4 209.609 185.244 210.798C185.19 211.995 185.03 213.186 184.767 214.355C184.779 211.96 184.995 209.57 185.414 207.211Z" fill="#FAFAFA"/>
<path d="M218.513 201.772C218.425 201.772 218.072 200.82 217.472 199.702C216.872 198.585 216.296 197.739 216.343 197.686C217.469 198.793 218.226 200.219 218.513 201.772Z" fill="#FAFAFA"/>
<path d="M228.861 217.772C228.713 217.818 228.558 217.836 228.403 217.825C227.981 217.842 227.559 217.832 227.139 217.795C225.748 217.688 224.38 217.383 223.076 216.89C221.768 216.404 220.534 215.737 219.412 214.908C219.073 214.657 218.749 214.386 218.442 214.097C218.225 213.891 218.113 213.773 218.13 213.756C218.148 213.738 218.666 214.144 219.536 214.732C221.824 216.271 224.443 217.248 227.18 217.584C228.203 217.713 228.861 217.719 228.861 217.772Z" fill="#FAFAFA"/>
<path d="M226.715 210.263C226.303 210.281 225.891 210.235 225.492 210.128C224.517 209.943 223.556 209.688 222.617 209.363C221.677 209.043 220.762 208.65 219.883 208.187C219.503 208.023 219.149 207.805 218.83 207.54C218.877 207.458 220.536 208.323 222.717 209.069C224.898 209.816 226.733 210.175 226.715 210.263Z" fill="#FAFAFA"/>
<path d="M225.469 204.865C224.406 204.932 223.342 204.761 222.353 204.366C221.365 203.97 220.477 203.359 219.753 202.578C221.436 203.808 223.402 204.595 225.469 204.865Z" fill="#FAFAFA"/>
<path d="M234.271 201.02C234.242 201.067 233.783 200.755 232.948 200.52C231.86 200.218 230.706 200.261 229.643 200.643C228.588 201.047 227.687 201.773 227.068 202.719C226.586 203.442 226.445 203.977 226.392 203.96C226.443 203.474 226.61 203.008 226.88 202.601C227.478 201.567 228.417 200.774 229.536 200.357C230.655 199.939 231.884 199.924 233.013 200.314C233.482 200.446 233.913 200.688 234.271 201.02Z" fill="#FAFAFA"/>
<path d="M235.312 208.24C235.013 208.489 234.675 208.688 234.312 208.828C232.614 209.565 230.777 209.93 228.926 209.898C228.543 209.921 228.159 209.877 227.791 209.769C227.791 209.675 229.555 209.769 231.613 209.351C233.671 208.934 235.271 208.152 235.312 208.24Z" fill="#FAFAFA"/>
<path d="M238.322 217.301C236.966 217.587 235.59 217.774 234.206 217.86C232.827 218.044 231.435 218.129 230.043 218.113C231.4 217.824 232.775 217.637 234.159 217.554C235.539 217.369 236.931 217.285 238.322 217.301Z" fill="#FAFAFA"/>
<path d="M240.992 229.855C240.831 229.85 240.672 229.818 240.522 229.761C240.104 229.646 239.694 229.506 239.293 229.344C237.962 228.809 236.691 228.137 235.5 227.338C234.315 226.543 233.173 225.685 232.078 224.769C231.603 224.419 231.162 224.025 230.761 223.593C231.259 223.894 231.731 224.236 232.172 224.616C233.048 225.269 234.253 226.18 235.635 227.097C236.814 227.881 238.053 228.571 239.34 229.161C240.345 229.59 240.992 229.808 240.992 229.855Z" fill="#FAFAFA"/>
<path d="M226.721 231.766C226.623 231.328 226.591 230.878 226.627 230.431C226.673 228.266 227.191 226.137 228.144 224.193C228.316 223.779 228.55 223.394 228.838 223.052C228.247 224.435 227.748 225.855 227.345 227.303C227.042 228.776 226.834 230.267 226.721 231.766Z" fill="#FAFAFA"/>
<path d="M219.553 227.926C219.325 225.459 220.08 223.002 221.653 221.088C221.101 222.158 220.621 223.264 220.218 224.398C219.915 225.558 219.693 226.736 219.553 227.926Z" fill="#FAFAFA"/>
<path d="M215.555 218.542C214.728 219.525 213.996 220.584 213.368 221.705C212.831 222.873 212.408 224.09 212.104 225.339C212.063 224.945 212.093 224.547 212.192 224.163C212.368 223.249 212.671 222.365 213.091 221.535C213.512 220.705 214.049 219.939 214.685 219.259C214.933 218.973 215.227 218.731 215.555 218.542Z" fill="#FAFAFA"/>
<path d="M241.968 210.328C241.528 210.877 240.952 211.303 240.297 211.563C239.643 211.823 238.932 211.908 238.234 211.809C238.234 211.715 239.151 211.692 240.18 211.274C241.209 210.857 241.903 210.263 241.968 210.328Z" fill="#FAFAFA"/>
<path d="M239.275 202.078C239.073 202.668 238.688 203.179 238.175 203.536C237.725 203.971 237.145 204.248 236.523 204.324C236.523 204.242 237.229 203.918 237.981 203.295C238.734 202.672 239.228 202.025 239.275 202.078Z" fill="#FAFAFA"/>
<path d="M229.673 196.586C230.194 196.895 230.606 197.36 230.849 197.915C231.181 198.425 231.352 199.023 231.337 199.632C231.249 199.632 231.037 198.897 230.578 198.062C230.12 197.227 229.614 196.645 229.673 196.586Z" fill="#FAFAFA"/>
<path d="M243.932 218.095C243.42 218.554 242.791 218.863 242.115 218.989C241.465 219.208 240.767 219.243 240.098 219.089C240.098 219.001 240.992 218.965 242.039 218.689C243.085 218.413 243.897 218.019 243.932 218.095Z" fill="#FAFAFA"/>
<path d="M248.048 225.333C245.928 225.717 243.776 225.898 241.621 225.874C242.672 225.632 243.743 225.491 244.82 225.451C245.889 225.306 246.971 225.266 248.048 225.333Z" fill="#FAFAFA"/>
<path d="M250.906 231.155C247.75 231.28 244.59 231.201 241.445 230.919C244.6 230.794 247.76 230.872 250.906 231.155Z" fill="#FAFAFA"/>
<path d="M230.096 172.801C230.49 174.795 233.354 175.589 233.624 177.6C233.742 178.458 233.33 179.316 233.366 180.187C233.401 181.363 234.218 182.345 234.63 183.438C235.488 185.696 234.524 188.372 232.707 189.965C230.89 191.559 228.409 192.205 225.998 192.252" fill="#263238"/>
<path d="M213.879 174.859C214.132 175.924 213.573 176.994 212.985 177.917C212.397 178.84 211.733 179.805 211.745 180.892C211.745 182.833 213.897 184.297 213.815 186.231C213.767 187.266 213.074 188.201 213.085 189.242C213.136 189.742 213.292 190.226 213.545 190.662C213.797 191.097 214.14 191.473 214.55 191.764C215.314 192.411 216.055 192.182 216.76 192.899C217.574 193.7 218.545 194.323 219.612 194.728C221.864 195.534 224.099 193.493 225.057 193.04" fill="#263238"/>
<path d="M230.684 173.889C230.555 172.907 229.508 172.296 228.568 172.084C227.627 171.872 226.574 171.896 225.675 171.496C224.928 171.044 224.226 170.52 223.581 169.932C222.713 169.29 221.688 168.891 220.614 168.775C219.54 168.66 218.454 168.833 217.469 169.276C216.484 169.719 215.634 170.416 215.007 171.296C214.38 172.176 213.999 173.207 213.903 174.283C213.774 175.73 214.273 177.335 215.514 178.088C216.955 178.958 218.807 178.423 220.383 177.829C221.958 177.235 223.752 176.618 225.263 177.358C226.127 177.898 226.867 178.616 227.433 179.463C228.068 180.251 228.838 181.039 229.838 181.227C230.837 181.416 232.037 180.639 231.919 179.628" fill="#263238"/>
<path d="M231.025 194.71L228.673 175.665C228.617 175.255 228.408 174.88 228.089 174.616C227.771 174.352 227.364 174.216 226.951 174.236L217.942 173.395C215.12 173.536 213.826 177.241 214.062 180.057C214.35 183.18 214.82 186.99 215.549 189.242C217.007 193.77 220.659 193.805 220.659 193.805C220.659 193.805 221.317 200.508 221.588 202.154" fill="#FFBE9D"/>
<path d="M215.273 183.532C215.282 183.61 215.307 183.686 215.346 183.754C215.385 183.822 215.437 183.882 215.5 183.93C215.562 183.978 215.634 184.012 215.71 184.032C215.786 184.051 215.865 184.056 215.943 184.044C216.097 184.029 216.239 183.954 216.338 183.835C216.437 183.716 216.485 183.563 216.472 183.409C216.463 183.331 216.438 183.256 216.399 183.187C216.36 183.119 216.308 183.059 216.245 183.012C216.183 182.964 216.111 182.929 216.035 182.91C215.959 182.89 215.88 182.886 215.802 182.897C215.648 182.912 215.506 182.987 215.407 183.106C215.308 183.225 215.26 183.378 215.273 183.532Z" fill="#263238"/>
<path d="M215.12 182.356C215.208 182.427 215.608 182.021 216.249 181.921C216.89 181.821 217.425 182.074 217.466 181.98C217.507 181.886 217.396 181.815 217.172 181.698C216.864 181.547 216.517 181.496 216.178 181.551C215.844 181.602 215.535 181.758 215.296 181.998C215.12 182.18 215.061 182.327 215.12 182.356Z" fill="#263238"/>
<path d="M221.735 182.586C221.744 182.663 221.769 182.738 221.808 182.806C221.846 182.874 221.898 182.933 221.96 182.981C222.022 183.028 222.093 183.063 222.168 183.083C222.243 183.103 222.322 183.108 222.399 183.097C222.552 183.082 222.693 183.008 222.792 182.891C222.891 182.773 222.94 182.621 222.929 182.468C222.919 182.391 222.895 182.316 222.856 182.248C222.817 182.18 222.766 182.121 222.704 182.073C222.642 182.026 222.571 181.991 222.496 181.971C222.42 181.951 222.342 181.946 222.264 181.957C222.111 181.972 221.97 182.046 221.871 182.163C221.773 182.281 221.724 182.433 221.735 182.586Z" fill="#263238"/>
<path d="M221.423 181.498C221.512 181.563 221.911 181.157 222.552 181.063C223.193 180.969 223.728 181.21 223.77 181.122C223.811 181.033 223.699 180.951 223.47 180.834C223.163 180.685 222.818 180.635 222.482 180.692C222.149 180.744 221.841 180.898 221.6 181.133C221.429 181.316 221.382 181.469 221.423 181.498Z" fill="#263238"/>
<path d="M219.824 186.614C219.469 186.571 219.109 186.571 218.754 186.614C218.589 186.614 218.43 186.614 218.383 186.502C218.341 186.336 218.354 186.161 218.419 186.002C218.507 185.585 218.607 185.144 218.707 184.679C218.993 183.554 219.19 182.407 219.295 181.251C218.919 182.351 218.632 183.48 218.436 184.626C218.342 185.093 218.254 185.534 218.172 185.949C218.095 186.162 218.095 186.395 218.172 186.608C218.204 186.662 218.249 186.708 218.302 186.743C218.355 186.777 218.415 186.8 218.477 186.808C218.573 186.817 218.67 186.817 218.766 186.808C219.125 186.789 219.481 186.724 219.824 186.614Z" fill="#263238"/>
<path d="M220.635 193.805C222.813 193.545 224.868 192.658 226.551 191.253C226.057 192.378 225.248 193.335 224.221 194.01C223.194 194.684 221.993 195.046 220.765 195.051L220.635 193.805Z" fill="#EB996E"/>
<path d="M220.347 188.119C220.446 187.947 220.587 187.803 220.757 187.7C220.926 187.597 221.119 187.539 221.317 187.531C221.46 187.522 221.604 187.542 221.739 187.589C221.875 187.637 221.999 187.711 222.105 187.807C222.208 187.901 222.279 188.024 222.309 188.16C222.34 188.295 222.328 188.437 222.276 188.566C222.191 188.697 222.069 188.8 221.926 188.861C221.782 188.921 221.623 188.937 221.47 188.907C221.149 188.849 220.843 188.727 220.571 188.548C220.493 188.505 220.422 188.452 220.359 188.389C220.331 188.356 220.313 188.316 220.307 188.274C220.3 188.231 220.306 188.188 220.324 188.148" fill="#EB996E"/>
<path d="M221.794 186.766C221.688 186.766 221.794 187.472 221.276 188.054C220.759 188.636 220.006 188.683 220.012 188.777C220.018 188.871 220.2 188.889 220.518 188.848C220.929 188.783 221.304 188.575 221.576 188.26C221.837 187.963 221.976 187.579 221.964 187.184C221.947 186.913 221.841 186.755 221.794 186.766Z" fill="#263238"/>
<path d="M220.847 179.752C220.941 179.916 221.57 179.752 222.335 179.705C223.099 179.657 223.74 179.787 223.817 179.616C223.893 179.446 223.717 179.387 223.446 179.258C223.087 179.101 222.697 179.029 222.306 179.046C221.914 179.063 221.532 179.17 221.188 179.358C220.93 179.51 220.812 179.669 220.847 179.752Z" fill="#263238"/>
<path d="M215.049 180.469C215.185 180.592 215.602 180.375 216.131 180.287C216.66 180.198 217.131 180.228 217.207 180.063C217.284 179.899 217.148 179.846 216.931 179.74C216.643 179.611 216.322 179.576 216.014 179.64C215.702 179.692 215.414 179.84 215.19 180.063C215.026 180.246 214.99 180.404 215.049 180.469Z" fill="#263238"/>
<path d="M231.284 189.924C230.049 190.383 229.832 189.753 228.738 189.013C228.193 188.639 227.742 188.142 227.423 187.564C227.103 186.985 226.924 186.339 226.898 185.679C226.862 184.503 227.291 183.256 226.727 182.239C225.974 180.898 223.905 180.775 223.152 179.434C222.711 178.652 222.834 177.641 222.358 176.888C222.098 176.558 221.774 176.284 221.405 176.081C221.036 175.879 220.63 175.754 220.212 175.712C219.373 175.63 218.551 175.418 217.778 175.083C217.043 174.677 216.484 173.778 216.796 172.995C220.33 172.865 223.867 173.155 227.333 173.86C228.152 173.949 228.923 174.293 229.538 174.842C230.054 175.545 230.335 176.392 230.343 177.264C230.81 181.463 231.272 185.663 231.731 189.865" fill="#263238"/>
<path d="M232.707 179.987C232.661 179.204 232.871 178.427 233.305 177.774C233.74 177.121 234.375 176.627 235.115 176.368C235.855 176.108 236.66 176.096 237.407 176.334C238.155 176.573 238.804 177.048 239.257 177.688C239.644 178.321 239.888 179.031 239.972 179.768C240.056 180.506 239.979 181.252 239.745 181.957C239.281 183.656 238.046 185.332 236.294 185.526C234.653 185.708 233.113 184.485 232.395 182.991C231.678 181.498 231.602 179.793 231.537 178.14" fill="#263238"/>
<path d="M234.624 186.208C234.711 186.118 234.779 186.012 234.824 185.896C234.96 185.587 235.028 185.252 235.024 184.914C235.014 184.414 234.921 183.919 234.747 183.45C234.571 182.921 234.295 182.38 234.065 181.792C233.828 181.254 233.7 180.674 233.689 180.087C233.689 179.558 233.877 179.081 233.924 178.652C233.975 178.315 233.93 177.971 233.795 177.658C233.683 177.441 233.565 177.358 233.56 177.37C233.554 177.382 233.636 177.476 233.718 177.688C233.818 177.993 233.838 178.319 233.777 178.634C233.655 179.11 233.563 179.593 233.501 180.081C233.501 180.688 233.628 181.289 233.871 181.845C234.106 182.433 234.389 182.98 234.571 183.491C234.743 183.94 234.846 184.411 234.877 184.891C234.893 185.343 234.806 185.793 234.624 186.208Z" fill="#455A64"/>
<path d="M233.812 180.616C234.034 180.874 234.315 181.076 234.63 181.204C235.373 181.573 236.21 181.708 237.032 181.593C237.854 181.477 238.621 181.116 239.234 180.557C239.5 180.345 239.716 180.076 239.863 179.769C239.834 179.769 239.616 180.063 239.14 180.445C238.525 180.944 237.788 181.268 237.005 181.386C236.221 181.491 235.422 181.381 234.694 181.069C234.13 180.834 233.83 180.587 233.812 180.616Z" fill="#455A64"/>
<path d="M234.154 181.31C234.28 181.562 234.454 181.787 234.665 181.974C235.146 182.46 235.723 182.84 236.359 183.091C236.989 183.35 237.665 183.478 238.346 183.468C238.628 183.484 238.91 183.442 239.175 183.344C238.901 183.328 238.626 183.328 238.352 183.344C237.025 183.285 235.759 182.773 234.765 181.892C234.574 181.685 234.369 181.491 234.154 181.31Z" fill="#455A64"/>
<path d="M233.995 187.895C233.995 187.895 233.995 187.895 234.042 187.831C234.077 187.764 234.109 187.695 234.136 187.625C234.249 187.352 234.31 187.061 234.318 186.766C234.332 186.297 234.231 185.83 234.024 185.408C233.754 184.837 233.289 184.38 232.713 184.12C232.021 183.897 231.371 183.559 230.79 183.121C230.651 182.984 230.541 182.82 230.468 182.639C230.395 182.458 230.361 182.264 230.367 182.068C230.391 181.638 230.462 181.213 230.578 180.798C230.691 180.328 230.705 179.84 230.619 179.364C230.533 178.888 230.349 178.436 230.079 178.035C229.794 177.607 229.408 177.255 228.956 177.012C228.479 176.785 227.96 176.661 227.433 176.647C226.915 176.612 226.404 176.647 225.916 176.559C225.436 176.512 224.976 176.349 224.575 176.082C224.212 175.797 223.957 175.397 223.852 174.948C223.737 174.499 223.591 174.059 223.417 173.631C223.079 172.829 222.525 172.137 221.817 171.631C221.192 171.197 220.45 170.965 219.689 170.967C219.057 170.957 218.438 171.15 217.925 171.52C217.542 171.794 217.235 172.16 217.031 172.584C216.901 172.85 216.82 173.136 216.79 173.431C216.776 173.532 216.776 173.635 216.79 173.736C216.815 173.347 216.919 172.967 217.096 172.619C217.343 172.153 217.714 171.765 218.169 171.499C218.624 171.232 219.144 171.097 219.671 171.108C220.399 171.118 221.107 171.35 221.7 171.772C222.377 172.265 222.906 172.934 223.228 173.707C223.392 174.132 223.531 174.566 223.646 175.006C223.763 175.496 224.043 175.931 224.44 176.241C224.865 176.532 225.356 176.712 225.869 176.765C226.38 176.835 226.892 176.817 227.403 176.853C227.901 176.866 228.39 176.984 228.838 177.2C229.264 177.422 229.628 177.747 229.896 178.146C230.151 178.526 230.325 178.955 230.407 179.405C230.489 179.855 230.477 180.318 230.373 180.763C230.257 181.189 230.188 181.627 230.167 182.068C230.16 182.287 230.2 182.505 230.283 182.707C230.366 182.91 230.491 183.093 230.649 183.244C231.248 183.696 231.92 184.04 232.636 184.262C233.183 184.493 233.631 184.909 233.901 185.438C234.108 185.844 234.217 186.293 234.218 186.749C234.22 187.142 234.144 187.532 233.995 187.895Z" fill="#455A64"/>
<path d="M231.637 174.983C231.654 174.909 231.654 174.833 231.637 174.759C231.62 174.542 231.533 174.336 231.39 174.171C231.16 173.907 230.851 173.725 230.508 173.654C230.054 173.581 229.59 173.638 229.167 173.819C228.697 173.989 228.221 174.26 227.685 174.454C227.416 174.577 227.123 174.641 226.827 174.641C226.531 174.641 226.238 174.577 225.969 174.454C225.42 174.069 224.984 173.545 224.704 172.937C224.347 172.278 223.884 171.682 223.334 171.173C222.269 170.185 220.906 169.579 219.459 169.45C218.824 169.407 218.189 169.526 217.613 169.797C217.111 170.036 216.686 170.414 216.39 170.885C216.149 171.279 216.037 171.74 216.072 172.202C216.095 172.546 216.202 172.879 216.384 173.172C216.495 173.357 216.641 173.519 216.813 173.648C216.875 173.691 216.94 173.728 217.007 173.76C216.788 173.583 216.599 173.37 216.449 173.131C216.29 172.841 216.2 172.52 216.184 172.19C216.166 171.756 216.281 171.327 216.513 170.961C216.802 170.52 217.21 170.169 217.689 169.95C218.241 169.698 218.849 169.592 219.453 169.644C220.853 169.776 222.17 170.368 223.199 171.326C223.733 171.815 224.186 172.387 224.54 173.019C224.835 173.657 225.298 174.201 225.88 174.595C226.178 174.753 226.515 174.822 226.851 174.795C227.159 174.771 227.462 174.701 227.75 174.589C228.309 174.377 228.773 174.101 229.226 173.925C229.622 173.746 230.06 173.681 230.49 173.736C230.813 173.795 231.107 173.956 231.331 174.195C231.477 174.344 231.572 174.535 231.602 174.742C231.643 174.901 231.625 174.983 231.637 174.983Z" fill="#455A64"/>
</svg>
