<svg width="294" height="294" viewBox="0 0 294 294" fill="none" xmlns="http://www.w3.org/2000/svg">
<path d="M48.563 188.677L40.8484 188.836L36.9323 188.907C35.6211 188.907 34.304 188.907 32.9927 188.936H32.734V188.677L32.6987 182.098V181.798H32.9927L40.7778 181.833C43.3768 181.833 45.9699 181.898 48.563 181.927H48.7276V182.086C48.7276 183.197 48.6747 184.309 48.6512 185.408L48.563 188.677ZM48.563 188.677L48.4806 185.349C48.4806 184.256 48.416 183.174 48.4042 182.098L48.563 182.256C45.9699 182.286 43.3768 182.351 40.7778 182.351L32.9927 182.386L33.2867 182.098V188.677L33.0221 188.413C34.304 188.413 35.5858 188.413 36.8735 188.442L40.7426 188.513L48.563 188.677Z" fill="#EBEBEB"/>
<path d="M39.8784 196.98L32.1638 197.139L28.2478 197.209C26.9365 197.209 25.6194 197.209 24.3082 197.239H24.0494V196.98L24.0142 190.406V190.106H24.3082L32.0933 190.142C34.6864 190.142 37.2853 190.206 39.8784 190.236H40.043V190.394C40.043 191.506 39.996 192.617 39.9666 193.717L39.8784 196.98ZM39.8784 196.98L39.7961 193.652C39.7667 192.558 39.7314 191.476 39.7196 190.4L39.8784 190.559C37.2853 190.588 34.6864 190.653 32.0933 190.653L24.3082 190.688L24.6022 190.4L24.5728 196.98L24.3082 196.721C25.59 196.721 26.8718 196.721 28.1596 196.721L32.0286 196.792L39.8784 196.98Z" fill="#EBEBEB"/>
<path d="M177.953 136.892L170.238 137.057L166.316 137.122C165.011 137.122 163.693 137.122 162.382 137.151H162.124V136.886V130.307V130.013H162.418L170.203 130.048C172.796 130.048 175.395 130.113 177.988 130.142H178.152V130.301C178.152 131.418 178.105 132.523 178.076 133.623L177.953 136.892ZM177.953 136.892L177.87 133.564C177.841 132.471 177.805 131.389 177.794 130.313L177.953 130.471C175.359 130.501 172.76 130.565 170.167 130.565L162.382 130.607L162.676 130.313L162.641 136.892L162.382 136.628C163.664 136.628 164.946 136.628 166.234 136.663L170.097 136.728L177.953 136.892Z" fill="#EBEBEB"/>
<path d="M169.268 145.189L161.547 145.354L157.631 145.418C156.326 145.418 155.009 145.418 153.697 145.448H153.433V145.183L153.403 138.603V138.309H153.697L161.482 138.345C164.076 138.345 166.669 138.409 169.268 138.439H169.426V138.597C169.426 139.715 169.379 140.82 169.35 141.92L169.268 145.189ZM169.268 145.189L169.185 141.861C169.156 140.767 169.115 139.685 169.109 138.609L169.268 138.768C166.669 138.797 164.076 138.862 161.482 138.862L153.697 138.903L153.991 138.609L153.956 145.189L153.697 144.924C154.979 144.924 156.261 144.924 157.543 144.96L161.412 145.024L169.268 145.189Z" fill="#EBEBEB"/>
<path d="M186.837 145.189L179.116 145.354L175.2 145.418C173.889 145.418 172.578 145.418 171.261 145.448H171.002V145.183L170.973 138.603V138.309H171.267L179.052 138.345C181.651 138.345 184.244 138.409 186.843 138.439H186.984V138.597C186.984 139.715 186.931 140.82 186.907 141.92L186.837 145.189ZM186.837 145.189L186.749 141.861C186.749 140.767 186.684 139.685 186.672 138.609L186.837 138.768C184.238 138.797 181.645 138.862 179.046 138.862L171.261 138.903L171.555 138.609L171.525 145.189L171.261 144.924C172.549 144.924 173.824 144.924 175.112 144.96L178.981 145.024L186.837 145.189Z" fill="#EBEBEB"/>
<path d="M269.692 196.98L261.972 197.139L258.056 197.209C256.75 197.209 255.433 197.209 254.122 197.239H253.858V196.98L253.828 190.406V190.106H254.122L261.907 190.142C264.5 190.142 267.099 190.206 269.692 190.236H269.851V190.394C269.851 191.506 269.804 192.617 269.775 193.717L269.692 196.98ZM269.692 196.98L269.61 193.652C269.61 192.558 269.539 191.476 269.534 190.4L269.692 190.559C267.099 190.588 264.5 190.653 261.907 190.653L254.122 190.688L254.416 190.4L254.381 196.98L254.122 196.721C255.404 196.721 256.686 196.721 257.968 196.721L261.837 196.792L269.692 196.98Z" fill="#EBEBEB"/>
<path d="M261.008 50.6856L253.287 50.8502L249.371 50.9149C248.066 50.9149 246.749 50.9149 245.437 50.9502H245.196V50.6856V44.1059V43.8119H245.496L253.281 43.8472C255.874 43.8472 258.467 43.9177 261.066 43.9471H261.225V44.1C261.225 45.2172 261.172 46.3285 261.149 47.4222L261.008 50.6856ZM261.008 50.6856L260.925 47.3634C260.896 46.2638 260.855 45.1819 260.843 44.1059L261.008 44.2646C258.409 44.2646 255.816 44.3587 253.222 44.3646L245.437 44.3999L245.731 44.1059L245.696 50.6856L245.437 50.421C246.719 50.421 247.995 50.421 249.283 50.4563L253.152 50.521L261.008 50.6856Z" fill="#EBEBEB"/>
<path d="M269.692 58.9823L261.972 59.1469L258.056 59.2116C256.75 59.2116 255.433 59.2116 254.122 59.2469H253.858V58.9823L253.828 52.4026V52.1086H254.122L261.907 52.1438C264.5 52.1438 267.099 52.2144 269.692 52.2438H269.851V52.4026C269.851 53.5198 269.804 54.6311 269.775 55.7248L269.692 58.9823ZM269.692 58.9823L269.61 55.6601C269.61 54.5605 269.539 53.4786 269.534 52.4026L269.692 52.5613C267.099 52.5613 264.5 52.6554 261.907 52.6613L254.122 52.6966L254.416 52.4026L254.381 58.9823L254.122 58.7177C255.404 58.7177 256.686 58.7177 257.968 58.753L261.837 58.8176L269.692 58.9823Z" fill="#EBEBEB"/>
<path d="M48.563 50.6856L40.8484 50.8502L36.9323 50.9149C35.6211 50.9149 34.304 50.9149 32.9927 50.9502H32.734V50.6856L32.6987 44.1V43.806H32.9927L40.7778 43.8413C43.3768 43.8413 45.9699 43.9118 48.563 43.9412H48.7276V44.1C48.7276 45.2172 48.6747 46.3285 48.6512 47.4222L48.563 50.6856ZM48.563 50.6856L48.4806 47.3634C48.4806 46.2638 48.416 45.1819 48.4042 44.1059L48.563 44.2646C45.9699 44.2646 43.3768 44.3587 40.7778 44.3646L32.9927 44.3999L33.2867 44.1059V50.6856L33.0221 50.421C34.304 50.421 35.5858 50.421 36.8735 50.4563L40.7426 50.521L48.563 50.6856Z" fill="#EBEBEB"/>
<path d="M50.6796 115.566C50.7147 115.826 50.6715 116.092 50.5557 116.328C50.4398 116.564 50.2565 116.761 50.0288 116.892C49.8012 117.024 49.5395 117.086 49.2769 117.069C49.0144 117.052 48.7627 116.957 48.5539 116.797C48.3452 116.637 48.1886 116.419 48.1041 116.169C48.0196 115.92 48.011 115.652 48.0793 115.398C48.1476 115.143 48.2898 114.915 48.4879 114.742C48.686 114.569 48.931 114.459 49.1919 114.425C49.3646 114.402 49.5401 114.413 49.7084 114.458C49.8767 114.503 50.0345 114.58 50.1727 114.686C50.3109 114.792 50.4268 114.924 50.5138 115.075C50.6008 115.226 50.6571 115.393 50.6796 115.566Z" fill="#EBEBEB"/>
<path d="M87.4476 43.4297C87.4754 43.6897 87.426 43.9522 87.3054 44.1842C87.1848 44.4163 86.9984 44.6076 86.7695 44.7342C86.5407 44.8607 86.2796 44.917 86.0189 44.8959C85.7582 44.8748 85.5096 44.7772 85.3041 44.6154C85.0987 44.4536 84.9455 44.2348 84.8638 43.9864C84.7822 43.7379 84.7756 43.4709 84.845 43.2188C84.9144 42.9666 85.0566 42.7406 85.2539 42.5689C85.4512 42.3972 85.6947 42.2876 85.954 42.2537C86.1294 42.2323 86.3072 42.2459 86.4773 42.2935C86.6474 42.3411 86.8065 42.4219 86.9453 42.5312C87.084 42.6405 87.1999 42.7761 87.2861 42.9303C87.3723 43.0845 87.4272 43.2542 87.4476 43.4297Z" fill="#EBEBEB"/>
<path d="M124.068 110.926C124.105 111.271 124.006 111.617 123.791 111.889C123.577 112.162 123.264 112.34 122.92 112.385C122.576 112.431 122.228 112.34 121.951 112.132C121.673 111.924 121.487 111.616 121.434 111.273C121.407 111.098 121.414 110.919 121.457 110.747C121.5 110.575 121.577 110.414 121.683 110.272C121.789 110.13 121.923 110.011 122.075 109.921C122.228 109.832 122.398 109.773 122.573 109.75C122.749 109.727 122.928 109.739 123.098 109.786C123.269 109.833 123.429 109.914 123.568 110.023C123.708 110.133 123.824 110.269 123.909 110.424C123.995 110.579 124.049 110.75 124.068 110.926Z" fill="#EBEBEB"/>
<path d="M190.471 84.8131C190.485 84.9431 190.46 85.0744 190.4 85.1904C190.34 85.3064 190.246 85.4021 190.132 85.4654C190.018 85.5287 189.887 85.5568 189.757 85.5462C189.626 85.5357 189.502 85.4869 189.399 85.406C189.297 85.3251 189.22 85.2157 189.179 85.0915C189.138 84.9673 189.135 84.8337 189.17 84.7077C189.205 84.5816 189.276 84.4686 189.374 84.3827C189.473 84.2969 189.595 84.2421 189.724 84.2251C189.812 84.2136 189.901 84.2198 189.987 84.2433C190.072 84.2668 190.152 84.3071 190.221 84.3619C190.291 84.4167 190.349 84.4848 190.392 84.5623C190.435 84.6398 190.462 84.7251 190.471 84.8131Z" fill="#EBEBEB"/>
<path d="M105.199 76.44C105.213 76.57 105.188 76.7012 105.128 76.8172C105.068 76.9333 104.975 77.0289 104.86 77.0922C104.746 77.1555 104.615 77.1836 104.485 77.1731C104.354 77.1625 104.23 77.1137 104.127 77.0329C104.025 76.952 103.948 76.8425 103.907 76.7183C103.866 76.5941 103.863 76.4606 103.898 76.3345C103.933 76.2085 104.004 76.0954 104.102 76.0096C104.201 75.9237 104.323 75.8689 104.452 75.852C104.54 75.8405 104.629 75.8467 104.715 75.8702C104.8 75.8937 104.88 75.934 104.95 75.9888C105.019 76.0436 105.077 76.1117 105.12 76.1892C105.163 76.2667 105.19 76.3519 105.199 76.44Z" fill="#EBEBEB"/>
<path d="M222.123 42.189C222.139 42.3605 222.088 42.5317 221.981 42.6664C221.873 42.801 221.718 42.8887 221.547 42.9108C221.376 42.9329 221.203 42.8878 221.065 42.7849C220.926 42.6821 220.834 42.5295 220.806 42.3595C220.791 42.2715 220.795 42.1815 220.816 42.0949C220.837 42.0083 220.875 41.9268 220.928 41.8552C220.981 41.7837 221.049 41.7236 221.125 41.6786C221.202 41.6335 221.288 41.6044 221.376 41.5929C221.464 41.5815 221.554 41.5879 221.64 41.6119C221.726 41.6359 221.806 41.6769 221.876 41.7326C221.945 41.7882 222.003 41.8573 222.046 41.9357C222.088 42.0141 222.114 42.1002 222.123 42.189Z" fill="#EBEBEB"/>
<path d="M168.127 47.6927C168.143 47.8642 168.092 48.0354 167.985 48.1701C167.877 48.3047 167.721 48.3924 167.551 48.4145C167.38 48.4366 167.207 48.3915 167.069 48.2886C166.93 48.1858 166.837 48.0332 166.81 47.8632C166.795 47.7752 166.799 47.6852 166.82 47.5986C166.841 47.512 166.879 47.4305 166.932 47.3589C166.985 47.2874 167.052 47.2273 167.129 47.1822C167.206 47.1372 167.291 47.1081 167.38 47.0966C167.468 47.0852 167.558 47.0916 167.644 47.1156C167.73 47.1396 167.81 47.1806 167.88 47.2363C167.949 47.2919 168.007 47.361 168.05 47.4394C168.092 47.5178 168.118 47.6039 168.127 47.6927Z" fill="#EBEBEB"/>
<path d="M104.534 128.901C104.549 129.032 104.524 129.163 104.463 129.279C104.403 129.396 104.31 129.491 104.195 129.555C104.08 129.618 103.949 129.646 103.819 129.635C103.688 129.624 103.564 129.575 103.461 129.493C103.358 129.412 103.282 129.302 103.242 129.177C103.201 129.053 103.199 128.919 103.234 128.793C103.27 128.666 103.342 128.554 103.442 128.468C103.541 128.383 103.664 128.329 103.794 128.313C103.881 128.303 103.97 128.31 104.054 128.333C104.139 128.357 104.218 128.398 104.287 128.452C104.356 128.507 104.413 128.575 104.456 128.652C104.498 128.729 104.525 128.814 104.534 128.901Z" fill="#EBEBEB"/>
<path d="M131.236 38.808C131.25 38.938 131.225 39.0693 131.165 39.1853C131.104 39.3013 131.011 39.3969 130.897 39.4602C130.782 39.5235 130.652 39.5517 130.521 39.5411C130.391 39.5305 130.267 39.4818 130.164 39.4009C130.061 39.32 129.985 39.2106 129.944 39.0864C129.903 38.9621 129.9 38.8286 129.934 38.7026C129.969 38.5765 130.04 38.4635 130.139 38.3776C130.238 38.2918 130.359 38.2369 130.489 38.22C130.577 38.2077 130.666 38.2133 130.752 38.2364C130.838 38.2596 130.918 38.2999 130.988 38.3548C131.057 38.4097 131.115 38.4782 131.158 38.5561C131.201 38.6339 131.227 38.7196 131.236 38.808Z" fill="#EBEBEB"/>
<path d="M157.62 158.866C157.633 158.996 157.609 159.127 157.548 159.243C157.488 159.359 157.395 159.455 157.281 159.518C157.166 159.581 157.036 159.61 156.905 159.599C156.775 159.588 156.651 159.54 156.548 159.459C156.445 159.378 156.369 159.268 156.328 159.144C156.287 159.02 156.284 158.886 156.318 158.76C156.353 158.634 156.424 158.521 156.523 158.435C156.621 158.35 156.743 158.295 156.873 158.278C156.96 158.267 157.049 158.274 157.134 158.298C157.219 158.322 157.299 158.362 157.368 158.417C157.438 158.471 157.496 158.539 157.539 158.616C157.582 158.693 157.609 158.778 157.62 158.866Z" fill="#EBEBEB"/>
<path d="M96.7381 79.0154C96.7718 79.2759 96.7276 79.5405 96.611 79.7758C96.4945 80.0111 96.3108 80.2067 96.0832 80.3377C95.8557 80.4687 95.5944 80.5294 95.3323 80.512C95.0703 80.4947 94.8193 80.4001 94.611 80.2401C94.4027 80.0802 94.2464 79.8622 94.1619 79.6135C94.0775 79.3649 94.0686 79.0967 94.1363 78.843C94.2041 78.5893 94.3456 78.3614 94.5428 78.188C94.7401 78.0146 94.9842 77.9035 95.2445 77.8688C95.4179 77.8457 95.5942 77.8571 95.7632 77.9022C95.9322 77.9474 96.0907 78.0255 96.2294 78.132C96.3682 78.2385 96.4845 78.3714 96.5718 78.523C96.6591 78.6746 96.7156 78.842 96.7381 79.0154Z" fill="#EBEBEB"/>
<path d="M122.716 63.6686C122.751 63.9294 122.708 64.1947 122.592 64.4309C122.476 64.6672 122.293 64.8637 122.065 64.9956C121.837 65.1275 121.576 65.1889 121.313 65.1719C121.05 65.155 120.799 65.0604 120.59 64.9003C120.381 64.7402 120.225 64.5218 120.14 64.2726C120.056 64.0234 120.047 63.7548 120.115 63.5007C120.184 63.2466 120.326 63.0185 120.524 62.8454C120.722 62.6722 120.967 62.5617 121.228 62.5279C121.401 62.5048 121.576 62.516 121.745 62.5608C121.913 62.6057 122.071 62.6833 122.209 62.7893C122.347 62.8953 122.463 63.0275 122.55 63.1784C122.637 63.3293 122.693 63.4959 122.716 63.6686Z" fill="#EBEBEB"/>
<path d="M175.059 42.1008C175.093 42.3612 175.049 42.6258 174.932 42.8612C174.816 43.0965 174.632 43.292 174.405 43.4231C174.177 43.5541 173.916 43.6148 173.654 43.5974C173.392 43.58 173.141 43.4854 172.932 43.3255C172.724 43.1656 172.568 42.9475 172.483 42.6989C172.399 42.4502 172.39 42.1821 172.458 41.9284C172.525 41.6747 172.667 41.4467 172.864 41.2733C173.061 41.1 173.306 40.9889 173.566 40.9542C173.739 40.9311 173.916 40.9424 174.085 40.9876C174.254 41.0327 174.412 41.1108 174.551 41.2173C174.689 41.3239 174.806 41.4568 174.893 41.6084C174.98 41.76 175.037 41.9273 175.059 42.1008Z" fill="#EBEBEB"/>
<path d="M181.833 75.5345L183.715 74.9112C183.715 74.9112 182.427 74.2467 182.433 72.1887C182.439 70.1307 184.197 69.3193 183.433 67.4847L181.334 68.0727C181.57 68.5619 181.701 69.0955 181.717 69.6385C181.733 70.1816 181.634 70.722 181.428 71.2244C180.875 72.3593 180.375 73.7646 181.833 75.5345Z" fill="#EBEBEB"/>
<path d="M125.897 47.1458L124.068 46.452C124.068 46.452 124.656 47.775 123.351 49.392C122.045 51.009 120.175 50.5092 119.593 52.432L121.569 53.3198C121.693 52.7873 121.927 52.2866 122.256 51.8501C122.585 51.4136 123.002 51.0509 123.48 50.7856C124.656 50.2152 125.908 49.439 125.897 47.1458Z" fill="#EBEBEB"/>
<path d="M140.532 110.45L138.674 109.756C138.674 109.756 139.262 111.079 137.957 112.696C136.651 114.313 134.781 113.813 134.199 115.736L136.181 116.624C136.306 116.096 136.541 115.6 136.87 115.168C137.199 114.737 137.616 114.379 138.092 114.119C139.285 113.519 140.532 112.749 140.532 110.45Z" fill="#EBEBEB"/>
<path d="M103.947 146.73L102.088 146.036C102.088 146.036 102.676 147.359 101.371 148.976C100.066 150.593 98.1959 150.093 97.6079 152.022L99.5895 152.904C99.7165 152.375 99.9527 151.88 100.283 151.448C100.613 151.017 101.03 150.659 101.506 150.399C102.682 149.799 103.958 149.029 103.947 146.73Z" fill="#EBEBEB"/>
<path d="M235.006 103.094L233.154 102.394C233.154 102.394 233.742 103.717 232.431 105.334C231.119 106.951 229.255 106.452 228.673 108.374L230.655 109.262C230.781 108.733 231.015 108.237 231.345 107.804C231.674 107.372 232.09 107.013 232.566 106.751C233.748 106.163 235.024 105.393 235.006 103.094Z" fill="#EBEBEB"/>
<path d="M87.3003 64.9564L87.5708 62.9925C87.5708 62.9925 86.3948 63.8451 84.5661 62.9337C82.7374 62.0223 82.8021 60.0819 80.7676 59.9407L80.3384 62.0693C80.8817 62.0755 81.4177 62.1953 81.9119 62.4212C82.4061 62.647 82.8475 62.9738 83.2078 63.3805C84.0251 64.4037 85.0659 65.4738 87.3003 64.9564Z" fill="#EBEBEB"/>
<path d="M167.351 105.123L167.621 103.159C167.621 103.159 166.445 104.017 164.616 103.1C162.788 102.183 162.852 100.254 160.818 100.107L160.389 102.236C160.932 102.241 161.468 102.361 161.962 102.587C162.457 102.813 162.898 103.14 163.258 103.547C164.052 104.57 165.116 105.646 167.351 105.123Z" fill="#EBEBEB"/>
<path d="M156.69 168.115L156.961 166.151C156.961 166.151 155.785 167.004 153.956 166.092C152.128 165.181 152.163 163.241 150.158 163.099L149.729 165.228C150.272 165.234 150.808 165.354 151.302 165.579C151.797 165.805 152.238 166.132 152.598 166.539C153.415 167.58 154.456 168.633 156.69 168.115Z" fill="#EBEBEB"/>
<path d="M226.345 64.9564L226.615 62.9925C226.615 62.9925 225.439 63.8451 223.605 62.9337C221.77 62.0223 221.841 60.0819 219.806 59.9407L219.383 62.0693C219.926 62.0755 220.462 62.1953 220.956 62.4212C221.451 62.647 221.892 62.9738 222.252 63.3805C223.07 64.4037 224.104 65.4738 226.345 64.9564Z" fill="#EBEBEB"/>
<path d="M112.79 180.475L113.166 182.427C113.166 182.427 113.99 181.251 116.03 181.516C118.07 181.78 118.641 183.638 120.587 183.127L120.305 180.975C119.789 181.144 119.244 181.204 118.704 181.149C118.164 181.095 117.642 180.927 117.171 180.657C116.065 179.928 114.736 179.264 112.79 180.475Z" fill="#EBEBEB"/>
<path d="M61.9399 87.024L65.1093 86.1302C65.1093 86.1302 66.6145 90.0875 63.4746 91.2047C63.504 91.2165 64.5448 89.1055 61.9399 87.024Z" fill="#EBEBEB"/>
<path d="M62.4573 95.3971L59.7407 93.6331C59.7407 93.6331 60.1406 91.0518 63.4745 91.2282C63.5039 91.2164 60.9402 93.0686 62.4573 95.3971Z" fill="#EBEBEB"/>
<path d="M114.701 135.046L112.608 133.911C112.608 133.911 110.914 136.463 112.955 137.751C112.955 137.751 112.531 136.093 114.701 135.046Z" fill="#EBEBEB"/>
<path d="M113.008 140.855L115.207 140.038C115.207 140.038 115.336 138.156 112.955 137.751C112.955 137.751 114.449 139.456 113.008 140.855Z" fill="#EBEBEB"/>
<path d="M184.044 136.686L181.951 135.546C181.951 135.546 180.263 138.098 182.298 139.385C182.321 139.385 181.904 137.727 184.044 136.686Z" fill="#EBEBEB"/>
<path d="M182.374 142.496L184.573 141.708C184.573 141.708 184.703 139.821 182.321 139.415C182.321 139.385 183.815 141.12 182.374 142.496Z" fill="#EBEBEB"/>
<path d="M193.199 141.661C193.164 141.4 193.207 141.135 193.323 140.899C193.439 140.662 193.622 140.466 193.85 140.334C194.078 140.202 194.339 140.141 194.602 140.158C194.865 140.175 195.116 140.269 195.325 140.429C195.534 140.589 195.69 140.808 195.775 141.057C195.859 141.306 195.868 141.575 195.8 141.829C195.731 142.083 195.589 142.311 195.391 142.484C195.193 142.657 194.948 142.768 194.687 142.802C194.514 142.825 194.339 142.814 194.171 142.769C194.002 142.724 193.844 142.646 193.706 142.54C193.568 142.434 193.452 142.302 193.365 142.151C193.278 142 193.222 141.834 193.199 141.661Z" fill="#EBEBEB"/>
<path d="M244.643 111.544C244.629 111.414 244.654 111.282 244.715 111.166C244.775 111.05 244.868 110.955 244.982 110.891C245.097 110.828 245.227 110.8 245.358 110.81C245.488 110.821 245.612 110.87 245.715 110.951C245.818 111.032 245.894 111.141 245.935 111.265C245.976 111.389 245.979 111.523 245.945 111.649C245.91 111.775 245.839 111.888 245.74 111.974C245.642 112.06 245.52 112.115 245.39 112.132C245.302 112.143 245.213 112.137 245.128 112.113C245.042 112.09 244.963 112.05 244.893 111.995C244.823 111.94 244.766 111.872 244.723 111.794C244.68 111.717 244.653 111.632 244.643 111.544Z" fill="#EBEBEB"/>
<path d="M196.104 78.598C196.069 78.3375 196.112 78.0725 196.228 77.8365C196.344 77.6005 196.527 77.4041 196.754 77.2722C196.981 77.1403 197.243 77.0787 197.505 77.0953C197.767 77.1119 198.019 77.2059 198.228 77.3655C198.437 77.525 198.594 77.7429 198.679 77.9916C198.764 78.2403 198.773 78.5086 198.706 78.7626C198.638 79.0166 198.497 79.245 198.3 79.4187C198.102 79.5924 197.858 79.7038 197.598 79.7387C197.248 79.7839 196.896 79.6894 196.616 79.4757C196.336 79.2621 196.152 78.9466 196.104 78.598Z" fill="#EBEBEB"/>
<path d="M162.5 115.566C162.465 115.305 162.508 115.039 162.624 114.803C162.739 114.567 162.923 114.37 163.15 114.239C163.378 114.107 163.64 114.045 163.902 114.062C164.165 114.079 164.417 114.174 164.625 114.334C164.834 114.494 164.991 114.712 165.075 114.962C165.16 115.211 165.168 115.479 165.1 115.733C165.032 115.988 164.889 116.216 164.691 116.389C164.493 116.562 164.248 116.672 163.987 116.706C163.815 116.729 163.639 116.718 163.471 116.673C163.303 116.628 163.145 116.551 163.007 116.445C162.868 116.339 162.752 116.207 162.665 116.056C162.578 115.905 162.522 115.738 162.5 115.566Z" fill="#EBEBEB"/>
<path d="M202.643 91.4575L202.372 93.4214C202.372 93.4214 203.548 92.5688 205.377 93.4802C207.205 94.3916 207.17 96.332 209.175 96.4732L209.599 94.3446C209.055 94.3384 208.519 94.2185 208.025 93.9927C207.531 93.7669 207.089 93.4401 206.729 93.0334C205.912 92.0102 204.877 90.9401 202.643 91.4575Z" fill="#EBEBEB"/>
<path d="M199.42 167.315L196.251 168.215C196.251 168.215 194.746 164.258 197.88 163.135C197.88 163.135 196.815 165.228 199.42 167.315Z" fill="#EBEBEB"/>
<path d="M198.903 158.954L201.62 160.718C201.62 160.718 201.22 163.299 197.88 163.123C197.88 163.135 200.42 161.283 198.903 158.954Z" fill="#EBEBEB"/>
<path d="M148 157.502L144.83 158.401C144.83 158.401 143.319 154.444 146.459 153.327C146.459 153.327 145.389 155.432 148 157.502Z" fill="#EBEBEB"/>
<path d="M147.476 149.146L150.199 150.91C150.199 150.91 149.799 153.497 146.459 153.321C146.459 153.327 148.993 151.475 147.476 149.146Z" fill="#EBEBEB"/>
<path d="M183.456 54.2959L185.543 55.4307C185.543 55.4307 187.237 52.8788 185.202 51.5911C185.22 51.5911 185.62 53.2493 183.456 54.2959Z" fill="#EBEBEB"/>
<path d="M185.144 48.4865L182.944 49.3038C182.944 49.3038 182.821 51.1854 185.202 51.5911C185.22 51.5911 183.709 49.8859 185.144 48.4865Z" fill="#EBEBEB"/>
<path d="M194.593 151.028L194.94 153.38C194.94 153.38 197.997 153.203 197.803 150.804C197.803 150.804 196.733 152.133 194.593 151.028Z" fill="#EBEBEB"/>
<path d="M200.255 148.893L198.28 147.623C198.28 147.623 196.698 148.652 197.803 150.804C197.803 150.804 198.274 148.582 200.255 148.893Z" fill="#EBEBEB"/>
<path d="M272.209 30.3643L262.607 33.6806L271.527 43.9589L272.209 30.3643Z" fill="#DBDBDB"/>
<path d="M252.875 36.6442L242.997 39.0314L250.894 50.1094L252.875 36.6442Z" fill="#C7C7C7"/>
<path d="M233.019 40.9248L222.935 42.189L229.55 54.0842L233.019 40.9248Z" fill="#EBEBEB"/>
<path d="M212.856 42.8593L202.695 42.9064L207.829 55.5072L212.856 42.8593Z" fill="#A6A6A6"/>
<path d="M192.652 42.0008L182.609 40.4779L185.738 53.7197L192.652 42.0008Z" fill="#DBDBDB"/>
<path d="M173.031 38.073L163.482 34.6038L163.941 48.2042L173.031 38.073Z" fill="#DBDBDB"/>
<path d="M154.573 30.182L146.077 24.6137L143.401 37.9554L154.573 30.182Z" fill="#C7C7C7"/>
<path d="M252.875 36.65L253.728 37.7202L254.298 38.4376L255.01 39.3372L255.58 40.0546L256.292 40.9542L256.862 41.6716L257.574 42.5712L258.144 43.2886L258.861 44.1941L259.426 44.9114L260.143 45.8111L260.708 46.5284L261.331 47.3105L261.425 46.3168L261.513 45.4054L261.619 44.2588L261.707 43.3474L261.813 42.2008L261.901 41.2894L262.013 40.1486L262.095 39.2372L262.207 38.0906L262.289 37.1851L262.395 36.0385L262.483 35.1271L262.613 33.763L252.875 36.65Z" fill="#A6A6A6"/>
<path d="M253.728 37.7202L254.298 38.4376L262.395 36.0385L262.483 35.1271L253.728 37.7202Z" fill="white"/>
<path d="M255.01 39.3372L255.58 40.0546L262.207 38.0906L262.289 37.1851L255.01 39.3372Z" fill="white"/>
<path d="M256.292 40.9542L256.862 41.6716L262.013 40.1486L262.095 39.2372L256.292 40.9542Z" fill="white"/>
<path d="M257.573 42.5712L258.144 43.2886L261.813 42.2007L261.901 41.2894L257.573 42.5712Z" fill="white"/>
<path d="M258.861 44.1941L259.426 44.9114L261.619 44.2587L261.707 43.3474L258.861 44.1941Z" fill="white"/>
<path d="M260.143 45.8111L260.708 46.5284L261.425 46.3168L261.513 45.4054L260.143 45.8111Z" fill="white"/>
<path d="M233.019 40.9307L233.754 42.0831L234.247 42.8593L234.865 43.8236L235.353 44.5998L235.97 45.5641L236.464 46.3403L237.082 47.3046L237.576 48.0807L238.187 49.0509L238.681 49.8212L239.298 50.7914L239.792 51.5617L240.327 52.4026L240.527 51.4265L240.704 50.5268L240.933 49.4037L241.109 48.5041L241.339 47.3751L241.515 46.4814L241.744 45.3524L241.921 44.4528L242.15 43.3297L242.327 42.4301L242.55 41.307L242.732 40.4074L243.003 39.0667L233.019 40.9307Z" fill="#A6A6A6"/>
<path d="M233.753 42.0832L234.247 42.8593L242.55 41.307L242.732 40.4074L233.753 42.0832Z" fill="white"/>
<path d="M234.865 43.8236L235.353 44.5998L242.15 43.3297L242.326 42.4301L234.865 43.8236Z" fill="white"/>
<path d="M235.97 45.5641L236.464 46.3403L241.744 45.3524L241.921 44.4528L235.97 45.5641Z" fill="white"/>
<path d="M237.082 47.3046L237.575 48.0808L241.339 47.3752L241.515 46.4814L237.082 47.3046Z" fill="white"/>
<path d="M238.187 49.051L238.681 49.8212L240.933 49.4038L241.109 48.5041L238.187 49.051Z" fill="white"/>
<path d="M239.298 50.7914L239.792 51.5617L240.527 51.4265L240.704 50.5268L239.298 50.7914Z" fill="white"/>
<path d="M212.868 42.8358L213.462 44.0647L213.861 44.8938L214.361 45.9228L214.761 46.746L215.261 47.7809L215.661 48.6041L216.166 49.639L216.56 50.4622L217.066 51.497L217.46 52.3202L217.966 53.3551L218.365 54.1783L218.801 55.078L219.106 54.1313L219.394 53.261L219.747 52.1674L220.024 51.2971L220.382 50.1976L220.665 49.3273L221.017 48.2395L221.3 47.3693L221.658 46.2756L221.941 45.4054L222.293 44.3117L222.576 43.4414L222.999 42.1361L212.868 42.8358Z" fill="#DBDBDB"/>
<path d="M213.462 44.0647L213.862 44.8938L222.294 44.3117L222.576 43.4414L213.462 44.0647Z" fill="white"/>
<path d="M214.361 45.9228L214.761 46.746L221.658 46.2756L221.941 45.4054L214.361 45.9228Z" fill="white"/>
<path d="M215.261 47.7809L215.661 48.6041L221.018 48.2395L221.3 47.3693L215.261 47.7809Z" fill="white"/>
<path d="M216.167 49.639L216.56 50.4622L220.382 50.1976L220.665 49.3273L216.167 49.639Z" fill="white"/>
<path d="M217.066 51.497L217.46 52.3202L219.748 52.1674L220.024 51.2971L217.066 51.497Z" fill="white"/>
<path d="M217.966 53.3551L218.366 54.1783L219.107 54.1313L219.395 53.261L217.966 53.3551Z" fill="white"/>
<path d="M192.558 42.0714L192.976 43.3709L193.258 44.247L193.605 45.3407L193.887 46.2109L194.24 47.3046L194.516 48.1748L194.869 49.2685L195.151 50.1388L195.498 51.2383L195.78 52.1086L196.133 53.2022L196.415 54.0725L196.721 55.025L197.156 54.1254L197.562 53.3022L198.062 52.2732L198.462 51.45L198.967 50.4151L199.373 49.5919L199.873 48.5629L200.273 47.7397L200.778 46.7048L201.178 45.8816L201.684 44.8526L202.09 44.0294L202.689 42.7946L192.558 42.0714Z" fill="#C7C7C7"/>
<path d="M192.976 43.3709L193.258 44.247L201.684 44.8526L202.09 44.0294L192.976 43.3709Z" fill="white"/>
<path d="M193.605 45.3407L193.887 46.2109L200.779 46.7048L201.178 45.8816L193.605 45.3407Z" fill="white"/>
<path d="M194.24 47.3046L194.517 48.1748L199.873 48.5629L200.273 47.7397L194.24 47.3046Z" fill="white"/>
<path d="M194.869 49.2685L195.151 50.1388L198.968 50.4151L199.373 49.5919L194.869 49.2685Z" fill="white"/>
<path d="M195.499 51.2383L195.781 52.1086L198.062 52.2732L198.462 51.45L195.499 51.2383Z" fill="white"/>
<path d="M196.133 53.2022L196.416 54.0725L197.156 54.1254L197.562 53.3022L196.133 53.2022Z" fill="white"/>
<path d="M172.854 38.0318L173.037 39.3901L173.154 40.2956L173.307 41.4364L173.431 42.3419L173.578 43.4826L173.701 44.3881L173.854 45.5288L173.972 46.4344L174.125 47.5751L174.248 48.4806L174.401 49.6213L174.519 50.5268L174.654 51.5206L175.242 50.715L175.783 49.9741L176.465 49.0509L177 48.3101L177.682 47.381L178.229 46.646L178.905 45.717L179.446 44.982L180.122 44.0529L180.663 43.3121L181.339 42.3889L181.886 41.648L182.692 40.5426L172.854 38.0318Z" fill="#EBEBEB"/>
<path d="M173.037 39.3901L173.154 40.2956L181.339 42.3889L181.886 41.648L173.037 39.3901Z" fill="white"/>
<path d="M173.307 41.4364L173.431 42.3419L180.122 44.053L180.663 43.3121L173.307 41.4364Z" fill="white"/>
<path d="M173.578 43.4826L173.701 44.3881L178.905 45.717L179.446 44.982L173.578 43.4826Z" fill="white"/>
<path d="M173.854 45.5288L173.972 46.4344L177.682 47.381L178.229 46.646L173.854 45.5288Z" fill="white"/>
<path d="M174.125 47.5751L174.248 48.4806L176.465 49.051L177 48.3101L174.125 47.5751Z" fill="white"/>
<path d="M174.401 49.6213L174.518 50.5268L175.242 50.715L175.783 49.9741L174.401 49.6213Z" fill="white"/>
<path d="M154.55 30.1585L154.462 31.5286L154.403 32.44L154.327 33.5866L154.268 34.498L154.191 35.6446L154.133 36.5618L154.056 37.7084L153.997 38.6198L153.921 39.7664L153.862 40.6837L153.786 41.8303L153.727 42.7417L153.662 43.7354L154.397 43.0651L155.073 42.4477L155.926 41.6716L156.596 41.0542L157.449 40.278L158.125 39.6606L158.972 38.8844L159.648 38.267L160.495 37.4968L161.171 36.8794L162.018 36.1032L162.7 35.4858L163.705 34.5626L154.55 30.1585Z" fill="#A6A6A6"/>
<path d="M154.462 31.5286L154.403 32.44L162.017 36.1032L162.7 35.4858L154.462 31.5286Z" fill="white"/>
<path d="M154.326 33.5866L154.268 34.498L160.495 37.4968L161.171 36.8794L154.326 33.5866Z" fill="white"/>
<path d="M154.191 35.6446L154.132 36.5618L158.972 38.8844L159.648 38.267L154.191 35.6446Z" fill="white"/>
<path d="M154.056 37.7084L153.997 38.6198L157.449 40.278L158.125 39.6606L154.056 37.7084Z" fill="white"/>
<path d="M153.921 39.7664L153.862 40.6837L155.926 41.6716L156.597 41.0542L153.921 39.7664Z" fill="white"/>
<path d="M153.785 41.8303L153.727 42.7417L154.397 43.0651L155.073 42.4477L153.785 41.8303Z" fill="white"/>
<path d="M274.185 29.5294C263.657 33.9616 252.724 37.3606 241.539 39.6782C235.95 40.885 230.301 41.7957 224.616 42.4066C218.932 43.0356 213.219 43.3713 207.5 43.412C201.775 43.3732 196.059 42.9804 190.383 42.236L186.137 41.5834C184.732 41.3482 183.333 40.9954 181.927 40.7484C181.228 40.5955 180.522 40.472 179.828 40.3015L177.753 39.7547L175.677 39.1667L174.636 38.9197L173.619 38.5846L169.538 37.2439C168.192 36.7559 166.875 36.1973 165.546 35.6798C164.881 35.4035 164.205 35.1683 163.558 34.8684L161.618 33.9511L159.677 33.0397C159.031 32.734 158.384 32.4517 157.766 32.0636L154.056 29.988C153.427 29.6281 152.816 29.2356 152.228 28.812L150.464 27.636L148.7 26.46C148.112 26.0602 147.559 25.6074 146.988 25.1782L143.602 22.5674L147.088 25.037C147.676 25.4369 148.264 25.8779 148.852 26.2601L150.675 27.3773L152.492 28.4945C153.08 28.859 153.668 29.253 154.333 29.5646L158.108 31.5403C158.425 31.6991 158.731 31.8814 159.054 32.0284L160.024 32.4635L161.965 33.3396L163.911 34.2098C164.558 34.4921 165.234 34.7214 165.893 34.9742C167.227 35.4682 168.545 35.9974 169.885 36.4501L173.954 37.7084C179.382 39.2594 184.916 40.413 190.512 41.16C196.144 41.8583 201.813 42.2138 207.488 42.2243C218.863 42.1847 230.208 41.0406 241.362 38.808C246.945 37.7261 252.476 36.409 257.956 34.8566C263.424 33.3161 268.869 31.5815 274.185 29.5294Z" fill="#EBEBEB"/>
<path d="M17.3047 33.9335L27.0302 36.8676L18.5218 47.4869L17.3047 33.9335Z" fill="#C7C7C7"/>
<path d="M36.8735 39.4489L46.8343 41.4364L39.3784 52.82L36.8735 39.4489Z" fill="#DBDBDB"/>
<path d="M56.8833 42.9416L67.0087 43.806L60.8699 55.9541L56.8833 42.9416Z" fill="#A6A6A6"/>
<path d="M77.1045 44.0765L87.2592 43.7237L82.6258 56.5186L77.1045 44.0765Z" fill="#A6A6A6"/>
<path d="M97.2612 42.4242L107.234 40.5073L104.629 53.8608L97.2612 42.4242Z" fill="#EBEBEB"/>
<path d="M116.712 37.7261L126.12 33.8864L126.191 47.4928L116.712 37.7261Z" fill="#C7C7C7"/>
<path d="M135.034 28.9178L143.272 22.9732L146.541 36.1796L135.034 28.9178Z" fill="#DBDBDB"/>
<path d="M36.8734 39.4489L36.0678 40.5544L35.521 41.2952L34.8448 42.2243L34.3038 42.9593L33.6276 43.8883L33.0867 44.6292L32.4105 45.5524L31.8695 46.2932L31.1933 47.2223L30.6524 47.9632L29.9762 48.8863L29.4352 49.6272L28.8413 50.4328L28.712 49.4449L28.5885 48.5394L28.4356 47.3987L28.3121 46.4932L28.1592 45.3524L28.0358 44.441L27.8829 43.3062L27.7653 42.4007L27.6065 41.26L27.4889 40.3544L27.336 39.2137L27.2067 38.3023L27.0303 36.9499L36.8734 39.4489Z" fill="#A6A6A6"/>
<path d="M36.0682 40.5544L35.5214 41.2952L27.3364 39.2137L27.207 38.3023L36.0682 40.5544Z" fill="white"/>
<path d="M34.8451 42.2243L34.3042 42.9593L27.6069 41.26L27.4893 40.3544L34.8451 42.2243Z" fill="white"/>
<path d="M33.628 43.8883L33.087 44.6292L27.8832 43.3062L27.7656 42.4007L33.628 43.8883Z" fill="white"/>
<path d="M32.4109 45.5524L31.8699 46.2932L28.1596 45.3524L28.0361 44.441L32.4109 45.5524Z" fill="white"/>
<path d="M31.1937 47.2223L30.6527 47.9632L28.436 47.3987L28.3125 46.4932L31.1937 47.2223Z" fill="white"/>
<path d="M29.9765 48.8863L29.4356 49.6272L28.7123 49.4449L28.5889 48.5394L29.9765 48.8863Z" fill="white"/>
<path d="M56.8834 42.9416L56.1954 44.1235L55.7309 44.9173L55.1547 45.911L54.696 46.699L54.1139 47.6927L53.6553 48.4865L53.079 49.4743L52.6145 50.2681L52.0383 51.2618L51.5738 52.0556L50.9975 53.0435L50.533 53.8373L50.0332 54.7016L49.798 53.7256L49.5804 52.8377L49.31 51.7205L49.0983 50.8326L48.8278 49.7154L48.6102 48.8216L48.3398 47.7103L48.1281 46.8166L47.8576 45.6994L47.64 44.8115L47.3696 43.6943L47.152 42.8064L46.8345 41.4716L56.8834 42.9416Z" fill="#EBEBEB"/>
<path d="M56.1953 44.1235L55.7308 44.9173L47.3694 43.6943L47.1519 42.8064L56.1953 44.1235Z" fill="white"/>
<path d="M55.1543 45.911L54.6956 46.699L47.8572 45.6994L47.6396 44.8115L55.1543 45.911Z" fill="white"/>
<path d="M54.1138 47.6927L53.6551 48.4865L48.3396 47.7103L48.1279 46.8166L54.1138 47.6927Z" fill="white"/>
<path d="M53.0787 49.4743L52.6141 50.2681L48.8274 49.7154L48.6099 48.8216L53.0787 49.4743Z" fill="white"/>
<path d="M52.0381 51.2618L51.5736 52.0556L49.3098 51.7205L49.0981 50.8326L52.0381 51.2618Z" fill="white"/>
<path d="M50.9972 53.0435L50.5326 53.8373L49.7976 53.7256L49.5801 52.8377L50.9972 53.0435Z" fill="white"/>
<path d="M77.0986 44.053L76.5459 45.3054L76.1813 46.1462L75.7227 47.1988L75.3522 48.0396L74.8936 49.0921L74.529 49.933L74.0704 50.9855L73.7 51.8204L73.2413 52.8788L72.8768 53.7138L72.4181 54.7663L72.0477 55.6072L71.6478 56.5244L71.3009 55.5836L70.9834 54.7252L70.5895 53.6491L70.2719 52.7906L69.8721 51.7087L69.5546 50.8502L69.1606 49.7742L68.8431 48.9157L68.4432 47.8397L68.1316 46.9812L67.7318 45.8993L67.4142 45.0408L66.9438 43.759L77.0986 44.053Z" fill="#C7C7C7"/>
<path d="M76.5457 45.3054L76.1811 46.1462L67.7316 45.8993L67.4141 45.0408L76.5457 45.3054Z" fill="white"/>
<path d="M75.7229 47.1988L75.3525 48.0396L68.4435 47.8397L68.1318 46.9812L75.7229 47.1988Z" fill="white"/>
<path d="M74.8938 49.0921L74.5292 49.933L69.1608 49.7742L68.8433 48.9157L74.8938 49.0921Z" fill="white"/>
<path d="M74.0705 50.9855L73.7001 51.8204L69.8722 51.7087L69.5547 50.8502L74.0705 50.9855Z" fill="white"/>
<path d="M73.2414 52.8788L72.8768 53.7138L70.5895 53.6491L70.272 52.7906L73.2414 52.8788Z" fill="white"/>
<path d="M72.4181 54.7663L72.0477 55.6072L71.3009 55.5836L70.9834 54.7252L72.4181 54.7663Z" fill="white"/>
<path d="M97.3611 42.4889L96.9907 43.806L96.7437 44.6939L96.4379 45.7993L96.191 46.6813L95.8852 47.7868L95.6383 48.6688L95.3325 49.7742L95.0855 50.6562L94.7798 51.7675L94.5328 52.6495L94.2271 53.755L93.9801 54.637L93.7096 55.6013L93.2333 54.7193L92.8041 53.9137L92.2573 52.9024L91.828 52.0968L91.2812 51.0796L90.8461 50.274L90.2992 49.2626L89.87 48.4571L89.3231 47.4457L88.8939 46.6402L88.3471 45.6288L87.9119 44.8232L87.2651 43.6178L97.3611 42.4889Z" fill="#DBDBDB"/>
<path d="M96.9908 43.806L96.7439 44.6939L88.3472 45.6288L87.9121 44.8232L96.9908 43.806Z" fill="white"/>
<path d="M96.4381 45.7993L96.1911 46.6813L89.3233 47.4457L88.894 46.6402L96.4381 45.7993Z" fill="white"/>
<path d="M95.8854 47.7868L95.6384 48.6688L90.2994 49.2626L89.8701 48.4571L95.8854 47.7868Z" fill="white"/>
<path d="M95.3326 49.7742L95.0857 50.6562L91.2813 51.0796L90.8462 50.274L95.3326 49.7742Z" fill="white"/>
<path d="M94.7799 51.7675L94.5329 52.6495L92.2574 52.9024L91.8281 52.0968L94.7799 51.7675Z" fill="white"/>
<path d="M94.2272 53.755L93.9802 54.637L93.2334 54.7193L92.8042 53.9137L94.2272 53.755Z" fill="white"/>
<path d="M116.889 37.679L116.759 39.0432L116.677 39.9546L116.571 41.0953L116.483 42.0067L116.377 43.1533L116.289 44.0647L116.183 45.2054L116.101 46.1168L115.995 47.2634L115.907 48.1748L115.801 49.3214L115.713 50.2328L115.619 51.2266L115.001 50.4445L114.431 49.7272L113.713 48.8275L113.149 48.1102L112.432 47.2105L111.861 46.4932L111.144 45.5994L110.579 44.882L109.862 43.9824L109.292 43.265L108.574 42.3654L108.004 41.648L107.151 40.5779L116.889 37.679Z" fill="#DBDBDB"/>
<path d="M116.759 39.0432L116.677 39.9546L108.574 42.3654L108.004 41.648L116.759 39.0432Z" fill="white"/>
<path d="M116.571 41.0953L116.483 42.0067L109.862 43.9824L109.292 43.265L116.571 41.0953Z" fill="white"/>
<path d="M116.377 43.1533L116.289 44.0647L111.144 45.5994L110.58 44.882L116.377 43.1533Z" fill="white"/>
<path d="M116.183 45.2054L116.101 46.1168L112.432 47.2105L111.861 46.4932L116.183 45.2054Z" fill="white"/>
<path d="M115.995 47.2634L115.907 48.1748L113.713 48.8275L113.149 48.1102L115.995 47.2634Z" fill="white"/>
<path d="M115.801 49.3214L115.712 50.2328L115.001 50.4445L114.431 49.7272L115.801 49.3214Z" fill="white"/>
<path d="M135.046 28.9884L135.187 30.3526L135.287 31.264L135.405 32.4047L135.505 33.3161L135.622 34.4568L135.716 35.3682L135.84 36.5089L135.934 37.4203L136.057 38.5669L136.152 39.4724L136.275 40.619L136.369 41.5246L136.475 42.5183L135.711 41.8774L135.011 41.2894L134.129 40.5485L133.435 39.9546L132.553 39.2137L131.853 38.6257L130.977 37.8848L130.277 37.291L129.395 36.5501L128.702 35.9621L127.82 35.2212L127.12 34.6332L126.073 33.7453L135.046 28.9884Z" fill="#A6A6A6"/>
<path d="M135.187 30.3526L135.287 31.264L127.819 35.2212L127.12 34.6332L135.187 30.3526Z" fill="white"/>
<path d="M135.405 32.4047L135.505 33.3161L129.395 36.5501L128.702 35.9621L135.405 32.4047Z" fill="white"/>
<path d="M135.622 34.4568L135.716 35.3682L130.977 37.8848L130.277 37.291L135.622 34.4568Z" fill="white"/>
<path d="M135.84 36.5089L135.934 37.4203L132.553 39.2137L131.853 38.6257L135.84 36.5089Z" fill="white"/>
<path d="M136.058 38.5669L136.152 39.4724L134.129 40.5485L133.435 39.9546L136.058 38.5669Z" fill="white"/>
<path d="M136.275 40.619L136.369 41.5246L135.71 41.8774L135.011 41.2894L136.275 40.619Z" fill="white"/>
<path d="M15.2881 33.175C20.68 35.0154 26.172 36.5324 31.7109 37.879C37.2499 39.2255 42.8418 40.278 48.463 41.16C59.6889 42.9619 71.0635 43.6669 82.4259 43.265C88.1049 43.0284 93.7642 42.4452 99.3721 41.5187C104.952 40.547 110.455 39.1714 115.836 37.4027L119.852 35.9856C121.175 35.4799 122.469 34.8978 123.78 34.3568C124.433 34.0746 125.097 33.8218 125.732 33.5101L127.637 32.5634L129.548 31.6168L130.536 31.164C130.854 31.0052 131.153 30.8112 131.459 30.6407L135.158 28.518C135.787 28.177 136.363 27.7654 136.951 27.3714L138.715 26.1954L140.479 25.0194C141.067 24.6196 141.608 24.155 142.178 23.7258L145.565 21.121L142.296 23.8258C141.737 24.2726 141.208 24.7548 140.632 25.1782L138.868 26.4188L137.104 27.6654C136.516 28.0829 135.928 28.518 135.34 28.8767L131.712 31.1228C131.106 31.5049 130.48 31.8543 129.836 32.1695L127.937 33.1632L126.032 34.151C125.397 34.4744 124.733 34.739 124.08 35.0389C122.769 35.6269 121.475 36.2149 120.152 36.7618L116.13 38.2612L115.125 38.6375L114.096 38.955L112.049 39.59L109.991 40.2192C109.309 40.4191 108.61 40.572 107.916 40.7484C106.522 41.0777 105.14 41.4599 103.741 41.7539L99.525 42.5712C93.8843 43.5377 88.1896 44.1562 82.473 44.4234C76.7558 44.6097 71.0329 44.5018 65.3269 44.1C59.6246 43.7113 53.9465 43.0244 48.316 42.042C37.0451 40.1648 25.9837 37.1951 15.2881 33.175Z" fill="#EBEBEB"/>
<path d="M147 275.449C212.968 275.449 266.446 270.952 266.446 265.406C266.446 259.859 212.968 255.363 147 255.363C81.0317 255.363 27.5537 259.859 27.5537 265.406C27.5537 270.952 81.0317 275.449 147 275.449Z" fill="#EBEBEB"/>
<path d="M21.1797 224.146L52.5671 223.999L83.9604 223.946L146.735 223.852L209.516 223.946L240.904 223.999L272.291 224.146L240.904 224.287L209.516 224.34L146.735 224.434L83.9604 224.34L52.5671 224.287L21.1797 224.146Z" fill="#263238"/>
<path d="M86.5391 123.778C88.4071 123.778 89.7893 123.684 89.9294 123.675L89.6773 119.939C89.5839 119.939 80.954 120.509 76.5176 118.706C72.9872 117.24 69.1019 107.34 67.3647 98.5606C66.272 93.0035 66.8697 91.257 67.3647 90.7059C67.4581 90.5845 67.7196 90.267 68.719 90.267H72.1653C73.1553 93.265 74.7524 96.2817 77.1527 96.2817H84.0454V92.5458H77.3769C76.4175 91.1239 75.7185 89.5427 75.3128 87.876L74.9299 86.5031H68.6629C67.8685 86.459 67.0745 86.5968 66.3413 86.9059C65.6081 87.215 64.9551 87.6874 64.4321 88.2869C62.8163 90.2576 62.5641 93.6386 63.6942 99.2611C64.586 103.789 65.9186 108.218 67.6729 112.486C69.9331 117.819 72.4455 121.079 75.1447 122.162C78.4416 123.526 83.2889 123.778 86.5391 123.778Z" fill="#3362CC"/>
<path opacity="0.2" d="M78.5439 92.5178H84.0637V96.2817H79.3939L78.5439 92.5178Z" fill="black"/>
<path opacity="0.2" d="M89.9294 123.684C89.7799 123.684 88.4444 123.787 86.5391 123.787C86.2215 123.787 85.8946 123.787 85.5491 123.787L84.7085 120.051C87.445 120.135 89.6305 119.995 89.6772 119.986L89.9294 123.684Z" fill="black"/>
<path d="M122.646 123.778C120.778 123.778 119.396 123.684 119.256 123.675L119.508 119.939C119.601 119.939 128.231 120.509 132.668 118.706C136.198 117.277 140.093 107.349 141.821 98.57C142.913 93.0129 142.316 91.2663 141.821 90.7153C141.727 90.5939 141.466 90.2763 140.466 90.2763H137.02C136.03 93.2744 134.433 96.2911 132.033 96.2911H125.14V92.5552H131.808C132.768 91.1333 133.467 89.552 133.872 87.8854L134.255 86.5124H140.522C141.316 86.4672 142.11 86.6035 142.843 86.911C143.576 87.2185 144.229 87.6891 144.753 88.287C146.369 90.2576 146.621 93.6386 145.491 99.2611C144.599 103.789 143.267 108.218 141.512 112.486C139.252 117.819 136.74 121.079 134.041 122.162C130.744 123.526 125.896 123.778 122.646 123.778Z" fill="#3362CC"/>
<path opacity="0.2" d="M130.641 92.5178H125.122V96.2817H129.791L130.641 92.5178Z" fill="black"/>
<path opacity="0.2" d="M119.256 123.684C119.405 123.684 120.741 123.787 122.646 123.787C122.964 123.787 123.291 123.787 123.636 123.787L124.477 120.051C121.74 120.135 119.555 119.995 119.508 119.986L119.256 123.684Z" fill="black"/>
<path d="M84.9512 161.351V163.472H124.234V161.351H120.872L118.359 157.756L106.927 153.207V130.895H102.258V153.207L90.8258 157.756L88.3135 161.351H84.9512Z" fill="#3362CC"/>
<path d="M100.959 133.874H108.216V131.53H100.959V133.874Z" fill="#3362CC"/>
<path opacity="0.2" d="M100.969 133.015L108.217 132.697V131.53H100.969V133.015Z" fill="black"/>
<path d="M80.5708 84C80.5708 84 82.4387 114.391 87.202 122.797C91.9652 131.203 102.211 131.913 104.593 131.913C106.974 131.913 117.201 131.194 121.983 122.797C126.765 114.401 128.614 84 128.614 84H80.5708Z" fill="#3362CC"/>
<path opacity="0.3" d="M100.941 131.567C96.8125 130.876 90.6203 128.765 87.1926 122.797C82.4014 114.391 80.5708 84 80.5708 84H85.0819C85.7076 90.379 86.9498 114.765 90.3868 121.854C93.3849 128.055 100.455 131.39 100.941 131.567Z" fill="white"/>
<path opacity="0.2" d="M120.872 161.361H88.3135L89.2101 160.062L119.172 158.932L120.872 161.361Z" fill="black"/>
<path opacity="0.1" d="M104.592 93.6012L107.17 98.8314L112.951 99.672L108.767 103.744L109.757 109.488L104.592 106.779L99.4276 109.488L100.418 103.744L96.2334 99.672L102.015 98.8314L104.592 93.6012Z" fill="black"/>
<path d="M136.88 169.122H72.3052V224.721H136.88V169.122Z" fill="#37474F"/>
<path d="M133.116 163.471H76.0786V169.122H133.116V163.471Z" fill="#263238"/>
<path d="M249.412 176.006H248.959V224.069H249.412V176.006Z" fill="#263238"/>
<path d="M263.23 157.143L250.188 224.069H249.729L262.789 157.055L263.23 157.143Z" fill="#263238"/>
<path d="M249.018 224.069H248.571L244.62 140.197L245.073 140.179L248.96 222.77L249.018 224.069Z" fill="#263238"/>
<path d="M257.95 124.215C256.828 127.601 254.922 130.673 252.387 133.182C248.959 136.71 245.437 138.615 245.472 138.991C245.578 140.062 246.619 141.684 246.537 142.037C246.454 142.39 245.584 142.749 244.849 142.749C244.114 142.749 243.244 142.396 243.161 142.037C243.079 141.679 244.12 140.062 244.22 138.991C244.296 138.239 230.002 131.277 230.99 117.512C231.501 110.456 235.964 107.592 239.745 106.446C240.796 106.126 241.875 105.906 242.967 105.787C243.592 105.713 244.22 105.676 244.849 105.675C246.86 105.675 257.885 106.163 258.702 117.512C258.873 119.774 258.618 122.047 257.95 124.215Z" fill="#3362CC"/>
<path opacity="0.1" d="M245.472 138.991C245.578 140.062 246.619 141.684 246.537 142.037C246.454 142.39 245.584 142.749 244.849 142.749C244.114 142.749 243.244 142.396 243.161 142.037C243.079 141.679 244.12 140.062 244.22 138.991C244.296 138.239 230.002 131.277 230.99 117.512C231.501 110.456 235.964 107.592 239.745 106.446C236.388 109.315 232.254 114.96 235.247 124.156C238.011 132.647 246.131 135.164 252.387 133.182C248.959 136.704 245.437 138.615 245.472 138.991Z" fill="black"/>
<path d="M254.41 113.413C254.411 114.03 254.229 114.633 253.888 115.146C253.546 115.66 253.06 116.06 252.49 116.297C251.921 116.534 251.294 116.596 250.689 116.477C250.084 116.357 249.529 116.061 249.092 115.625C248.656 115.189 248.358 114.634 248.238 114.029C248.117 113.425 248.178 112.798 248.414 112.228C248.65 111.658 249.049 111.171 249.562 110.829C250.074 110.486 250.677 110.303 251.294 110.303C252.119 110.303 252.911 110.63 253.495 111.214C254.079 111.797 254.408 112.588 254.41 113.413Z" fill="white"/>
<path d="M276.107 140.191C274.988 143.578 273.082 146.651 270.545 149.158C267.123 152.686 263.595 154.591 263.63 154.967C263.736 156.038 264.777 157.66 264.694 158.013C264.612 158.366 263.742 158.725 263.013 158.725C262.283 158.725 261.401 158.372 261.319 158.013C261.237 157.655 262.278 156.038 262.383 154.967C262.454 154.215 248.166 147.253 249.153 133.488C249.659 126.432 254.122 123.568 257.903 122.422C258.954 122.103 260.033 121.882 261.125 121.763C261.752 121.689 262.382 121.652 263.013 121.651C265.024 121.651 276.049 122.139 276.86 133.488C277.031 135.75 276.775 138.023 276.107 140.191Z" fill="#C7C7C7"/>
<path d="M263.63 154.967C263.736 156.038 264.777 157.66 264.694 158.013C264.612 158.366 263.742 158.725 263.013 158.725C262.283 158.725 261.401 158.372 261.319 158.013C261.237 157.655 262.278 156.038 262.383 154.967C262.454 154.215 248.166 147.253 249.153 133.488C249.659 126.432 254.122 123.568 257.903 122.422C254.551 125.291 250.412 130.936 253.405 140.132C256.168 148.623 264.294 151.134 270.545 149.158C267.123 152.68 263.595 154.591 263.63 154.967Z" fill="#A6A6A6"/>
<path d="M273.009 129.431C273.009 130.047 272.826 130.65 272.483 131.163C272.14 131.675 271.653 132.075 271.084 132.31C270.514 132.546 269.887 132.607 269.282 132.487C268.677 132.366 268.122 132.069 267.687 131.632C267.251 131.196 266.955 130.64 266.835 130.035C266.715 129.43 266.778 128.803 267.015 128.234C267.252 127.665 267.652 127.178 268.165 126.836C268.678 126.495 269.282 126.313 269.898 126.314C270.307 126.314 270.712 126.395 271.09 126.551C271.468 126.708 271.811 126.938 272.1 127.227C272.389 127.517 272.618 127.86 272.774 128.238C272.93 128.616 273.009 129.022 273.009 129.431Z" fill="white"/>
<path d="M262.278 159.072C261.136 162.487 259.199 165.583 256.627 168.103C253.228 171.561 249.777 173.442 249.812 173.813C249.912 174.877 250.953 176.506 250.871 176.859C250.788 177.211 249.9 177.576 249.189 177.576C248.477 177.576 247.578 177.223 247.495 176.865C247.413 176.506 248.454 174.883 248.56 173.819C248.636 173.066 234.342 166.104 235.33 152.339C235.841 145.224 240.369 142.372 244.15 141.243C245.197 140.936 246.269 140.721 247.354 140.603C247.958 140.535 248.564 140.5 249.171 140.497C251.182 140.497 262.207 140.991 263.025 152.339C263.2 154.61 262.946 156.894 262.278 159.072Z" fill="#37474F"/>
<path d="M235.33 152.333C235.841 145.218 240.369 142.367 244.15 141.238C240.775 144.072 236.506 149.746 239.522 159.06C242.274 167.527 250.365 170.055 256.609 168.103C253.211 171.561 249.759 173.442 249.795 173.813C249.894 174.877 250.935 176.506 250.853 176.859C250.771 177.211 249.9 177.576 249.189 177.576C248.477 177.576 247.578 177.223 247.495 176.865C247.413 176.506 248.454 174.883 248.56 173.819C248.636 173.06 234.342 166.098 235.33 152.333Z" fill="#263238"/>
<path d="M258.803 148.176C258.803 148.792 258.62 149.395 258.277 149.907C257.935 150.42 257.448 150.819 256.879 151.055C256.309 151.291 255.683 151.353 255.078 151.233C254.474 151.112 253.918 150.815 253.483 150.38C253.047 149.944 252.75 149.389 252.63 148.784C252.509 148.179 252.571 147.553 252.807 146.983C253.043 146.414 253.442 145.927 253.955 145.585C254.467 145.242 255.07 145.06 255.686 145.06C256.095 145.06 256.501 145.14 256.879 145.297C257.257 145.453 257.6 145.683 257.89 145.972C258.179 146.262 258.409 146.605 258.565 146.983C258.722 147.362 258.803 147.767 258.803 148.176Z" fill="white"/>
<path d="M253.728 212.915H245.161V224.11H253.728V212.915Z" fill="#3362CC"/>
<path d="M35.5563 176.006H35.1035V224.069H35.5563V176.006Z" fill="#263238"/>
<path d="M49.3745 157.143L36.3385 224.069H35.874L48.9335 157.055L49.3745 157.143Z" fill="#263238"/>
<path d="M35.1624 224.069H34.7155L30.7642 140.197L31.2169 140.179L35.1036 222.77L35.1624 224.069Z" fill="#263238"/>
<path d="M44.1001 124.215C42.981 127.602 41.0747 130.675 38.5376 133.182C35.1155 136.71 31.5875 138.615 31.6228 138.991C31.7286 140.062 32.7694 141.684 32.687 142.037C32.6047 142.39 31.7345 142.749 30.9995 142.749C30.2645 142.749 29.3942 142.396 29.3119 142.037C29.2296 141.679 30.2704 140.062 30.3762 138.991C30.4468 138.239 16.1525 131.277 17.1462 117.512C17.6401 110.45 22.1089 107.604 25.8721 106.428C26.9233 106.109 28.0021 105.888 29.0944 105.769C29.7188 105.695 30.3471 105.658 30.976 105.658C32.9869 105.658 44.0119 106.146 44.8292 117.494C45.0096 119.76 44.7623 122.04 44.1001 124.215Z" fill="#C7C7C7"/>
<path d="M31.6169 138.991C31.7227 140.062 32.7635 141.684 32.6812 142.037C32.5989 142.39 31.7286 142.749 30.9936 142.749C30.2586 142.749 29.3884 142.396 29.3061 142.037C29.2237 141.679 30.2645 140.062 30.3703 138.991C30.4409 138.239 16.1466 131.277 17.1403 117.512C17.6401 110.45 22.1089 107.604 25.8721 106.428C22.5147 109.297 18.381 114.942 21.3739 124.139C24.1375 132.629 32.2578 135.146 38.5141 133.164C35.1096 136.704 31.5816 138.615 31.6169 138.991Z" fill="#A6A6A6"/>
<path d="M40.5722 113.413C40.5733 114.03 40.3915 114.633 40.0498 115.146C39.7081 115.66 39.2218 116.06 38.6524 116.297C38.0831 116.534 37.4563 116.596 36.8514 116.477C36.2465 116.357 35.6906 116.061 35.2542 115.625C34.8178 115.189 34.5204 114.634 34.3997 114.029C34.2789 113.425 34.3403 112.798 34.576 112.228C34.8117 111.658 35.2111 111.171 35.7238 110.829C36.2364 110.486 36.8391 110.303 37.4558 110.303C38.2813 110.303 39.073 110.63 39.6573 111.214C40.2416 111.797 40.5706 112.588 40.5722 113.413Z" fill="white"/>
<path d="M62.2519 140.191C61.1328 143.578 59.2265 146.651 56.6894 149.158C53.2673 152.686 49.7451 154.591 49.7804 154.967C49.8804 156.038 50.9211 157.66 50.8388 158.013C50.7565 158.366 49.8862 158.725 49.1571 158.725C48.428 158.725 47.546 158.372 47.4637 158.013C47.3814 157.655 48.4221 156.038 48.528 154.967C48.6044 154.215 34.3101 147.253 35.298 133.488C35.8036 126.432 40.2666 123.568 44.0533 122.422C45.1025 122.102 46.1793 121.882 47.2696 121.763C47.8961 121.689 48.5263 121.652 49.1571 121.651C51.1681 121.651 62.1931 122.139 63.0045 133.488C63.178 135.75 62.9227 138.024 62.2519 140.191Z" fill="#455A64"/>
<path d="M49.7804 154.967C49.8804 156.038 50.9211 157.66 50.8388 158.013C50.7565 158.366 49.8862 158.725 49.1571 158.725C48.428 158.725 47.546 158.372 47.4637 158.013C47.3814 157.655 48.4221 156.038 48.528 154.967C48.6044 154.215 34.3101 147.253 35.298 133.488C35.8036 126.432 40.2666 123.568 44.0533 122.422C40.6958 125.291 36.5622 130.936 39.5492 140.132C42.3363 148.623 50.439 151.116 56.6894 149.158C53.2673 152.68 49.7451 154.591 49.7804 154.967Z" fill="#37474F"/>
<path d="M59.1527 129.431C59.1527 130.047 58.9698 130.65 58.6271 131.163C58.2844 131.675 57.7973 132.075 57.2276 132.31C56.6578 132.546 56.0309 132.607 55.4262 132.487C54.8215 132.366 54.2662 132.069 53.8306 131.632C53.395 131.196 53.0987 130.64 52.9791 130.035C52.8595 129.43 52.9221 128.803 53.1588 128.234C53.3956 127.665 53.796 127.178 54.3092 126.836C54.8225 126.495 55.4256 126.313 56.0422 126.314C56.4512 126.314 56.8561 126.395 57.2339 126.551C57.6117 126.708 57.9548 126.938 58.2438 127.227C58.5327 127.517 58.7617 127.86 58.9176 128.238C59.0736 128.616 59.1535 129.022 59.1527 129.431Z" fill="white"/>
<path d="M48.4218 159.072C47.2798 162.487 45.3432 165.583 42.7711 168.103C39.396 171.561 35.9209 173.46 35.9562 173.813C36.062 174.877 37.1322 176.506 37.0205 176.859C36.9087 177.211 36.0679 177.576 35.3329 177.576C34.5979 177.576 33.7277 177.223 33.6453 176.865C33.563 176.506 34.6038 174.883 34.7037 173.819C34.7802 173.066 20.4859 166.104 21.4737 152.339C21.9853 145.224 26.5129 142.372 30.2937 141.243C31.3463 140.932 32.4247 140.716 33.516 140.597C34.1194 140.53 34.7258 140.494 35.3329 140.491C37.3439 140.491 48.3689 140.985 49.1862 152.333C49.3563 154.607 49.097 156.893 48.4218 159.072Z" fill="#3362CC"/>
<path opacity="0.1" d="M21.4737 152.333C21.9853 145.218 26.5129 142.367 30.2937 141.238C26.9127 144.072 22.6497 149.746 25.6603 159.06C28.4121 167.527 36.503 170.055 42.7476 168.103C39.396 171.561 35.9209 173.46 35.9562 173.813C36.062 174.877 37.1322 176.506 37.0205 176.859C36.9087 177.211 36.0679 177.576 35.3329 177.576C34.5979 177.576 33.7277 177.223 33.6453 176.865C33.563 176.506 34.6038 174.883 34.7037 173.819C34.7802 173.06 20.4859 166.098 21.4737 152.333Z" fill="black"/>
<path d="M44.9467 148.176C44.9467 148.792 44.7639 149.395 44.4215 149.907C44.079 150.42 43.5923 150.819 43.0229 151.055C42.4534 151.291 41.8268 151.353 41.2223 151.233C40.6178 151.112 40.0625 150.815 39.6266 150.38C39.1908 149.944 38.894 149.389 38.7737 148.784C38.6535 148.179 38.7152 147.553 38.9511 146.983C39.187 146.414 39.5864 145.927 40.0989 145.585C40.6114 145.242 41.2139 145.06 41.8303 145.06C42.6568 145.06 43.4495 145.388 44.0339 145.972C44.6183 146.557 44.9467 147.349 44.9467 148.176Z" fill="white"/>
<path d="M39.8723 212.915H31.3052V224.11H39.8723V212.915Z" fill="#3362CC"/>
<path d="M146.77 70.9187C146.558 69.0192 146.46 67.1087 146.476 65.1974C146.46 63.2862 146.558 61.3757 146.77 59.4762C147.162 63.2803 147.162 67.1146 146.77 70.9187Z" fill="#263238"/>
<path d="M135.122 74.2879C133.992 72.7454 132.952 71.1395 132.006 69.4781C131.039 67.8311 130.169 66.1289 129.401 64.3801C131.645 67.4762 133.562 70.7965 135.122 74.2879Z" fill="#263238"/>
<path d="M126.72 83.0256C123.23 81.465 119.91 79.5498 116.812 77.3102C118.562 78.0746 120.265 78.9445 121.91 79.9151C123.573 80.8572 125.179 81.8958 126.72 83.0256Z" fill="#263238"/>
<path d="M167.28 82.2259C168.821 81.0961 170.428 80.0575 172.09 79.1154C173.735 78.1448 175.438 77.275 177.188 76.5106C174.09 78.7501 170.77 80.6653 167.28 82.2259Z" fill="#263238"/>
<path d="M158.542 73.8234C160.107 70.3355 162.022 67.0158 164.258 63.9156C163.492 65.6674 162.622 67.3717 161.653 69.0194C160.711 70.6801 159.672 72.2842 158.542 73.8234Z" fill="#263238"/>
<path d="M206.835 229.102V253.299C206.835 257.92 206.793 261.978 206.564 264.071C206.563 264.568 206.448 265.059 206.229 265.506L206.2 265.535C204.83 266.47 167.885 267.74 166.58 267.346C165.275 266.952 166.286 263.23 167.68 262.019C169.073 260.807 183.009 254.016 183.009 254.016L183.244 229.849L206.835 229.102Z" fill="#D3766A"/>
<path d="M206.835 248.33V253.299C206.835 257.92 206.793 261.978 206.564 264.071C206.508 264.56 206.396 265.042 206.229 265.506L206.2 265.535C204.83 266.47 167.885 267.74 166.58 267.346C165.275 266.952 166.286 263.23 167.68 262.019C169.073 260.807 183.009 254.016 183.009 254.016L182.938 248.977L206.835 248.33Z" fill="white"/>
<path d="M166.58 267.375C167.886 267.769 204.83 266.505 206.206 265.564C206.735 265.212 206.864 259.82 206.829 253.299V253.093L182.986 253.64V254.045C182.986 254.045 169.062 260.854 167.656 262.048C166.251 263.242 165.275 266.993 166.58 267.375Z" fill="#A6A6A6"/>
<path d="M166.951 265.929C173.172 265.564 198.303 264.676 204.483 264.788C204.53 264.788 204.536 264.823 204.483 264.823C198.321 265.323 173.184 265.999 166.951 266.035C166.821 266.035 166.816 265.941 166.951 265.929Z" fill="#263238"/>
<path d="M181.01 254.187C183.444 253.646 186.455 253.922 188.384 255.604C188.46 255.668 188.384 255.774 188.289 255.751C185.921 255.072 183.486 254.652 181.028 254.498C180.991 254.493 180.957 254.476 180.932 254.449C180.906 254.422 180.892 254.387 180.889 254.35C180.887 254.313 180.898 254.276 180.92 254.246C180.942 254.216 180.974 254.195 181.01 254.187Z" fill="#263238"/>
<path d="M179.275 255.315C181.71 254.775 184.72 255.045 186.655 256.727C186.725 256.791 186.655 256.897 186.555 256.874C184.187 256.202 181.755 255.782 179.299 255.621C179.258 255.624 179.218 255.611 179.187 255.585C179.156 255.558 179.137 255.521 179.134 255.48C179.131 255.44 179.144 255.399 179.171 255.369C179.197 255.338 179.235 255.319 179.275 255.315Z" fill="#263238"/>
<path d="M177.541 256.439C179.981 255.898 182.986 256.174 184.92 257.856C184.997 257.92 184.92 258.026 184.82 258.003C182.458 257.325 180.029 256.905 177.576 256.75C177.538 256.749 177.502 256.733 177.475 256.708C177.447 256.682 177.43 256.647 177.425 256.609C177.421 256.572 177.43 256.534 177.452 256.503C177.473 256.471 177.504 256.449 177.541 256.439Z" fill="#263238"/>
<path d="M208.029 211.715L208.023 211.986L207.494 254.316L181.627 253.798L186.943 124.75H208.781L208.029 211.715Z" fill="#37474F"/>
<path d="M182.709 249.483C186.749 249.447 185.59 249.406 189.63 249.412C191.606 249.412 204.589 249.465 206.429 249.788C206.47 249.788 206.47 249.865 206.429 249.871C204.577 250.159 191.6 249.871 189.624 249.841C185.585 249.753 186.743 249.735 182.709 249.6C182.694 249.6 182.679 249.594 182.668 249.583C182.657 249.572 182.65 249.557 182.65 249.541C182.65 249.526 182.657 249.511 182.668 249.5C182.679 249.489 182.694 249.483 182.709 249.483Z" fill="#263238"/>
<path d="M203.101 235.129C203.152 231.264 203.214 227.397 203.289 223.528C203.438 215.798 203.581 208.064 203.718 200.326C204.008 184.936 204.257 169.546 204.465 154.156C204.594 145.477 204.588 136.792 204.812 128.113H204.847C204.994 135.846 204.906 143.59 204.894 151.328C204.882 159.066 204.847 166.798 204.771 174.536C204.626 189.926 204.383 205.316 204.042 220.706C203.942 225.045 203.836 229.385 203.689 233.724C203.542 238.064 203.442 242.409 203.136 246.742C203.136 246.756 203.131 246.77 203.121 246.78C203.111 246.79 203.097 246.795 203.083 246.795C203.069 246.795 203.056 246.79 203.046 246.78C203.036 246.77 203.03 246.756 203.03 246.742C202.96 242.873 203.054 238.998 203.101 235.129Z" fill="#263238"/>
<path d="M208.781 125.015L208.211 190.906L190.7 124.756H208.775L208.781 125.015Z" fill="#263238"/>
<path d="M246.53 217.007C246.53 217.007 259.008 237.282 259.014 237.299C261.042 241.45 262.742 245.131 263.447 247.119C263.45 247.13 263.45 247.143 263.447 247.154C263.663 247.599 263.771 248.088 263.765 248.583C263.765 248.597 263.765 248.61 263.765 248.624C262.936 250.065 230.196 267.222 228.849 267.44C227.503 267.658 226.791 263.841 227.532 262.148C228.273 260.455 237.869 248.289 237.869 248.289L225.609 227.921L246.53 217.007Z" fill="#D3766A"/>
<path d="M263.777 248.589C263.779 248.6 263.779 248.612 263.777 248.624C262.942 250.065 230.202 267.228 228.855 267.44C227.509 267.652 226.797 263.841 227.532 262.148C228.267 260.455 237.875 248.289 237.875 248.289L235.688 244.655C241.039 241.803 250.77 236.793 256.809 233.689C258.126 235.823 259.02 237.282 259.02 237.287C261.048 241.445 262.754 245.12 263.453 247.107C263.456 247.119 263.456 247.131 263.453 247.142C263.673 247.592 263.784 248.088 263.777 248.589Z" fill="white"/>
<path d="M228.849 267.44C230.196 267.228 262.953 250.065 263.765 248.624C264.094 248.077 261.871 243.162 259.014 237.299C258.986 237.237 258.955 237.176 258.92 237.117L237.675 247.948L237.869 248.307C237.869 248.307 228.279 260.484 227.556 262.166C226.833 263.847 227.509 267.658 228.849 267.44Z" fill="#A6A6A6"/>
<path d="M228.556 265.976C234.001 262.948 256.262 251.276 261.878 248.671C261.925 248.671 261.942 248.671 261.878 248.706C256.544 251.823 234.189 263.342 228.585 266.064C228.485 266.123 228.438 266.041 228.556 265.976Z" fill="#263238"/>
<path d="M236.129 249.312C238.087 247.766 240.921 246.707 243.391 247.383C243.485 247.413 243.45 247.548 243.391 247.56C240.964 247.978 238.588 248.654 236.305 249.577C236.27 249.6 236.227 249.608 236.186 249.6C236.145 249.592 236.108 249.568 236.085 249.532C236.061 249.497 236.053 249.454 236.061 249.413C236.069 249.372 236.094 249.335 236.129 249.312Z" fill="#263238"/>
<path d="M235.059 251.076C237.017 249.53 239.851 248.471 242.32 249.153C242.414 249.153 242.373 249.312 242.291 249.33C239.874 249.747 237.508 250.423 235.235 251.346C235.199 251.37 235.155 251.378 235.114 251.369C235.072 251.36 235.035 251.335 235.012 251.299C234.988 251.264 234.98 251.22 234.989 251.178C234.998 251.136 235.023 251.099 235.059 251.076Z" fill="#263238"/>
<path d="M233.983 252.84C235.947 251.299 238.775 250.241 241.245 250.917C241.345 250.917 241.304 251.082 241.245 251.094C238.818 251.512 236.443 252.188 234.159 253.11C234.123 253.134 234.08 253.142 234.038 253.133C233.996 253.124 233.959 253.099 233.936 253.063C233.912 253.028 233.904 252.984 233.913 252.942C233.922 252.9 233.947 252.863 233.983 252.84Z" fill="#263238"/>
<path d="M189.301 124.732C189.401 125.185 190.924 132.271 192.511 138.356C193.658 142.802 194.863 146.712 195.522 147.118C196.292 147.57 200.044 149.234 201.302 149.752C201.302 149.752 209.734 191.859 214.191 204.918C218.307 216.966 235.3 249.171 235.3 249.171L259.996 236.705C259.996 236.705 240.71 204.036 238.687 198.156C235.547 189.066 223.781 144.677 223.781 144.677C223.781 144.677 223.869 130.777 219.189 124.685L189.301 124.732Z" fill="#37474F"/>
<path d="M235.67 244.379C239.198 242.409 238.158 242.926 241.703 240.998C243.438 240.051 254.851 233.859 256.627 233.26C256.662 233.26 256.697 233.307 256.662 233.33C255.192 234.471 243.661 240.492 241.903 241.374C238.322 243.238 239.328 242.662 235.729 244.485C235.715 244.492 235.699 244.494 235.683 244.49C235.668 244.485 235.655 244.475 235.647 244.461C235.639 244.447 235.637 244.43 235.641 244.415C235.646 244.4 235.656 244.386 235.67 244.379Z" fill="#263238"/>
<path d="M217.448 140.832C216.778 140.655 216.055 140.603 215.367 140.491C214.808 140.403 214.255 140.309 213.703 140.185C212.644 139.994 211.64 139.573 210.763 138.95C209.81 138.209 209.328 137.08 208.863 136.01C208.593 135.363 208.275 134.728 208.023 134.088L207.599 133.164C207.402 132.805 207.228 132.434 207.076 132.053C207.076 132 206.97 132.053 206.994 132.082C207.087 132.342 207.166 132.607 207.229 132.876C207.323 133.188 207.411 133.5 207.505 133.811C207.676 134.364 207.846 134.917 208.029 135.463C208.3 136.476 208.695 137.452 209.205 138.368C210.222 139.991 212.045 140.644 213.861 140.873C214.385 140.944 214.908 140.979 215.437 141.008C216.099 141.067 216.764 141.067 217.425 141.008C217.436 141.01 217.448 141.009 217.459 141.006C217.471 141.003 217.481 140.998 217.491 140.991C217.5 140.984 217.508 140.975 217.514 140.965C217.519 140.955 217.523 140.943 217.525 140.932C217.526 140.92 217.526 140.908 217.523 140.897C217.52 140.886 217.514 140.875 217.507 140.866C217.5 140.857 217.491 140.849 217.481 140.843C217.471 140.837 217.46 140.833 217.448 140.832Z" fill="#263238"/>
<path d="M193.534 146.142C196.211 147.113 198.799 148.317 201.266 149.74C201.36 149.793 201.266 149.946 201.196 149.899C198.591 148.782 195.933 147.711 193.393 146.447C193.359 146.425 193.335 146.391 193.324 146.352C193.313 146.313 193.316 146.271 193.333 146.234C193.35 146.197 193.38 146.168 193.416 146.151C193.453 146.134 193.495 146.131 193.534 146.142Z" fill="#263238"/>
<path d="M192.752 128.302C192.752 128.208 192.917 128.19 192.911 128.302C192.912 131.208 193.059 134.112 193.352 137.004C193.469 138.351 194.528 145.759 196.88 145.236C197.268 145.142 197.468 144.76 197.527 144.172C197.515 143.403 197.411 142.639 197.215 141.896C196.962 140.344 196.75 138.792 196.627 137.192C196.352 134.273 196.384 131.332 196.721 128.419C196.726 128.403 196.735 128.389 196.749 128.379C196.762 128.369 196.778 128.364 196.795 128.364C196.811 128.364 196.827 128.369 196.841 128.379C196.854 128.389 196.864 128.403 196.868 128.419C196.798 132.469 197.032 136.518 197.568 140.532C197.856 142.461 198.826 145.365 196.809 145.659C194.792 145.953 193.428 141.096 193.175 139.779C192.537 135.988 192.395 132.13 192.752 128.302Z" fill="#263238"/>
<path d="M196.815 145.401C197.025 145.902 197.199 146.416 197.339 146.941C197.489 147.345 197.563 147.774 197.556 148.205C197.549 148.22 197.538 148.233 197.524 148.242C197.509 148.25 197.493 148.255 197.477 148.255C197.46 148.255 197.444 148.25 197.43 148.242C197.416 148.233 197.405 148.22 197.397 148.205C197.153 147.827 196.971 147.412 196.856 146.976C196.68 146.506 196.492 146.03 196.327 145.554C196.318 145.492 196.331 145.43 196.363 145.378C196.396 145.325 196.447 145.286 196.506 145.268C196.565 145.249 196.628 145.252 196.685 145.277C196.742 145.301 196.788 145.345 196.815 145.401Z" fill="#263238"/>
<path d="M253.316 232.636C249.788 226.021 246.189 219.471 242.556 212.927C240.762 209.704 238.892 206.511 237.181 203.242C235.572 200.003 234.267 196.621 233.283 193.14C231.107 186.084 229.049 178.991 227.109 171.861C225.168 164.73 223.344 157.572 221.635 150.387C221.205 148.588 220.741 146.794 220.394 144.977C220.085 143.144 220.085 141.272 220.394 139.438C220.66 137.731 220.674 135.993 220.435 134.282C220.169 132.575 219.776 130.891 219.259 129.242C218.989 128.378 218.671 127.514 218.395 126.655C218.385 126.639 218.371 126.627 218.354 126.621C218.336 126.614 218.317 126.613 218.3 126.619C218.282 126.624 218.267 126.635 218.256 126.65C218.246 126.666 218.241 126.684 218.242 126.702C219.306 130.183 220.394 133.699 220.165 137.386C220.053 139.15 219.577 140.914 219.618 142.678C219.73 144.449 220.03 146.203 220.512 147.911C222.185 155.144 223.987 162.343 225.915 169.509C227.844 176.674 229.88 183.813 232.025 190.924C233.071 194.375 234.047 197.886 235.553 201.178C237.058 204.471 238.922 207.605 240.698 210.757C244.363 217.276 248.075 223.767 251.834 230.231L253.281 232.683C253.269 232.736 253.345 232.689 253.316 232.636Z" fill="#263238"/>
<path d="M202.307 95.55C200.543 100.101 189.148 116.483 181.645 117.306C174.001 118.147 157.202 106.722 155.214 105.381C153.227 104.041 161.541 90.6049 163.446 91.775C168.28 94.7503 180.087 103.4 182.262 102.359C186.784 100.154 190.265 97.1141 196.768 92.7688C201.278 89.7347 204.254 90.552 202.307 95.55Z" fill="#D3766A"/>
<path d="M155.743 105.552C153.921 105.017 145.63 101.853 143.554 100.46C141.479 99.0662 135.828 94.621 136.71 92.904C137.592 91.187 139.385 92.3748 139.385 92.3748C139.385 92.3748 137.28 90.1228 138.35 88.494C139.421 86.8652 142.108 88.7821 142.108 88.7821C142.108 88.7821 140.12 86.3066 141.296 84.7602C142.472 83.2138 144.86 85.5893 144.86 85.5893C144.86 85.5893 142.937 83.4078 144.448 82.5493C146.259 81.5086 149.352 85.9244 151.757 87.2886C152.304 87.6002 163.276 92.7923 163.276 92.7923L155.743 105.552Z" fill="#D3766A"/>
<path d="M144.648 85.407C146.929 88.6469 148.487 89.67 152.086 91.1694C152.157 91.1694 152.133 91.3105 152.057 91.287C148.393 90.1404 146.253 89.1349 144.483 85.507C144.401 85.3306 144.542 85.26 144.648 85.407Z" fill="#263238"/>
<path d="M141.931 88.5352C144.595 91.6986 146.271 92.8217 149.928 94.668C149.981 94.6974 149.928 94.7856 149.887 94.7621C146.147 93.2509 144.036 92.2043 141.79 88.6939C141.708 88.5352 141.808 88.394 141.931 88.5352Z" fill="#263238"/>
<path d="M139.573 92.4806C142.372 95.3559 144.16 96.6672 147.94 98.0078C147.955 98.0167 147.965 98.0299 147.971 98.0454C147.977 98.0609 147.978 98.078 147.973 98.0939C147.968 98.1099 147.959 98.1239 147.945 98.1338C147.932 98.1437 147.916 98.149 147.899 98.1489C143.913 97.1611 141.666 95.5382 139.491 92.5806C139.356 92.3748 139.397 92.316 139.573 92.4806Z" fill="#263238"/>
<path d="M165.592 93.7272C165.592 93.7272 163.534 89.2114 162.194 87.4238C160.853 85.6363 153.374 80.8206 152.268 82.3729C150.804 84.3721 154.561 88.0001 156.631 89.5348C156.631 89.5348 153.25 94.1623 155.379 97.3493C157.507 100.536 165.592 93.7272 165.592 93.7272Z" fill="#D3766A"/>
<path d="M152.045 83.055C152.045 85.8421 154.879 87.6826 156.779 89.3231C156.809 89.3442 156.834 89.3723 156.851 89.4051C156.868 89.4379 156.877 89.4743 156.877 89.5112C156.877 89.5482 156.868 89.5846 156.851 89.6174C156.834 89.6501 156.809 89.6783 156.779 89.6994C155.491 91.7339 154.262 94.9914 155.25 97.3434C155.257 97.3574 155.258 97.3737 155.253 97.3886C155.248 97.4034 155.237 97.4158 155.223 97.4228C155.209 97.4298 155.193 97.4309 155.178 97.426C155.163 97.421 155.151 97.4103 155.144 97.3963C153.75 95.0443 154.691 91.7398 156.243 89.6053C154.274 87.953 151.498 85.9773 152.045 83.0785V83.055Z" fill="#263238"/>
<path d="M167.956 94.0212C167.956 94.0212 180.345 102.453 181.627 102.194C183.762 101.765 193.717 93.2391 197.374 91.434C201.031 89.6288 205.359 88.8703 201.813 97.6374C199.273 103.9 187.837 117.23 181.763 118.564C177.564 119.487 161.771 116.177 161.771 116.177L167.956 94.0212Z" fill="#3362CC"/>
<path d="M166.104 115.413C167.903 107.104 170.555 98.8016 170.955 97.3022C170.955 97.2317 171.078 97.3022 171.061 97.361C170.679 98.7664 168.338 108.827 166.222 115.483C166.198 115.56 166.086 115.495 166.104 115.413Z" fill="#263238"/>
<path opacity="0.1" d="M201.813 97.6374C199.273 103.9 187.837 117.23 181.763 118.564C180.587 118.823 178.476 118.747 176.065 118.506L202.601 90.8225C203.413 91.681 203.407 93.6978 201.813 97.6374Z" fill="black"/>
<path d="M223.587 134.652C223.487 134.74 184.738 133.717 184.738 133.717C185.202 123.345 193.505 96.0851 198.044 91.6339C200.749 88.9879 206.741 89.2172 208.899 91.3634C215.302 97.7256 223.94 134.329 223.587 134.652Z" fill="#EBEBEB"/>
<path d="M205.864 89.6876L204.165 110.185L207.229 140.838L225.31 141.485C225.31 141.485 217.666 107.851 213.849 98.6076C210.033 89.3642 205.864 89.6876 205.864 89.6876Z" fill="#3362CC"/>
<path d="M197.791 91.6222L194.963 108.709L188.748 140.938H182.456C182.456 140.938 190.512 105.252 193.293 98.7076C196.074 92.1631 197.791 91.6222 197.791 91.6222Z" fill="#3362CC"/>
<path d="M216.019 93.5273C226.015 87.8119 234.729 77.6513 234.923 74.0586C235.235 68.1786 232.777 60.7286 228.702 49.9506C227.891 47.8044 211.544 54.9839 212.632 57.1771C214.784 61.5107 220.864 72.1241 220.935 74.9288C220.97 76.1048 215.29 82.2671 209.704 89.1584C202.924 97.4963 211.762 95.9675 216.019 93.5273Z" fill="#D3766A"/>
<path d="M225.339 40.5191C227.303 43.6414 229.808 53.0846 229.455 55.1426C229.102 57.2006 215.625 60.2288 213.967 58.8588C212.309 57.4888 206.5 46.452 206.929 42.7123C207.358 38.9726 223.305 37.2792 225.339 40.5191Z" fill="#D3766A"/>
<path d="M207.423 48.6041C209.187 49.4802 209.187 46.9165 209.187 46.9165C209.187 46.9165 210.028 50.6209 212.18 50.8267C214.332 51.0325 214.185 47.9279 214.185 47.7044C214.232 47.8985 215.09 51.2795 217.272 51.2677C219.453 51.256 218.942 48.1572 218.906 47.9573C219.006 48.1278 220.382 50.3622 222.04 49.98C224.886 49.3097 221.523 43.512 222.223 41.2364C222.223 41.2364 225.357 40.7484 225.48 40.7484C225.48 40.7484 223.222 36.3972 220.118 35.6152C219.667 35.4914 219.188 35.5261 218.76 35.7134C218.331 35.9007 217.981 36.2292 217.766 36.6442C217.766 36.6442 216.972 34.7273 215.249 34.6861C214.367 34.6861 213.55 36.0562 213.55 36.0562C213.346 35.6332 213.03 35.2745 212.635 35.0194C212.241 34.7642 211.785 34.6225 211.315 34.6097C210.092 34.6508 209.463 36.0385 209.463 36.0385C209.463 36.0385 208.117 34.9096 206.882 35.3564C204.412 36.2502 203.683 46.7166 207.423 48.6041Z" fill="#D3766A"/>
<path d="M209.357 36.2443H209.304C208.174 39.7485 208.135 43.5132 209.192 47.04C209.228 47.1517 209.422 47.14 209.404 47.04C208.864 43.4628 208.848 39.8261 209.357 36.2443Z" fill="#263238"/>
<path d="M213.562 36.0032C213.562 35.968 213.503 35.9562 213.485 36.0032C212.266 39.8849 212.474 44.0748 214.073 47.8162C214.132 47.9455 214.314 48.0043 214.261 47.8514C213.309 45.276 213.038 39.3548 213.562 36.0032Z" fill="#263238"/>
<path d="M219.136 48.1748C217.595 44.5057 217.372 40.7131 217.742 36.7853C217.742 36.7382 217.672 36.7324 217.66 36.7853C216.966 38.661 217.001 41.1894 217.196 43.1533C217.349 44.9696 217.973 46.7146 219.007 48.216C219.048 48.2924 219.165 48.2572 219.136 48.1748Z" fill="#263238"/>
<path d="M209.205 46.9165C209.433 47.6109 209.723 48.2838 210.069 48.9275C210.384 49.563 210.86 50.1045 211.451 50.4974C211.733 50.6605 212.066 50.7148 212.386 50.6503C212.706 50.5784 213.004 50.4267 213.25 50.2093C213.472 49.975 213.644 49.6975 213.754 49.394C213.864 49.0905 213.911 48.7676 213.891 48.4453L213.832 46.846L214.42 48.3277C214.682 48.9925 215.054 49.6087 215.52 50.1505C215.72 50.4128 215.973 50.6301 216.263 50.7881C216.553 50.9462 216.872 51.0414 217.201 51.0678C217.508 51.0901 217.813 51.0057 218.065 50.8289C218.317 50.6521 218.5 50.3938 218.583 50.0976C218.757 49.4325 218.757 48.7341 218.583 48.069L218.177 46.2109L219.165 47.8279C219.439 48.278 219.769 48.691 220.147 49.0568C220.493 49.4157 220.937 49.6651 221.423 49.7742C221.643 49.8168 221.871 49.7957 222.079 49.7134C222.287 49.6311 222.468 49.4911 222.599 49.3097C222.84 48.8611 222.948 48.3533 222.911 47.8456C222.844 46.7474 222.69 45.6563 222.452 44.5822C222.352 44.0353 222.252 43.4885 222.176 42.9358C222.058 42.3853 222.058 41.8163 222.176 41.2658C222.111 41.8155 222.153 42.3726 222.299 42.9064C222.417 43.4473 222.558 43.9824 222.699 44.5234C223.015 45.6025 223.23 46.7088 223.34 47.8279C223.408 48.4343 223.298 49.0474 223.023 49.5919C222.841 49.8714 222.582 50.0919 222.277 50.2266C221.972 50.3613 221.635 50.4043 221.306 50.3504C220.697 50.2314 220.137 49.9324 219.7 49.492C219.269 49.0935 218.893 48.6386 218.583 48.1396L219.171 47.8985C219.38 48.6866 219.38 49.5153 219.171 50.3034C219.044 50.7361 218.77 51.1106 218.395 51.3618C218.024 51.6045 217.586 51.7257 217.143 51.7087C216.725 51.6737 216.319 51.5508 215.953 51.3481C215.586 51.1455 215.266 50.8676 215.014 50.5327C214.515 49.927 214.117 49.2437 213.838 48.51L214.426 48.3924C214.442 48.7995 214.368 49.2051 214.211 49.5809C214.053 49.9567 213.816 50.2935 213.515 50.568C213.198 50.8223 212.822 50.9905 212.421 51.056C212.012 51.1208 211.593 51.0329 211.245 50.8091C210.632 50.3594 210.156 49.7488 209.869 49.0451C209.569 48.3626 209.346 47.6486 209.205 46.9165Z" fill="#263238"/>
<path d="M212.632 57.1536C212.632 57.1536 199.755 48.2454 205.706 44.9173C207.47 43.9295 215.913 41.9773 216.337 43.6649C216.884 45.8464 213.514 47.3164 211.251 47.9044C211.251 47.9044 216.06 50.321 215.367 54.1666C215.231 54.8682 214.903 55.5185 214.421 56.0457C213.938 56.5728 213.319 56.9563 212.632 57.1536Z" fill="#D3766A"/>
<path d="M205.212 45.2231C205.86 44.7537 206.573 44.3813 207.329 44.1176C208.077 43.8359 208.843 43.6041 209.622 43.4238C211.179 43.0376 212.767 42.7878 214.367 42.677C214.793 42.6504 215.221 42.6841 215.637 42.777C215.875 42.8307 216.098 42.9372 216.29 43.0886C216.399 43.1691 216.493 43.2687 216.566 43.3826C216.634 43.4962 216.686 43.619 216.719 43.7472C216.827 44.2161 216.764 44.7079 216.543 45.1349C216.336 45.5217 216.061 45.8682 215.731 46.158C215.103 46.7015 214.385 47.1313 213.609 47.4281C212.859 47.7316 212.089 47.9811 211.304 48.1748L211.357 47.6574C211.894 47.9517 212.402 48.2962 212.874 48.6864C213.351 49.0729 213.788 49.5063 214.179 49.98C214.56 50.4554 214.869 50.9844 215.096 51.55C215.322 52.1106 215.438 52.7095 215.437 53.314C215.361 52.7282 215.186 52.1596 214.92 51.6323C214.652 51.1141 214.313 50.6352 213.914 50.2093C213.523 49.7731 213.088 49.3789 212.615 49.0333C212.15 48.6913 211.654 48.394 211.133 48.1454L210.486 47.8397L211.18 47.6221C211.928 47.4109 212.661 47.1496 213.373 46.8401C214.076 46.5556 214.727 46.1584 215.302 45.6641C215.575 45.4636 215.792 45.1957 215.931 44.8866C216.07 44.5775 216.127 44.2376 216.096 43.9001C216.002 43.365 215.137 43.2768 214.396 43.3121C213.656 43.3474 212.844 43.412 212.044 43.5002C211.245 43.5884 210.48 43.6943 209.692 43.8354C208.136 44.0638 206.625 44.5319 205.212 45.2231Z" fill="#263238"/>
<path d="M212.297 61.4401C212.297 61.4401 219.806 74.4055 219.459 75.6697C218.871 77.763 209.651 87.071 207.582 90.5932C205.512 94.1153 205.053 99.8248 213.462 95.4677C220.071 92.0338 234.042 82.9492 235.806 76.9868C237.029 72.8708 234.877 56.8831 234.877 56.8831L212.297 61.4401Z" fill="#3362CC"/>
<path d="M233.771 61.152C225.351 62.328 216.878 64.386 215.355 64.68C215.284 64.68 215.355 64.8094 215.402 64.7917C216.831 64.5154 227.033 62.9101 233.824 61.2637C233.906 61.2461 233.848 61.152 233.771 61.152Z" fill="#263238"/>
<path d="M199.379 96.479C200.955 96.6554 204.441 93.9271 205.894 91.5222C205.896 90.1379 205.83 88.7544 205.694 87.3768C205.623 86.0538 205.582 84.572 205.635 83.2196L197.068 84.9248C197.475 86.6351 197.672 88.3884 197.656 90.1463C197.645 90.3326 197.617 90.5176 197.574 90.699V90.7931C197.35 91.8397 196.909 96.1968 199.379 96.479Z" fill="#D3766A"/>
<path d="M197.568 90.699C197.569 90.7304 197.569 90.7618 197.568 90.7931C197.855 90.8431 198.146 90.8707 198.438 90.8754C203.265 90.9695 204.694 85.1483 205.018 83.3431L197.068 84.919C197.475 86.6331 197.672 88.3904 197.656 90.1522C197.645 90.337 197.616 90.5202 197.568 90.699Z" fill="#263238"/>
<path d="M197.627 67.1672C197.627 67.1672 194.54 68.0845 193.675 71.0304C192.811 73.9763 193.164 77.2103 193.411 77.3926C193.658 77.5748 197.627 67.1672 197.627 67.1672Z" fill="#263238"/>
<path d="M208.222 72.8003C208.74 75.9049 206.023 84.3133 203.648 85.9538C200.202 88.3058 195.128 87.9354 193.252 83.9252C191.429 80.0327 195.163 69.137 197.768 67.7023C201.602 65.5914 207.464 68.208 208.222 72.8003Z" fill="#D3766A"/>
<path d="M201.466 75.3757C201.244 75.2349 201.03 75.0818 200.825 74.9171C200.579 74.7407 200.367 74.6231 200.237 74.3291C200.218 74.2422 200.227 74.1513 200.263 74.0699C200.299 73.9884 200.36 73.9206 200.437 73.8763C200.606 73.8141 200.788 73.7982 200.965 73.8302C201.142 73.8623 201.307 73.9411 201.443 74.0586C201.758 74.2503 201.987 74.5555 202.084 74.9112C202.097 74.9898 202.088 75.0706 202.059 75.1446C202.029 75.2187 201.98 75.2832 201.916 75.3312C201.853 75.3791 201.777 75.4086 201.698 75.4165C201.618 75.4243 201.538 75.4102 201.466 75.3757Z" fill="#263238"/>
<path d="M195.833 73.7411C196.096 73.7558 196.359 73.7558 196.621 73.7411C196.898 73.7877 197.183 73.7423 197.432 73.6117C197.502 73.5549 197.55 73.4769 197.57 73.3897C197.591 73.3024 197.581 73.211 197.544 73.1296C197.447 72.9783 197.312 72.8559 197.151 72.7752C196.991 72.6945 196.812 72.6585 196.633 72.6709C196.268 72.6366 195.903 72.7393 195.61 72.9591C195.539 73.0119 195.486 73.0849 195.458 73.1685C195.43 73.2521 195.428 73.3423 195.452 73.4271C195.476 73.5119 195.525 73.5874 195.594 73.6434C195.662 73.6995 195.745 73.7336 195.833 73.7411Z" fill="#263238"/>
<path d="M199.032 80.0209C198.823 80.2064 198.577 80.3457 198.311 80.4298C198.045 80.5139 197.763 80.5409 197.486 80.509C197.242 80.4891 197.002 80.4337 196.774 80.3443L196.645 80.2855L196.527 80.2326C196.498 80.2189 196.474 80.1959 196.459 80.1672C196.444 80.1385 196.439 80.1057 196.445 80.0738V80.015V79.968C196.563 79.5211 196.798 78.8684 196.798 78.8684C196.616 78.8684 195.687 79.0331 195.769 78.8038C196.391 76.834 197.213 74.9328 198.221 73.1296C198.227 73.1163 198.238 73.1061 198.252 73.1011C198.266 73.0961 198.281 73.0969 198.294 73.1031C198.308 73.1093 198.318 73.1206 198.323 73.1344C198.328 73.1482 198.327 73.1633 198.321 73.1766C197.733 74.9994 196.874 76.7046 196.274 78.5333C196.606 78.4865 196.943 78.4865 197.274 78.5333C197.333 78.5686 196.798 79.7975 196.763 79.9974C197.113 80.1374 197.489 80.2059 197.866 80.1989C198.244 80.1918 198.616 80.1093 198.962 79.9562C199.05 79.9327 199.079 79.968 199.032 80.0209Z" fill="#263238"/>
<path d="M197.098 80.1914C197.25 80.5758 197.497 80.9156 197.815 81.1793C197.995 81.3153 198.213 81.3914 198.438 81.3968C198.926 81.3968 199.062 80.997 199.079 80.6148C199.086 80.4176 199.07 80.2203 199.032 80.0268C198.422 80.2887 197.743 80.3465 197.098 80.1914Z" fill="#263238"/>
<path d="M197.815 81.1793C197.995 81.3153 198.213 81.3914 198.438 81.3968C198.926 81.3968 199.061 80.997 199.079 80.6148C198.836 80.5531 198.578 80.5752 198.349 80.6776C198.12 80.78 197.932 80.9568 197.815 81.1793Z" fill="#FF9BBC"/>
<path d="M200.984 76.7811C200.993 76.62 200.959 76.4594 200.884 76.3165C200.841 76.2393 200.782 76.1721 200.711 76.1194C200.64 76.0666 200.559 76.0296 200.472 76.0108C200.383 75.9927 200.291 75.9956 200.204 76.019C200.116 76.0425 200.035 76.0859 199.967 76.146C199.851 76.2527 199.762 76.3858 199.708 76.5341C199.675 76.6205 199.648 76.7089 199.626 76.7987C199.581 76.9921 199.581 77.1933 199.626 77.3867C199.648 77.2477 199.685 77.1116 199.737 76.981C199.783 76.861 199.838 76.745 199.902 76.6341C200.031 76.4106 200.22 76.2342 200.408 76.293C200.596 76.3518 200.725 76.5282 200.755 76.7928C200.781 77.0627 200.781 77.3344 200.755 77.6042C200.891 77.3503 200.97 77.0691 200.984 76.7811Z" fill="#263238"/>
<path d="M195.433 75.0229C195.509 74.881 195.623 74.7629 195.763 74.6819C195.841 74.6405 195.926 74.6155 196.014 74.6084C196.102 74.6013 196.191 74.6123 196.274 74.6407C196.358 74.6731 196.434 74.7244 196.495 74.7907C196.556 74.857 196.601 74.9364 196.627 75.0229C196.665 75.1755 196.665 75.3349 196.627 75.4875C196.608 75.5793 196.582 75.6696 196.551 75.7579C196.49 75.9446 196.385 76.114 196.245 76.2519C196.297 76.1209 196.337 75.985 196.362 75.8461C196.389 75.7204 196.405 75.5925 196.409 75.4639C196.409 75.2052 196.351 74.9583 196.157 74.8759C196.05 74.849 195.937 74.8581 195.836 74.9017C195.735 74.9453 195.652 75.021 195.598 75.117C195.446 75.3483 195.318 75.5946 195.216 75.852C195.221 75.5622 195.295 75.2778 195.433 75.0229Z" fill="#263238"/>
<path d="M206.388 80.1327C205.335 80.1327 205.212 76.8693 205.241 75.6639C205.288 74.5996 206 71.4009 206.017 71.1774C206.035 70.954 200.943 72.5298 198.767 71.0304C196.592 69.531 195.698 66.8262 195.998 65.809C196.298 64.7917 200.114 63.2159 202.772 63.945C205.429 64.6741 207.822 69.1194 207.822 69.1194C207.557 68.4989 207.343 67.8578 207.182 67.2025C207.258 67.0967 208.71 68.3197 208.628 69.6133C208.628 69.6133 208.787 68.0081 208.928 68.0199C209.069 68.0316 209.939 69.7486 209.322 70.6247C209.322 70.6247 210.392 72.424 210.063 73.8999C209.733 75.3757 207.634 80.1621 206.388 80.1327Z" fill="#263238"/>
<path d="M197.233 69.972C197.821 70.5933 198.499 71.1226 199.244 71.5419C200.105 71.9129 201.044 72.0664 201.978 71.9888C202.913 71.9383 203.834 71.7398 204.706 71.4008C205.471 71.1009 206.206 70.6835 206.994 70.4541C207.194 70.3953 207.3 70.6893 207.153 70.8011C205.576 71.9577 203.669 72.5761 201.714 72.5651C200.805 72.5606 199.914 72.3203 199.126 71.8678C198.339 71.4153 197.682 70.7661 197.221 69.9837C197.221 69.9837 197.221 69.972 197.233 69.972Z" fill="#263238"/>
<path d="M205.453 79.5799C205.453 79.5799 207.805 77.0986 208.981 77.9864C210.157 78.8743 208.058 82.6904 206.494 83.0021C206.296 83.0575 206.089 83.0724 205.886 83.0458C205.682 83.0192 205.486 82.9517 205.309 82.8473C205.132 82.7429 204.978 82.6039 204.856 82.4385C204.735 82.2731 204.648 82.0848 204.601 81.8849L205.453 79.5799Z" fill="#D3766A"/>
<path d="M208.352 79.0625C208.352 79.0625 208.352 79.0978 208.352 79.1037C207.252 79.3624 206.588 80.2444 206 81.1793C206.076 81.0851 206.172 81.0086 206.281 80.9549C206.39 80.9012 206.509 80.8717 206.63 80.8684C206.751 80.865 206.872 80.8879 206.983 80.9355C207.095 80.9831 207.195 81.0542 207.276 81.144C207.279 81.1497 207.281 81.1563 207.281 81.1629C207.281 81.1696 207.279 81.176 207.275 81.1816C207.271 81.1871 207.266 81.1915 207.26 81.1942C207.254 81.1969 207.247 81.1979 207.241 81.1969C207.067 81.1108 206.871 81.0804 206.68 81.1099C206.488 81.1393 206.31 81.2272 206.171 81.3616C205.948 81.5906 205.751 81.8429 205.583 82.1142C205.518 82.1965 205.359 82.1142 205.412 82.0201C205.6 80.6736 206.911 78.9743 208.352 79.0625Z" fill="#263238"/>
<path d="M197.492 90.552L199.991 95.4971L205.8 88.4411L207.782 90.3638C207.782 90.3638 202.448 101.201 202.366 100.742L199.873 96.5084L197.092 99.8424L196.668 92.1102L197.492 90.552Z" fill="#EBEBEB"/>
<path d="M196.668 96.0498C196.639 94.768 196.58 93.4803 196.61 92.2043C196.61 92.1573 196.68 92.1337 196.698 92.2043C197.056 93.4097 197.133 98.3019 197.239 99.4661C197.356 99.3191 199.832 96.5261 199.861 96.5261C200.379 97.1847 202.213 100.266 202.337 100.554C203.183 98.831 206.453 92.5571 207.47 90.9107C207.505 90.8637 207.576 90.9107 207.552 90.946C206.835 92.7511 202.531 101.189 202.454 101.171C201.505 99.7275 200.633 98.2338 199.844 96.6966C199.432 97.2846 196.962 100.43 196.933 100.225C196.772 98.8386 196.684 97.4451 196.668 96.0498Z" fill="#263238"/>
<path d="M211.991 114.295L212.479 111.955L214.778 112.602L209.869 104.511L207.082 106.199L211.991 114.295Z" fill="#37474F"/>
<path d="M212.238 108.415L209.722 110.55L207.082 106.199L209.869 104.505L212.238 108.415Z" fill="#263238"/>
<path d="M206.382 114.813L205.382 112.649L203.289 113.802L206.241 104.805L209.334 105.816L206.382 114.813Z" fill="#37474F"/>
<path d="M204.812 109.145L207.746 110.656L209.334 105.822L206.241 104.799L204.812 109.145Z" fill="#263238"/>
<path d="M207.023 99.86L207.811 100.23L208.593 99.8542L209.222 100.448L210.086 100.33L210.498 101.095L211.356 101.248L211.515 102.1L212.28 102.512L212.168 103.37L212.773 103.994L212.403 104.782L212.779 105.564L212.185 106.193L212.303 107.051L211.539 107.469L211.386 108.321L210.533 108.486L210.122 109.25L209.263 109.139L208.634 109.738L207.852 109.368L207.07 109.75L206.441 109.15L205.582 109.268L205.165 108.51L204.306 108.357L204.147 107.504L203.383 107.092L203.495 106.234L202.895 105.605L203.265 104.823L202.883 104.041L203.483 103.412L203.36 102.547L204.124 102.13L204.277 101.277L205.129 101.118L205.541 100.354L206.4 100.46L207.023 99.86Z" fill="#37474F"/>
<path d="M211.68 104.176C211.803 104.933 211.698 105.71 211.379 106.408C211.06 107.106 210.542 107.694 209.889 108.097C209.236 108.5 208.479 108.701 207.712 108.674C206.945 108.647 206.203 108.393 205.581 107.944C204.958 107.496 204.483 106.873 204.214 106.154C203.945 105.436 203.896 104.653 204.071 103.907C204.247 103.16 204.64 102.482 205.201 101.958C205.762 101.435 206.466 101.089 207.223 100.965C207.727 100.882 208.242 100.9 208.739 101.016C209.236 101.133 209.705 101.346 210.119 101.645C210.533 101.943 210.884 102.32 211.152 102.754C211.42 103.189 211.599 103.672 211.68 104.176Z" fill="#3362CC"/>
<path d="M146.982 126.62L144.901 127.002L144.436 129.201L143.966 127.002L141.884 126.62L143.96 126.108L144.436 124.033L144.907 126.108L146.982 126.62Z" fill="#3362CC"/>
<path d="M132.188 82.861L130.101 83.2432L129.636 85.4423L129.172 83.2432L127.084 82.8551L129.16 82.3494L129.636 80.2738L130.113 82.3494L132.188 82.861Z" fill="#3362CC"/>
<path d="M112.037 122.422L109.956 122.804L109.491 125.003L109.021 122.804L106.939 122.416L109.015 121.91L109.491 119.834L109.962 121.91L112.037 122.422Z" fill="#3362CC"/>
<path d="M178.958 101.942L177.794 102.153L177.535 103.382L177.27 102.153L176.106 101.936L177.264 101.653L177.535 100.495L177.799 101.653L178.958 101.942Z" fill="#3362CC"/>
<path d="M132.282 134.899L131.118 135.117L130.859 136.345L130.594 135.117L129.43 134.899L130.594 134.617L130.859 133.458L131.124 134.617L132.282 134.899Z" fill="#3362CC"/>
<path d="M151.057 84.4015L149.893 84.6191L149.628 85.848L149.369 84.6191L148.205 84.4015L149.363 84.1193L149.628 82.9609L149.899 84.1193L151.057 84.4015Z" fill="#3362CC"/>
<path d="M173.783 116.73L172.619 116.947L172.36 118.176L172.102 116.947L170.932 116.73L172.096 116.448L172.36 115.289L172.625 116.448L173.783 116.73Z" fill="#3362CC"/>
<path d="M113.278 94.0271L112.114 94.2446L111.855 95.4736L111.596 94.2446L110.432 94.0271L111.59 93.7448L111.855 92.5865L112.12 93.7448L113.278 94.0271Z" fill="#3362CC"/>
<path d="M159.5 124.58C159.418 124.59 159.343 124.631 159.289 124.693C159.234 124.755 159.204 124.835 159.204 124.918C159.204 125 159.234 125.08 159.289 125.142C159.343 125.205 159.418 125.245 159.5 125.256C159.582 125.245 159.658 125.205 159.712 125.142C159.767 125.08 159.797 125 159.797 124.918C159.797 124.835 159.767 124.755 159.712 124.693C159.658 124.631 159.582 124.59 159.5 124.58Z" fill="#3362CC"/>
<path d="M117.088 75.511C117.006 75.5218 116.931 75.5621 116.877 75.6243C116.822 75.6865 116.792 75.7663 116.792 75.8491C116.792 75.9318 116.822 76.0117 116.877 76.0739C116.931 76.136 117.006 76.1763 117.088 76.1872C117.17 76.1763 117.246 76.136 117.3 76.0739C117.355 76.0117 117.385 75.9318 117.385 75.8491C117.385 75.7663 117.355 75.6865 117.3 75.6243C117.246 75.5621 117.17 75.5218 117.088 75.511Z" fill="#3362CC"/>
<path d="M170.932 92.316C170.85 92.3268 170.774 92.3671 170.72 92.4293C170.665 92.4915 170.635 92.5714 170.635 92.6541C170.635 92.7368 170.665 92.8167 170.72 92.8789C170.774 92.9411 170.85 92.9814 170.932 92.9922C171.014 92.9814 171.089 92.9411 171.143 92.8789C171.198 92.8167 171.228 92.7368 171.228 92.6541C171.228 92.5714 171.198 92.4915 171.143 92.4293C171.089 92.3671 171.014 92.3268 170.932 92.316Z" fill="#3362CC"/>
<path d="M98.5898 100.989C98.533 100.998 98.4814 101.027 98.444 101.071C98.4067 101.114 98.3862 101.17 98.3862 101.227C98.3862 101.285 98.4067 101.34 98.444 101.384C98.4814 101.427 98.533 101.456 98.5898 101.465C98.6465 101.456 98.6982 101.427 98.7355 101.384C98.7728 101.34 98.7933 101.285 98.7933 101.227C98.7933 101.17 98.7728 101.114 98.7355 101.071C98.6982 101.027 98.6465 100.998 98.5898 100.989Z" fill="#3362CC"/>
<path d="M136.716 132.141C136.659 132.15 136.607 132.179 136.57 132.223C136.533 132.266 136.512 132.322 136.512 132.379C136.512 132.437 136.533 132.492 136.57 132.536C136.607 132.58 136.659 132.609 136.716 132.618C136.772 132.609 136.824 132.58 136.861 132.536C136.899 132.492 136.919 132.437 136.919 132.379C136.919 132.322 136.899 132.266 136.861 132.223C136.824 132.179 136.772 132.15 136.716 132.141Z" fill="#3362CC"/>
<path d="M152.321 127.908C152.15 127.908 151.985 127.976 151.864 128.097C151.742 128.218 151.674 128.383 151.674 128.554C151.674 128.726 151.742 128.891 151.864 129.012C151.985 129.133 152.15 129.201 152.321 129.201C152.493 129.201 152.657 129.133 152.778 129.012C152.9 128.891 152.968 128.726 152.968 128.554C152.968 128.383 152.9 128.218 152.778 128.097C152.657 127.976 152.493 127.908 152.321 127.908Z" fill="#3362CC"/>
<path d="M136.48 78.2922C136.309 78.2922 136.144 78.3604 136.023 78.4817C135.902 78.603 135.833 78.7675 135.833 78.939C135.833 79.1106 135.902 79.2751 136.023 79.3964C136.144 79.5177 136.309 79.5858 136.48 79.5858C136.652 79.5858 136.816 79.5177 136.938 79.3964C137.059 79.2751 137.127 79.1106 137.127 78.939C137.127 78.7675 137.059 78.603 136.938 78.4817C136.816 78.3604 136.652 78.2922 136.48 78.2922Z" fill="#3362CC"/>
<path d="M123.192 127.908C123.02 127.908 122.856 127.976 122.734 128.097C122.613 128.218 122.545 128.383 122.545 128.554C122.545 128.726 122.613 128.891 122.734 129.012C122.856 129.133 123.02 129.201 123.192 129.201C123.363 129.201 123.528 129.133 123.649 129.012C123.77 128.891 123.839 128.726 123.839 128.554C123.839 128.383 123.77 128.218 123.649 128.097C123.528 127.976 123.363 127.908 123.192 127.908Z" fill="#3362CC"/>
</svg>
