<svg width="24" height="25" viewBox="0 0 24 25" fill="none" xmlns="http://www.w3.org/2000/svg">
<g clip-path="url(#clip0_1357_1709)">
<path d="M19.4451 10.5056H18.0431V6.94597C18.0431 3.39167 15.3335 0.5 12 0.5C8.66639 0.5 5.95689 3.39356 5.95689 6.95018V10.5056H4.57035C4.08992 10.5056 3.69238 10.9123 3.69238 11.4244V22.1794C3.69238 23.4575 4.67602 24.4963 5.87516 24.4963H18.1403C19.3395 24.4963 20.3076 23.4575 20.3076 22.1794V11.4244C20.3076 10.9123 19.9256 10.5056 19.4451 10.5056ZM7.69477 6.95018C7.69477 4.41602 9.62572 2.35432 12 2.35432C14.3742 2.35432 16.3052 4.41411 16.3052 6.94597V10.5056H7.69477V6.95018ZM18.5697 22.1794C18.5697 22.4351 18.3802 22.644 18.1403 22.644H5.87516C5.63533 22.644 5.43026 22.435 5.43026 22.1794V12.3579H18.5697V22.1794Z" fill="url(#paint0_linear_1357_1709)"/>
<path d="M12 20.2787C12.4805 20.2787 12.869 19.8636 12.869 19.3516V16.0138C12.869 15.5018 12.4805 15.0867 12 15.0867C11.5196 15.0867 11.1311 15.5018 11.1311 16.0138V19.3516C11.1311 19.8636 11.5196 20.2787 12 20.2787Z" fill="url(#paint1_linear_1357_1709)"/>
</g>
<defs>
<linearGradient id="paint0_linear_1357_1709" x1="12.3332" y1="0.788726" x2="12.7123" y2="24.4361" gradientUnits="userSpaceOnUse">
<stop stop-color="#061253"/>
<stop offset="0.250205" stop-color="#1E2F87"/>
<stop offset="0.477747" stop-color="#2254A2"/>
<stop offset="0.739199" stop-color="#133178"/>
<stop offset="0.995887" stop-color="#061253"/>
</linearGradient>
<linearGradient id="paint1_linear_1357_1709" x1="12.0349" y1="15.1491" x2="12.2044" y2="20.2614" gradientUnits="userSpaceOnUse">
<stop stop-color="#061253"/>
<stop offset="0.250205" stop-color="#1E2F87"/>
<stop offset="0.477747" stop-color="#2254A2"/>
<stop offset="0.739199" stop-color="#133178"/>
<stop offset="0.995887" stop-color="#061253"/>
</linearGradient>
<clipPath id="clip0_1357_1709">
<rect width="24" height="24" fill="white" transform="translate(0 0.5)"/>
</clipPath>
</defs>
</svg>
