<svg width="294" height="294" viewBox="0 0 294 294" fill="none" xmlns="http://www.w3.org/2000/svg">
<path d="M294 224.851H0V224.998H294V224.851Z" fill="#EBEBEB"/>
<path d="M264.541 234.312H232.066V234.459H264.541V234.312Z" fill="#EBEBEB"/>
<path d="M194.334 231.231H189.224V231.378H194.334V231.231Z" fill="#EBEBEB"/>
<path d="M230.296 228.855H219.012V229.002H230.296V228.855Z" fill="#EBEBEB"/>
<path d="M56.2422 229.843H30.8464V229.99H56.2422V229.843Z" fill="#EBEBEB"/>
<path d="M153.497 233.642H126.614V233.789H153.497V233.642Z" fill="#EBEBEB"/>
<path d="M137.674 231.155H82.5905V231.302H137.674V231.155Z" fill="#EBEBEB"/>
<path d="M142.719 195.269C142.719 195.71 142.632 196.147 142.463 196.555C142.294 196.963 142.046 197.333 141.734 197.645C141.422 197.957 141.051 198.204 140.643 198.373C140.235 198.541 139.797 198.627 139.356 198.626H25.8191C24.9297 198.625 24.0772 198.27 23.4488 197.641C22.8205 197.011 22.4675 196.158 22.4675 195.269V35.6681C22.4753 34.7837 22.8316 33.9382 23.4592 33.315C24.0867 32.6919 24.9348 32.3415 25.8191 32.34H139.356C140.247 32.34 141.101 32.6937 141.73 33.3234C142.36 33.953 142.714 34.807 142.714 35.6975M142.567 35.6975C142.57 35.2736 142.489 34.8533 142.329 34.4608C142.169 34.0682 141.933 33.7111 141.635 33.41C141.337 33.1089 140.982 32.8698 140.591 32.7064C140.199 32.5429 139.78 32.4584 139.356 32.4576H25.8191C24.9687 32.4592 24.1536 32.7981 23.5528 33.4C22.952 34.0019 22.6145 34.8176 22.6145 35.6681V195.269C22.6145 196.119 22.952 196.935 23.5528 197.537C24.1536 198.139 24.9687 198.478 25.8191 198.479H139.356C140.207 198.478 141.023 198.139 141.624 197.537C142.226 196.936 142.565 196.12 142.567 195.269" fill="#EBEBEB"/>
<path d="M266.546 198.626H153.003C152.113 198.625 151.26 198.271 150.631 197.641C150.002 197.012 149.648 196.159 149.646 195.269V35.6681C149.655 34.7832 150.013 33.9376 150.641 33.3147C151.27 32.6917 152.119 32.3415 153.003 32.34H266.546C267.43 32.3431 268.276 32.6941 268.902 33.3171C269.529 33.9401 269.884 34.7848 269.892 35.6681V195.269C269.892 196.157 269.54 197.01 268.913 197.639C268.286 198.268 267.435 198.623 266.546 198.626ZM153.003 32.4576C152.152 32.4592 151.337 32.7979 150.735 33.3996C150.133 34.0014 149.795 34.8171 149.793 35.6681V195.269C149.795 196.12 150.133 196.936 150.735 197.537C151.337 198.139 152.152 198.478 153.003 198.479H266.546C267.397 198.478 268.213 198.139 268.815 197.537C269.416 196.936 269.755 196.12 269.757 195.269V35.6681C269.755 34.8171 269.416 34.0014 268.815 33.3996C268.213 32.7979 267.397 32.4592 266.546 32.4576H153.003Z" fill="#EBEBEB"/>
<path d="M199.632 73.3824H160.618V118.617H199.632V73.3824Z" fill="#E6E6E6"/>
<path d="M202.354 73.3824H161.206V118.617H202.354V73.3824Z" fill="#F0F0F0"/>
<path d="M198.909 115.177V76.834H164.658V115.177H198.909Z" fill="white"/>
<path d="M190.112 104.664H181.222C179.071 104.661 177.009 103.805 175.489 102.284C173.969 100.762 173.115 98.7002 173.113 96.5496V87.6649C173.113 87.5776 173.148 87.4938 173.209 87.4321C173.271 87.3703 173.355 87.3356 173.442 87.3356H182.333C184.484 87.3372 186.547 88.1926 188.069 89.714C189.59 91.2354 190.446 93.2984 190.447 95.45V104.341C190.447 104.384 190.437 104.427 190.42 104.466C190.403 104.506 190.378 104.542 190.347 104.572C190.316 104.602 190.279 104.625 190.239 104.641C190.198 104.657 190.155 104.665 190.112 104.664ZM173.772 87.9942V96.5496C173.775 98.5245 174.561 100.418 175.957 101.814C177.354 103.211 179.247 103.996 181.222 104H189.783V95.45C189.781 93.4747 188.996 91.5806 187.599 90.1838C186.202 88.787 184.308 88.0016 182.333 88.0001L173.772 87.9942Z" fill="#F0F0F0"/>
<path d="M256.003 90.3874H211.333L215.29 57.6122H252.046L256.003 90.3874Z" fill="#EBEBEB"/>
<path d="M218.73 90.3815H218.013V102.935H218.73V90.3815Z" fill="#E0E0E0"/>
<path d="M218.371 103.794C218.846 103.794 219.23 103.409 219.23 102.935C219.23 102.461 218.846 102.077 218.371 102.077C217.897 102.077 217.513 102.461 217.513 102.935C217.513 103.409 217.897 103.794 218.371 103.794Z" fill="#E0E0E0"/>
<path d="M246.201 90.3874H238.522L236.893 57.6122H243.979L246.201 90.3874Z" fill="#F5F5F5"/>
<path d="M235.906 90.3815H231.437V224.845H235.906V90.3815Z" fill="#F0F0F0"/>
<path d="M240.739 224.851H226.598C226.598 224.052 226.915 223.286 227.479 222.72C228.043 222.155 228.809 221.836 229.608 221.835H237.728C238.527 221.836 239.293 222.155 239.858 222.72C240.422 223.286 240.739 224.052 240.739 224.851Z" fill="#F0F0F0"/>
<path d="M235.906 90.3815H231.437V93.1098H235.906V90.3815Z" fill="#E0E0E0"/>
<path d="M228.485 161.306C228.126 161.306 227.768 161.306 227.403 161.341C225.138 161.499 222.936 162.156 220.955 163.266C218.975 164.376 217.265 165.911 215.948 167.761C214.631 169.611 213.741 171.729 213.34 173.964C212.94 176.199 213.04 178.495 213.632 180.687C215.31 187.23 216.12 193.965 216.043 200.72V220.394C216.042 220.733 216.108 221.069 216.238 221.383C216.367 221.696 216.557 221.981 216.797 222.221C217.037 222.461 217.322 222.651 217.636 222.781C217.949 222.91 218.285 222.976 218.624 222.975H260.96V161.306H228.485Z" fill="#F0F0F0"/>
<path d="M276.36 176.682C276.359 174.492 275.891 172.327 274.986 170.333C274.082 168.338 272.761 166.56 271.114 165.116C269.467 163.673 267.53 162.598 265.434 161.964C263.337 161.329 261.13 161.15 258.958 161.438C256.787 161.725 254.702 162.473 252.843 163.631C250.985 164.79 249.394 166.331 248.179 168.154C246.964 169.976 246.153 172.037 245.798 174.198C245.444 176.36 245.555 178.572 246.125 180.687C247.802 187.23 248.613 193.965 248.536 200.72V220.394C248.535 220.733 248.601 221.069 248.731 221.383C248.86 221.696 249.05 221.981 249.29 222.221C249.53 222.461 249.815 222.651 250.128 222.781C250.442 222.91 250.778 222.976 251.117 222.975H270.839C271.523 222.975 272.18 222.704 272.664 222.219C273.148 221.735 273.42 221.079 273.42 220.394V199.567C273.353 193.231 274.144 186.916 275.772 180.792C276.154 179.455 276.352 178.073 276.36 176.682Z" fill="#F5F5F5"/>
<path d="M253.169 185.532H183.044V222.975H253.169V185.532Z" fill="#F0F0F0"/>
<path d="M209.234 136.475H157.49C155.999 136.448 154.519 136.739 153.148 137.328C151.778 137.917 150.549 138.79 149.542 139.891C148.536 140.992 147.775 142.294 147.31 143.711C146.845 145.128 146.688 146.628 146.847 148.111L150.787 193.975H225.792L221.852 148.111C221.535 144.964 220.076 142.043 217.751 139.899C215.426 137.755 212.396 136.536 209.234 136.475Z" fill="#E0E0E0"/>
<path d="M224.451 136.475H171.59C170.17 136.447 168.76 136.723 167.455 137.283C166.149 137.843 164.978 138.675 164.02 139.723C163.061 140.771 162.337 142.012 161.895 143.362C161.454 144.712 161.305 146.141 161.459 147.553L165.451 194.005H240.492L236.5 147.553C236.2 144.55 234.807 141.762 232.585 139.719C230.364 137.677 227.469 136.522 224.451 136.475Z" fill="#F5F5F5"/>
<path d="M184.197 182.115H251.982C253.003 182.115 253.983 182.521 254.705 183.243C255.427 183.966 255.833 184.945 255.833 185.967V193.511C255.833 194.532 255.427 195.512 254.705 196.234C253.983 196.956 253.003 197.362 251.982 197.362H184.197C183.885 197.362 183.586 197.238 183.365 197.018C183.145 196.797 183.021 196.498 183.021 196.186V183.25C183.032 182.945 183.16 182.657 183.38 182.445C183.599 182.233 183.892 182.115 184.197 182.115Z" fill="#E0E0E0"/>
<path d="M145.265 161.306C144.905 161.306 144.546 161.318 144.189 161.341C141.925 161.501 139.724 162.16 137.744 163.27C135.765 164.381 134.055 165.916 132.738 167.765C131.422 169.614 130.53 171.731 130.128 173.965C129.726 176.199 129.823 178.494 130.413 180.687C132.093 187.229 132.903 193.965 132.823 200.72V220.394C132.823 221.079 133.095 221.735 133.579 222.219C134.063 222.704 134.72 222.975 135.405 222.975H177.741V161.306H145.265Z" fill="#F0F0F0"/>
<path d="M193.123 176.682C193.116 174.496 192.643 172.336 191.736 170.347C190.828 168.358 189.507 166.585 187.86 165.146C186.214 163.708 184.279 162.637 182.186 162.005C180.093 161.373 177.889 161.195 175.722 161.482C173.554 161.769 171.473 162.514 169.616 163.669C167.76 164.824 166.171 166.361 164.955 168.179C163.74 169.996 162.925 172.052 162.567 174.208C162.208 176.365 162.314 178.574 162.876 180.687C164.556 187.229 165.367 193.965 165.287 200.72V220.394C165.287 220.734 165.354 221.07 165.484 221.383C165.614 221.697 165.805 221.982 166.045 222.221C166.285 222.461 166.571 222.651 166.884 222.781C167.198 222.91 167.535 222.976 167.874 222.975H187.59C187.929 222.976 188.265 222.91 188.578 222.781C188.892 222.651 189.177 222.461 189.417 222.221C189.656 221.981 189.847 221.696 189.976 221.383C190.106 221.069 190.172 220.733 190.171 220.394V199.567C190.115 193.23 190.919 186.914 192.558 180.792C192.93 179.454 193.119 178.071 193.123 176.682Z" fill="#F5F5F5"/>
<path d="M253.158 224.851H146.365C145.868 224.851 145.39 224.654 145.039 224.302C144.687 223.95 144.489 223.473 144.489 222.975H255.033C255.033 223.473 254.836 223.95 254.484 224.302C254.132 224.654 253.655 224.851 253.158 224.851Z" fill="#E0E0E0"/>
<path d="M40.0016 52.82H27.1127V224.851H40.0016V52.82Z" fill="#E6E6E6"/>
<path d="M39.9958 224.851H153.109L153.109 52.82H39.9958L39.9958 224.851Z" fill="#F5F5F5"/>
<path d="M150.998 224.851V55.3543L42.1126 55.3543L42.1126 224.851H150.998Z" fill="#E6E6E6"/>
<path d="M51.2266 224.851L51.2266 55.3543H42.1126L42.1126 224.851H51.2266Z" fill="#E0E0E0"/>
<path d="M152.145 194.634V192.105H42.1126V194.634H152.145Z" fill="#F5F5F5"/>
<path d="M152.145 159.119V156.59H42.1126V159.119H152.145Z" fill="#F5F5F5"/>
<path d="M152.145 123.609V121.075H42.1126V123.609H152.145Z" fill="#F5F5F5"/>
<path d="M152.145 88.0883V85.5599H42.1126V88.0883H152.145Z" fill="#F5F5F5"/>
<path d="M51.8145 85.5658H68.1786V61.4401H51.8145V85.5658Z" fill="#FAFAFA"/>
<path d="M69.9191 61.4342H66.7791C66.2855 61.4342 65.8854 61.8344 65.8854 62.328V84.6661C65.8854 85.1597 66.2855 85.5599 66.7791 85.5599H69.9191C70.4127 85.5599 70.8128 85.1597 70.8128 84.6661V62.328C70.8128 61.8344 70.4127 61.4342 69.9191 61.4342Z" fill="#F0F0F0"/>
<path d="M46.2992 85.5658H62.6632V61.4401H46.2992V85.5658Z" fill="#FAFAFA"/>
<path d="M64.4154 61.4342H61.2755C60.7819 61.4342 60.3817 61.8344 60.3817 62.328V84.6661C60.3817 85.1597 60.7819 85.5599 61.2755 85.5599H64.4154C64.909 85.5599 65.3092 85.1597 65.3092 84.6661V62.328C65.3092 61.8344 64.909 61.4342 64.4154 61.4342Z" fill="#E6E6E6"/>
<path d="M42.1125 61.4342H56.2363L55.1132 85.5658H42.1125V61.4342Z" fill="#FAFAFA"/>
<path d="M58.0591 61.4342H54.7604C54.5203 61.458 54.2982 61.5719 54.1388 61.7531C53.9795 61.9343 53.8948 62.1691 53.902 62.4103L52.8671 84.5897C52.8515 84.7047 52.8592 84.8216 52.8898 84.9335C52.9204 85.0455 52.9732 85.1501 53.0451 85.2412C53.117 85.3323 53.2065 85.4079 53.3082 85.4637C53.41 85.5195 53.5219 85.5542 53.6374 85.5658H56.936C57.1751 85.5394 57.3956 85.4247 57.5545 85.2441C57.7133 85.0635 57.7989 84.8301 57.7945 84.5897L58.8294 62.4103C58.8458 62.2952 58.8387 62.178 58.8085 62.0657C58.7782 61.9534 58.7255 61.8485 58.6534 61.7572C58.5814 61.6659 58.4916 61.5902 58.3894 61.5347C58.2873 61.4792 58.1749 61.445 58.0591 61.4342Z" fill="#F0F0F0"/>
<path d="M127.49 85.5599H139.897V65.1916H127.49V85.5599Z" fill="#FAFAFA"/>
<path d="M141.185 65.1974H138.874C138.481 65.1974 138.162 65.516 138.162 65.9089V84.8543C138.162 85.2472 138.481 85.5658 138.874 85.5658H141.185C141.578 85.5658 141.896 85.2472 141.896 84.8543V65.9089C141.896 65.516 141.578 65.1974 141.185 65.1974Z" fill="#F0F0F0"/>
<path d="M123.31 85.5599H135.716V65.1916H123.31V85.5599Z" fill="#FAFAFA"/>
<path d="M137.01 65.1974H134.699C134.306 65.1974 133.988 65.516 133.988 65.9089V84.8543C133.988 85.2472 134.306 85.5658 134.699 85.5658H137.01C137.403 85.5658 137.721 85.2472 137.721 84.8543V65.9089C137.721 65.516 137.403 65.1974 137.01 65.1974Z" fill="#E6E6E6"/>
<path d="M120.134 65.1974H130.842L129.989 85.5658H120.134V65.1974Z" fill="#FAFAFA"/>
<path d="M132.224 65.1974H129.725C129.383 65.1974 129.095 65.5679 129.072 66.0206L128.29 84.7426C128.29 85.1953 128.531 85.5658 128.878 85.5658H131.383C131.724 85.5658 132.012 85.1953 132.029 84.7426L132.817 66.0206C132.829 65.5679 132.565 65.1974 132.224 65.1974Z" fill="#F0F0F0"/>
<path d="M111.491 85.5599H123.897V65.1916H111.491V85.5599Z" fill="#FAFAFA"/>
<path d="M125.185 65.1974H122.874C122.481 65.1974 122.163 65.516 122.163 65.9089V84.8543C122.163 85.2472 122.481 85.5658 122.874 85.5658H125.185C125.578 85.5658 125.897 85.2472 125.897 84.8543V65.9089C125.897 65.516 125.578 65.1974 125.185 65.1974Z" fill="#F0F0F0"/>
<path d="M107.316 85.5599H119.723V65.1916H107.316V85.5599Z" fill="#FAFAFA"/>
<path d="M121.01 65.1974H118.7C118.307 65.1974 117.988 65.516 117.988 65.9089V84.8543C117.988 85.2472 118.307 85.5658 118.7 85.5658H121.01C121.403 85.5658 121.722 85.2472 121.722 84.8543V65.9089C121.722 65.516 121.403 65.1974 121.01 65.1974Z" fill="#E6E6E6"/>
<path d="M104.141 65.1974H114.842L113.996 85.5658H104.141V65.1974Z" fill="#FAFAFA"/>
<path d="M116.23 65.1974H113.725C113.384 65.1974 113.096 65.5679 113.078 66.0206L112.308 84.7426C112.308 85.1953 112.555 85.5658 112.896 85.5658H115.395C115.736 85.5658 116.024 85.1953 116.048 84.7426L116.83 66.0206C116.83 65.5679 116.571 65.1974 116.23 65.1974Z" fill="#F0F0F0"/>
<path d="M88.1177 85.5658H96.7672V63.6745H88.1177V85.5658Z" fill="#FAFAFA"/>
<path d="M97.5492 63.6686H96.1792C95.8382 63.6686 95.5618 63.9451 95.5618 64.286V84.9425C95.5618 85.2835 95.8382 85.5599 96.1792 85.5599H97.5492C97.8902 85.5599 98.1666 85.2835 98.1666 84.9425V64.286C98.1666 63.9451 97.8902 63.6686 97.5492 63.6686Z" fill="#F0F0F0"/>
<path d="M80.9147 85.5658H90.4462V61.4401H80.9147V85.5658Z" fill="#FAFAFA"/>
<path d="M91.3047 61.4342H89.7994C89.4227 61.4342 89.1173 61.7396 89.1173 62.1163V84.8778C89.1173 85.2545 89.4227 85.5599 89.7994 85.5599H91.3047C91.6814 85.5599 91.9868 85.2545 91.9868 84.8778V62.1163C91.9868 61.7396 91.6814 61.4342 91.3047 61.4342Z" fill="#F5F5F5"/>
<path d="M78.4745 61.4342H86.7006L86.0479 85.5658H78.4745V61.4342Z" fill="#FAFAFA"/>
<path d="M87.7649 61.4342H85.8481C85.5893 61.4342 85.36 61.8694 85.3483 62.4103L84.7603 84.5897C84.7603 85.1248 84.9425 85.5658 85.2071 85.5658H87.1299C87.3886 85.5658 87.6121 85.1248 87.6297 84.5897L88.2177 62.4103C88.2001 61.8694 88.0237 61.4342 87.7649 61.4342Z" fill="#F0F0F0"/>
<path d="M95.3795 121.081H111.744V96.9553H95.3795V121.081Z" fill="#FAFAFA"/>
<path d="M113.49 96.9494H110.35C109.856 96.9494 109.456 97.3496 109.456 97.8432V120.181C109.456 120.675 109.856 121.075 110.35 121.075H113.49C113.983 121.075 114.384 120.675 114.384 120.181V97.8432C114.384 97.3496 113.983 96.9494 113.49 96.9494Z" fill="#F0F0F0"/>
<path d="M89.8758 121.081H106.24V96.9553H89.8758V121.081Z" fill="#FAFAFA"/>
<path d="M107.98 96.9494H104.84C104.347 96.9494 103.947 97.3496 103.947 97.8432V120.181C103.947 120.675 104.347 121.075 104.84 121.075H107.98C108.474 121.075 108.874 120.675 108.874 120.181V97.8432C108.874 97.3496 108.474 96.9494 107.98 96.9494Z" fill="#E6E6E6"/>
<path d="M85.6833 96.9494H99.8012L98.6782 121.081H85.6833V96.9494Z" fill="#FAFAFA"/>
<path d="M101.63 96.9494H98.3312C98.0911 96.9732 97.8689 97.0871 97.7096 97.2683C97.5502 97.4494 97.4656 97.6843 97.4727 97.9255L96.432 120.105C96.4155 120.22 96.4226 120.337 96.4529 120.449C96.4831 120.562 96.5359 120.667 96.6079 120.758C96.6799 120.849 96.7698 120.925 96.8719 120.98C96.9741 121.036 97.0865 121.07 97.2022 121.081H100.501C100.74 121.055 100.961 120.94 101.119 120.759C101.278 120.579 101.364 120.345 101.359 120.105L102.388 97.9255C102.406 97.8112 102.4 97.6945 102.37 97.5826C102.341 97.4708 102.29 97.366 102.219 97.2747C102.148 97.1834 102.059 97.1074 101.958 97.0515C101.856 96.9956 101.745 96.9609 101.63 96.9494Z" fill="#F0F0F0"/>
<path d="M120.464 121.075H130.489V100.707H120.464V121.075Z" fill="#FAFAFA"/>
<path d="M131.465 100.713H129.73C129.376 100.713 129.089 101 129.089 101.354V120.44C129.089 120.794 129.376 121.081 129.73 121.081H131.465C131.819 121.081 132.106 120.794 132.106 120.44V101.354C132.106 101 131.819 100.713 131.465 100.713Z" fill="#F0F0F0"/>
<path d="M117.088 121.075H127.114V100.707H117.088V121.075Z" fill="#FAFAFA"/>
<path d="M128.09 100.713H126.355C126.001 100.713 125.714 101 125.714 101.354V120.44C125.714 120.794 126.001 121.081 126.355 121.081H128.09C128.444 121.081 128.731 120.794 128.731 120.44V101.354C128.731 101 128.444 100.713 128.09 100.713Z" fill="#E6E6E6"/>
<path d="M114.519 100.713H123.174L122.486 121.081H114.519V100.713Z" fill="#FAFAFA"/>
<path d="M124.291 100.713H122.269C121.992 100.713 121.757 101.083 121.745 101.536L121.128 120.258C121.128 120.711 121.322 121.081 121.598 121.081H123.621C123.898 121.081 124.133 120.711 124.144 120.258L124.78 101.536C124.78 101.083 124.568 100.713 124.291 100.713Z" fill="#F0F0F0"/>
<path d="M137.192 121.081H145.495V104.211H137.192V121.081Z" fill="#FAFAFA"/>
<path d="M146.3 104.205H144.86C144.567 104.205 144.33 104.442 144.33 104.735V120.546C144.33 120.838 144.567 121.075 144.86 121.075H146.3C146.593 121.075 146.829 120.838 146.829 120.546V104.735C146.829 104.442 146.593 104.205 146.3 104.205Z" fill="#F0F0F0"/>
<path d="M134.393 121.081H142.696V104.211H134.393V121.081Z" fill="#FAFAFA"/>
<path d="M143.507 104.205H142.067C141.774 104.205 141.537 104.442 141.537 104.735V120.546C141.537 120.838 141.774 121.075 142.067 121.075H143.507C143.8 121.075 144.036 120.838 144.036 120.546V104.735C144.036 104.442 143.8 104.205 143.507 104.205Z" fill="#E6E6E6"/>
<path d="M132.265 104.205H139.432L138.862 121.081H132.265V104.205Z" fill="#FAFAFA"/>
<path d="M140.362 104.205H138.686C138.456 104.205 138.262 104.511 138.251 104.887L137.727 120.399C137.727 120.775 137.886 121.081 138.115 121.081H139.791C140.015 121.081 140.215 120.775 140.226 120.399L140.75 104.887C140.761 104.511 140.585 104.205 140.362 104.205Z" fill="#F0F0F0"/>
<path d="M69.1487 121.075H81.5555V100.707H69.1487V121.075Z" fill="#FAFAFA"/>
<path d="M82.8492 100.713H80.5384C80.1454 100.713 79.8269 101.031 79.8269 101.424V120.369C79.8269 120.762 80.1454 121.081 80.5384 121.081H82.8492C83.2422 121.081 83.5607 120.762 83.5607 120.369V101.424C83.5607 101.031 83.2422 100.713 82.8492 100.713Z" fill="#F0F0F0"/>
<path d="M64.9799 121.075H77.3867V100.707H64.9799V121.075Z" fill="#FAFAFA"/>
<path d="M78.6686 100.713H76.3577C75.9648 100.713 75.6462 101.031 75.6462 101.424V120.369C75.6462 120.762 75.9648 121.081 76.3577 121.081H78.6686C79.0615 121.081 79.38 120.762 79.38 120.369V101.424C79.38 101.031 79.0615 100.713 78.6686 100.713Z" fill="#E6E6E6"/>
<path d="M61.7988 100.713H72.5063L71.6537 121.081H61.7988V100.713Z" fill="#FAFAFA"/>
<path d="M73.8881 100.713H71.3891C71.1976 100.744 71.0246 100.846 70.904 100.998C70.7833 101.15 70.7236 101.342 70.7364 101.536L69.972 120.258C69.972 120.711 70.2131 121.081 70.56 121.081H73.059C73.2506 121.049 73.4236 120.947 73.5442 120.795C73.6648 120.643 73.7246 120.452 73.7117 120.258L74.4938 101.536C74.4938 101.083 74.2292 100.713 73.8881 100.713Z" fill="#F0F0F0"/>
<path d="M51.7558 121.081H60.4053V99.1897H51.7558V121.081Z" fill="#FAFAFA"/>
<path d="M61.1814 99.1838H59.8114C59.4704 99.1838 59.194 99.4603 59.194 99.8012V120.458C59.194 120.799 59.4704 121.075 59.8114 121.075H61.1814C61.5224 121.075 61.7988 120.799 61.7988 120.458V99.8012C61.7988 99.4603 61.5224 99.1838 61.1814 99.1838Z" fill="#F0F0F0"/>
<path d="M44.5527 121.081H54.0842V96.9553H44.5527V121.081Z" fill="#FAFAFA"/>
<path d="M54.9369 96.9494H53.4316C53.0549 96.9494 52.7495 97.2548 52.7495 97.6315V120.393C52.7495 120.77 53.0549 121.075 53.4316 121.075H54.9369C55.3136 121.075 55.619 120.77 55.619 120.393V97.6315C55.619 97.2548 55.3136 96.9494 54.9369 96.9494Z" fill="#F5F5F5"/>
<path d="M42.1125 96.9494H50.3387L49.686 121.081H42.1125V96.9494Z" fill="#FAFAFA"/>
<path d="M51.403 96.9494H49.4803C49.2157 96.9494 48.9922 97.3845 48.9805 97.9255L48.3925 120.105C48.3925 120.64 48.5806 121.081 48.8452 121.081H50.7445C51.0091 121.081 51.2325 120.64 51.2443 120.105L51.8323 97.9255C51.8617 97.3845 51.6617 96.9494 51.403 96.9494Z" fill="#F0F0F0"/>
<path d="M51.8145 156.596H68.1786V132.471H51.8145V156.596Z" fill="#FAFAFA"/>
<path d="M69.9191 132.465H66.7791C66.2855 132.465 65.8854 132.865 65.8854 133.358V155.697C65.8854 156.19 66.2855 156.59 66.7791 156.59H69.9191C70.4127 156.59 70.8128 156.19 70.8128 155.697V133.358C70.8128 132.865 70.4127 132.465 69.9191 132.465Z" fill="#F0F0F0"/>
<path d="M46.2992 156.596H62.6632V132.471H46.2992V156.596Z" fill="#FAFAFA"/>
<path d="M64.4154 132.465H61.2755C60.7819 132.465 60.3817 132.865 60.3817 133.358V155.697C60.3817 156.19 60.7819 156.59 61.2755 156.59H64.4154C64.909 156.59 65.3092 156.19 65.3092 155.697V133.358C65.3092 132.865 64.909 132.465 64.4154 132.465Z" fill="#E6E6E6"/>
<path d="M42.1125 132.465H56.2363L55.1132 156.596H42.1125V132.465Z" fill="#FAFAFA"/>
<path d="M58.0591 132.465H54.7604C54.5203 132.488 54.2982 132.602 54.1388 132.783C53.9795 132.965 53.8948 133.2 53.902 133.441L52.8671 155.62C52.8515 155.735 52.8592 155.852 52.8898 155.964C52.9204 156.076 52.9732 156.18 53.0451 156.272C53.117 156.363 53.2065 156.438 53.3082 156.494C53.41 156.55 53.5219 156.585 53.6374 156.596H56.936C57.1751 156.57 57.3956 156.455 57.5545 156.275C57.7133 156.094 57.7989 155.861 57.7945 155.62L58.8294 133.441C58.8458 133.326 58.8387 133.208 58.8085 133.096C58.7782 132.984 58.7255 132.879 58.6534 132.788C58.5814 132.696 58.4916 132.621 58.3894 132.565C58.2873 132.51 58.1749 132.475 58.0591 132.465Z" fill="#F0F0F0"/>
<path d="M127.49 156.59H139.897V136.222H127.49V156.59Z" fill="#FAFAFA"/>
<path d="M141.185 136.228H138.874C138.481 136.228 138.162 136.546 138.162 136.939V155.885C138.162 156.278 138.481 156.596 138.874 156.596H141.185C141.578 156.596 141.896 156.278 141.896 155.885V136.939C141.896 136.546 141.578 136.228 141.185 136.228Z" fill="#F0F0F0"/>
<path d="M123.31 156.59H135.716V136.222H123.31V156.59Z" fill="#FAFAFA"/>
<path d="M137.01 136.228H134.699C134.306 136.228 133.988 136.546 133.988 136.939V155.885C133.988 156.278 134.306 156.596 134.699 156.596H137.01C137.403 156.596 137.721 156.278 137.721 155.885V136.939C137.721 136.546 137.403 136.228 137.01 136.228Z" fill="#E6E6E6"/>
<path d="M120.134 136.228H130.842L129.989 156.596H120.134V136.228Z" fill="#FAFAFA"/>
<path d="M132.224 136.228H129.725C129.383 136.228 129.095 136.598 129.072 137.051L128.29 155.773C128.29 156.226 128.531 156.596 128.878 156.596H131.383C131.724 156.596 132.012 156.226 132.029 155.773L132.817 137.051C132.829 136.598 132.565 136.228 132.224 136.228Z" fill="#F0F0F0"/>
<path d="M111.491 156.59H123.897V136.222H111.491V156.59Z" fill="#FAFAFA"/>
<path d="M125.185 136.228H122.874C122.481 136.228 122.163 136.546 122.163 136.939V155.885C122.163 156.278 122.481 156.596 122.874 156.596H125.185C125.578 156.596 125.897 156.278 125.897 155.885V136.939C125.897 136.546 125.578 136.228 125.185 136.228Z" fill="#F0F0F0"/>
<path d="M107.316 156.59H119.723V136.222H107.316V156.59Z" fill="#FAFAFA"/>
<path d="M121.01 136.228H118.7C118.307 136.228 117.988 136.546 117.988 136.939V155.885C117.988 156.278 118.307 156.596 118.7 156.596H121.01C121.403 156.596 121.722 156.278 121.722 155.885V136.939C121.722 136.546 121.403 136.228 121.01 136.228Z" fill="#E6E6E6"/>
<path d="M104.141 136.228H114.842L113.996 156.596H104.141V136.228Z" fill="#FAFAFA"/>
<path d="M116.23 136.228H113.725C113.384 136.228 113.096 136.598 113.078 137.051L112.308 155.773C112.308 156.226 112.555 156.596 112.896 156.596H115.395C115.736 156.596 116.024 156.226 116.048 155.773L116.83 137.051C116.83 136.598 116.571 136.228 116.23 136.228Z" fill="#F0F0F0"/>
<path d="M88.1177 156.596H96.7672V134.705H88.1177V156.596Z" fill="#FAFAFA"/>
<path d="M97.5492 134.699H96.1792C95.8382 134.699 95.5618 134.975 95.5618 135.316V155.973C95.5618 156.314 95.8382 156.59 96.1792 156.59H97.5492C97.8902 156.59 98.1666 156.314 98.1666 155.973V135.316C98.1666 134.975 97.8902 134.699 97.5492 134.699Z" fill="#F0F0F0"/>
<path d="M80.9147 156.596H90.4462V132.471H80.9147V156.596Z" fill="#FAFAFA"/>
<path d="M91.3047 132.465H89.7994C89.4227 132.465 89.1173 132.77 89.1173 133.147V155.908C89.1173 156.285 89.4227 156.59 89.7994 156.59H91.3047C91.6814 156.59 91.9868 156.285 91.9868 155.908V133.147C91.9868 132.77 91.6814 132.465 91.3047 132.465Z" fill="#F5F5F5"/>
<path d="M78.4745 132.465H86.7006L86.0479 156.596H78.4745V132.465Z" fill="#FAFAFA"/>
<path d="M87.7649 132.465H85.8481C85.5893 132.465 85.36 132.9 85.3483 133.441L84.7603 155.62C84.7603 156.155 84.9425 156.596 85.2071 156.596H87.1299C87.3886 156.596 87.6121 156.155 87.6297 155.62L88.2177 133.441C88.2001 132.888 88.0237 132.465 87.7649 132.465Z" fill="#F0F0F0"/>
<path d="M48.3219 224.851H58.8059V200.726H48.3219V224.851Z" fill="#FAFAFA"/>
<path d="M59.7879 200.72H58.0533C57.6603 200.72 57.3418 201.038 57.3418 201.431V224.134C57.3418 224.527 57.6603 224.845 58.0533 224.845H59.7879C60.1808 224.845 60.4994 224.527 60.4994 224.134V201.431C60.4994 201.038 60.1808 200.72 59.7879 200.72Z" fill="#F0F0F0"/>
<path d="M44.7998 224.851H55.2838V200.726H44.7998V224.851Z" fill="#FAFAFA"/>
<path d="M56.2598 200.72H54.5252C54.1323 200.72 53.8137 201.038 53.8137 201.431V224.134C53.8137 224.527 54.1323 224.845 54.5252 224.845H56.2598C56.6527 224.845 56.9713 224.527 56.9713 224.134V201.431C56.9713 201.038 56.6527 200.72 56.2598 200.72Z" fill="#E6E6E6"/>
<path d="M42.1125 200.726H51.156L50.4386 224.851H42.1125V200.726Z" fill="#FAFAFA"/>
<path d="M52.332 200.72H50.2152C49.9271 200.72 49.6801 201.161 49.6625 201.696L49.0039 223.875C49.0039 224.416 49.2097 224.851 49.4978 224.851H51.6087C51.8969 224.851 52.1438 224.416 52.1615 223.875L52.82 201.684C52.8377 201.161 52.6142 200.72 52.332 200.72Z" fill="#F0F0F0"/>
<path d="M136.04 224.851H146.971V204.483H136.04V224.851Z" fill="#FAFAFA"/>
<path d="M148.064 204.483H146.112C145.742 204.483 145.442 204.783 145.442 205.153V224.181C145.442 224.551 145.742 224.851 146.112 224.851H148.064C148.434 224.851 148.735 224.551 148.735 224.181V205.153C148.735 204.783 148.434 204.483 148.064 204.483Z" fill="#F0F0F0"/>
<path d="M132.359 224.851H143.29V204.483H132.359V224.851Z" fill="#FAFAFA"/>
<path d="M144.383 204.483H142.431C142.061 204.483 141.761 204.783 141.761 205.153V224.181C141.761 224.551 142.061 224.851 142.431 224.851H144.383C144.754 224.851 145.054 224.551 145.054 224.181V205.153C145.054 204.783 144.754 204.483 144.383 204.483Z" fill="#E6E6E6"/>
<path d="M129.56 204.483H138.991L138.239 224.851H129.56V204.483Z" fill="#FAFAFA"/>
<path d="M140.214 204.483H138.009C137.71 204.483 137.421 204.853 137.421 205.306L136.745 224.028C136.745 224.481 136.957 224.851 137.257 224.851H139.462C139.762 224.851 140.02 224.481 140.05 224.028L140.738 205.306C140.744 204.853 140.532 204.483 140.214 204.483Z" fill="#F0F0F0"/>
<path d="M121.939 224.851H132.87V204.483H121.939V224.851Z" fill="#FAFAFA"/>
<path d="M133.964 204.483H132.012C131.642 204.483 131.342 204.783 131.342 205.153V224.181C131.342 224.551 131.642 224.851 132.012 224.851H133.964C134.334 224.851 134.634 224.551 134.634 224.181V205.153C134.634 204.783 134.334 204.483 133.964 204.483Z" fill="#F0F0F0"/>
<path d="M118.259 224.851H129.189V204.483H118.259V224.851Z" fill="#FAFAFA"/>
<path d="M130.283 204.483H128.331C127.961 204.483 127.661 204.783 127.661 205.153V224.181C127.661 224.551 127.961 224.851 128.331 224.851H130.283C130.653 224.851 130.953 224.551 130.953 224.181V205.153C130.953 204.783 130.653 204.483 130.283 204.483Z" fill="#E6E6E6"/>
<path d="M115.46 204.483H124.891L124.144 224.851H115.46V204.483Z" fill="#FAFAFA"/>
<path d="M126.114 204.483H123.909C123.609 204.483 123.351 204.853 123.321 205.306L122.645 224.028C122.645 224.481 122.857 224.851 123.157 224.851H125.362C125.661 224.851 125.95 224.481 125.95 224.028L126.638 205.306C126.643 204.853 126.42 204.483 126.114 204.483Z" fill="#F0F0F0"/>
<path d="M110.714 224.851H118.335V202.96H110.714V224.851Z" fill="#FAFAFA"/>
<path d="M117.853 202.96H118.988C119.144 202.96 119.293 203.022 119.404 203.132C119.514 203.242 119.576 203.392 119.576 203.548V224.281C119.576 224.437 119.514 224.586 119.404 224.697C119.293 224.807 119.144 224.869 118.988 224.869H117.853C117.697 224.869 117.547 224.807 117.437 224.697C117.327 224.586 117.265 224.437 117.265 224.281V203.536C117.268 203.382 117.331 203.236 117.441 203.128C117.551 203.02 117.699 202.96 117.853 202.96Z" fill="#F0F0F0"/>
<path d="M104.37 224.851H112.767V200.726H104.37V224.851Z" fill="#FAFAFA"/>
<path d="M113.478 200.72H112.231C111.878 200.72 111.591 201.007 111.591 201.361V224.204C111.591 224.558 111.878 224.845 112.231 224.845H113.478C113.832 224.845 114.119 224.558 114.119 224.204V201.361C114.119 201.007 113.832 200.72 113.478 200.72Z" fill="#F5F5F5"/>
<path d="M102.218 200.726H109.468L108.892 224.851H102.218V200.726Z" fill="#FAFAFA"/>
<path d="M110.403 200.72H108.709C108.48 200.72 108.28 201.161 108.268 201.696L107.739 223.875C107.739 224.416 107.904 224.851 108.133 224.851H109.827C110.056 224.851 110.256 224.416 110.268 223.875L110.797 201.696C110.809 201.161 110.632 200.72 110.403 200.72Z" fill="#F0F0F0"/>
<path d="M95.3795 192.111H111.744V167.986H95.3795V192.111Z" fill="#FAFAFA"/>
<path d="M113.49 167.98H110.35C109.856 167.98 109.456 168.38 109.456 168.874V191.212C109.456 191.705 109.856 192.105 110.35 192.105H113.49C113.983 192.105 114.384 191.705 114.384 191.212V168.874C114.384 168.38 113.983 167.98 113.49 167.98Z" fill="#F0F0F0"/>
<path d="M89.8758 192.111H106.24V167.986H89.8758V192.111Z" fill="#FAFAFA"/>
<path d="M107.98 167.98H104.84C104.347 167.98 103.947 168.38 103.947 168.874V191.212C103.947 191.705 104.347 192.105 104.84 192.105H107.98C108.474 192.105 108.874 191.705 108.874 191.212V168.874C108.874 168.38 108.474 167.98 107.98 167.98Z" fill="#E6E6E6"/>
<path d="M85.6833 167.98H99.8012L98.6782 192.111H85.6833V167.98Z" fill="#FAFAFA"/>
<path d="M101.63 167.98H98.3312C98.0916 168.005 97.8703 168.119 97.7112 168.3C97.5521 168.481 97.467 168.715 97.4727 168.956L96.432 191.135C96.4155 191.25 96.4226 191.368 96.4529 191.48C96.4831 191.592 96.5359 191.697 96.6079 191.788C96.6799 191.88 96.7698 191.955 96.8719 192.011C96.9741 192.066 97.0865 192.101 97.2022 192.111H100.501C100.74 192.085 100.961 191.97 101.119 191.79C101.278 191.609 101.364 191.376 101.359 191.135L102.388 168.956C102.405 168.842 102.398 168.725 102.369 168.614C102.339 168.502 102.287 168.398 102.217 168.307C102.146 168.216 102.057 168.14 101.957 168.084C101.856 168.027 101.745 167.992 101.63 167.98Z" fill="#F0F0F0"/>
<path d="M120.464 192.105H130.489V171.737H120.464V192.105Z" fill="#FAFAFA"/>
<path d="M131.465 171.743H129.73C129.376 171.743 129.089 172.03 129.089 172.384V191.47C129.089 191.824 129.376 192.111 129.73 192.111H131.465C131.819 192.111 132.106 191.824 132.106 191.47V172.384C132.106 172.03 131.819 171.743 131.465 171.743Z" fill="#F0F0F0"/>
<path d="M117.088 192.105H127.114V171.737H117.088V192.105Z" fill="#FAFAFA"/>
<path d="M128.09 171.743H126.355C126.001 171.743 125.714 172.03 125.714 172.384V191.47C125.714 191.824 126.001 192.111 126.355 192.111H128.09C128.444 192.111 128.731 191.824 128.731 191.47V172.384C128.731 172.03 128.444 171.743 128.09 171.743Z" fill="#E6E6E6"/>
<path d="M114.519 171.743H123.174L122.486 192.111H114.519V171.743Z" fill="#FAFAFA"/>
<path d="M124.291 171.743H122.269C121.992 171.743 121.757 172.113 121.745 172.566L121.128 191.288C121.128 191.741 121.322 192.111 121.598 192.111H123.621C123.898 192.111 124.133 191.741 124.144 191.288L124.78 172.566C124.78 172.113 124.568 171.743 124.291 171.743Z" fill="#F0F0F0"/>
<path d="M137.192 192.111H145.495V175.242H137.192V192.111Z" fill="#FAFAFA"/>
<path d="M146.3 175.236H144.86C144.567 175.236 144.33 175.473 144.33 175.765V191.576C144.33 191.869 144.567 192.105 144.86 192.105H146.3C146.593 192.105 146.829 191.869 146.829 191.576V175.765C146.829 175.473 146.593 175.236 146.3 175.236Z" fill="#F0F0F0"/>
<path d="M134.393 192.111H142.696V175.242H134.393V192.111Z" fill="#FAFAFA"/>
<path d="M143.507 175.236H142.067C141.774 175.236 141.537 175.473 141.537 175.765V191.576C141.537 191.869 141.774 192.105 142.067 192.105H143.507C143.8 192.105 144.036 191.869 144.036 191.576V175.765C144.036 175.473 143.8 175.236 143.507 175.236Z" fill="#E6E6E6"/>
<path d="M132.265 175.236H139.432L138.862 192.111H132.265V175.236Z" fill="#FAFAFA"/>
<path d="M140.362 175.224H138.686C138.456 175.224 138.262 175.53 138.251 175.906L137.727 191.418C137.727 191.794 137.886 192.1 138.115 192.1H139.791C140.015 192.1 140.215 191.794 140.226 191.418L140.75 175.906C140.761 175.542 140.585 175.224 140.362 175.224Z" fill="#F0F0F0"/>
<path d="M69.1487 192.105H81.5555V171.737H69.1487V192.105Z" fill="#FAFAFA"/>
<path d="M82.8492 171.743H80.5384C80.1454 171.743 79.8269 172.062 79.8269 172.455V191.4C79.8269 191.793 80.1454 192.111 80.5384 192.111H82.8492C83.2422 192.111 83.5607 191.793 83.5607 191.4V172.455C83.5607 172.062 83.2422 171.743 82.8492 171.743Z" fill="#F0F0F0"/>
<path d="M64.9799 192.105H77.3867V171.737H64.9799V192.105Z" fill="#FAFAFA"/>
<path d="M78.6686 171.743H76.3577C75.9648 171.743 75.6462 172.062 75.6462 172.455V191.4C75.6462 191.793 75.9648 192.111 76.3577 192.111H78.6686C79.0615 192.111 79.38 191.793 79.38 191.4V172.455C79.38 172.062 79.0615 171.743 78.6686 171.743Z" fill="#E6E6E6"/>
<path d="M61.7988 171.743H72.5063L71.6537 192.111H61.7988V171.743Z" fill="#FAFAFA"/>
<path d="M73.8881 171.743H71.3891C71.1976 171.775 71.0246 171.877 70.904 172.029C70.7833 172.181 70.7236 172.372 70.7364 172.566L69.972 191.288C69.972 191.741 70.2131 192.111 70.56 192.111H73.059C73.2506 192.08 73.4236 191.978 73.5442 191.826C73.6648 191.674 73.7246 191.482 73.7117 191.288L74.4938 172.566C74.4938 172.113 74.2292 171.743 73.8881 171.743Z" fill="#F0F0F0"/>
<path d="M51.7558 192.111H60.4053V170.22H51.7558V192.111Z" fill="#FAFAFA"/>
<path d="M61.1814 170.214H59.8114C59.4704 170.214 59.194 170.491 59.194 170.832V191.488C59.194 191.829 59.4704 192.105 59.8114 192.105H61.1814C61.5224 192.105 61.7988 191.829 61.7988 191.488V170.832C61.7988 170.491 61.5224 170.214 61.1814 170.214Z" fill="#F0F0F0"/>
<path d="M44.5527 192.111H54.0842V167.986H44.5527V192.111Z" fill="#FAFAFA"/>
<path d="M54.9369 167.98H53.4316C53.0549 167.98 52.7495 168.285 52.7495 168.662V191.423C52.7495 191.8 53.0549 192.105 53.4316 192.105H54.9369C55.3136 192.105 55.619 191.8 55.619 191.423V168.662C55.619 168.285 55.3136 167.98 54.9369 167.98Z" fill="#F5F5F5"/>
<path d="M42.1125 167.98H50.3387L49.686 192.111H42.1125V167.98Z" fill="#FAFAFA"/>
<path d="M51.403 167.98H49.4803C49.2157 167.98 48.9922 168.421 48.9805 168.956L48.3925 191.135C48.3925 191.67 48.5806 192.111 48.8452 192.111H50.7445C51.0091 192.111 51.2325 191.67 51.2443 191.135L51.8323 168.956C51.8617 168.421 51.6617 167.98 51.403 167.98Z" fill="#F0F0F0"/>
<path d="M90.7519 224.851H102.882V198.791H90.7519V224.851Z" fill="#FAFAFA"/>
<path d="M104.041 198.791H101.989C101.547 198.791 101.189 199.149 101.189 199.591V224.052C101.189 224.493 101.547 224.851 101.989 224.851H104.041C104.482 224.851 104.84 224.493 104.84 224.052V199.591C104.84 199.149 104.482 198.791 104.041 198.791Z" fill="#F0F0F0"/>
<path d="M86.6712 224.851H98.8016V198.791H86.6712V224.851Z" fill="#FAFAFA"/>
<path d="M99.9541 198.791H97.902C97.4603 198.791 97.1023 199.149 97.1023 199.591V224.052C97.1023 224.493 97.4603 224.851 97.902 224.851H99.9541C100.396 224.851 100.754 224.493 100.754 224.052V199.591C100.754 199.149 100.396 198.791 99.9541 198.791Z" fill="#E6E6E6"/>
<path d="M83.5607 198.791H94.0271L93.198 224.851H83.5607V198.791Z" fill="#FAFAFA"/>
<path d="M95.3853 198.791H92.9393C92.6041 198.791 92.316 199.261 92.2983 199.844L91.5339 223.799C91.5339 224.387 91.7691 224.851 92.1219 224.851H94.568C94.9032 224.851 95.156 224.381 95.2031 223.799L95.9675 199.844C95.9733 199.261 95.7146 198.791 95.3853 198.791Z" fill="#F0F0F0"/>
<path d="M72.665 224.851H83.149V202.166H72.665V224.851Z" fill="#FAFAFA"/>
<path d="M84.1487 202.166H82.3788C81.9956 202.166 81.6849 202.477 81.6849 202.86V224.157C81.6849 224.541 81.9956 224.851 82.3788 224.851H84.1487C84.5319 224.851 84.8425 224.541 84.8425 224.157V202.86C84.8425 202.477 84.5319 202.166 84.1487 202.166Z" fill="#F0F0F0"/>
<path d="M69.1371 224.851H79.6211V202.166H69.1371V224.851Z" fill="#FAFAFA"/>
<path d="M80.6207 202.166H78.8508C78.4676 202.166 78.157 202.477 78.157 202.86V224.157C78.157 224.541 78.4676 224.851 78.8508 224.851H80.6207C81.0039 224.851 81.3145 224.541 81.3145 224.157V202.86C81.3145 202.477 81.0039 202.166 80.6207 202.166Z" fill="#E6E6E6"/>
<path d="M66.4558 202.166H75.4992L74.7819 224.851H66.4558V202.166Z" fill="#FAFAFA"/>
<path d="M76.6694 202.166H74.5585C74.2703 202.166 74.0234 202.578 74.0057 203.083L73.3472 223.934C73.3472 224.44 73.5471 224.851 73.8352 224.851H75.952C76.2401 224.851 76.4871 224.44 76.4989 223.934L77.1633 203.083C77.1809 202.578 76.9575 202.166 76.6694 202.166Z" fill="#F0F0F0"/>
<path d="M147.007 251.405C209.972 251.405 261.015 248.425 261.015 244.749C261.015 241.073 209.972 238.093 147.007 238.093C84.0428 238.093 33 241.073 33 244.749C33 248.425 84.0428 251.405 147.007 251.405Z" fill="#F5F5F5"/>
<path d="M135.928 243.209C135.988 243.39 136.002 243.583 135.97 243.771C135.938 243.959 135.861 244.137 135.746 244.288C135.63 244.44 135.479 244.561 135.306 244.641C135.133 244.722 134.943 244.759 134.752 244.749H52.844C50.2862 244.749 50.2862 228.091 52.844 228.091H134.776C134.966 228.082 135.155 228.119 135.327 228.199C135.5 228.279 135.65 228.4 135.766 228.55C135.881 228.701 135.959 228.878 135.991 229.065C136.024 229.252 136.01 229.445 135.952 229.626C134.929 232.801 134.929 240.039 135.928 243.209Z" fill="#407BFF"/>
<path opacity="0.8" d="M135.811 230.037H86.1072C84.1492 230.037 84.1492 242.803 86.1072 242.803H135.811C134.97 239.598 134.97 233.236 135.811 230.037Z" fill="white"/>
<path opacity="0.2" d="M83.6317 243.209C83.6911 243.39 83.7054 243.583 83.6736 243.771C83.6417 243.959 83.5646 244.137 83.4489 244.288C83.3331 244.44 83.1822 244.561 83.0092 244.641C82.8362 244.722 82.6462 244.759 82.4557 244.749H52.844C50.2862 244.749 50.2862 228.091 52.844 228.091H82.4792C82.669 228.082 82.8583 228.119 83.0307 228.199C83.2031 228.279 83.3535 228.4 83.4691 228.55C83.5847 228.701 83.6621 228.878 83.6945 229.065C83.7269 229.252 83.7134 229.445 83.6552 229.626C82.6321 232.801 82.6321 240.039 83.6317 243.209Z" fill="black"/>
<path d="M65.4743 228.091H58.7064C56.1486 228.091 56.1486 244.749 58.7064 244.749H65.4743C62.94 244.749 62.94 228.091 65.4743 228.091Z" fill="#407BFF"/>
<path d="M70.8074 228.091H68.1497C65.5919 228.091 65.5919 244.749 68.1497 244.749H70.8074C68.232 244.749 68.232 228.091 70.8074 228.091Z" fill="#407BFF"/>
<path d="M48.0695 226.709C47.7873 227.391 48.4811 228.091 49.4219 228.091H123.087C126.091 228.091 126.091 213.115 123.087 213.115H49.416C48.4752 213.115 47.7814 213.809 48.0636 214.497C49.2396 217.348 49.2396 223.857 48.0695 226.709Z" fill="#263238"/>
<path opacity="0.2" d="M48.0695 226.709C47.7873 227.391 48.4811 228.091 49.4219 228.091H85.5427C88.5474 228.091 88.5474 213.115 85.5427 213.115H49.416C48.4752 213.115 47.7814 213.809 48.0636 214.497C49.2396 217.348 49.2396 223.857 48.0695 226.709Z" fill="black"/>
<path opacity="0.8" d="M48.1989 214.861H84.0668C86.3659 214.861 86.3659 226.339 84.0668 226.339H48.1989C49.1867 223.44 49.1867 217.742 48.1989 214.861Z" fill="white"/>
<path opacity="0.2" d="M95.9797 216.455C95.7563 215.79 96.4031 215.143 97.2969 215.143H117.918C120.105 215.143 120.105 226.057 117.918 226.057H97.2969C96.4031 226.057 95.7563 225.416 95.9797 224.751C96.6854 222.031 96.6854 219.175 95.9797 216.455Z" fill="white"/>
<path d="M245.061 220.024C245.126 220.223 245.145 220.434 245.116 220.641C245.086 220.848 245.01 221.046 244.893 221.219C244.775 221.392 244.62 221.536 244.438 221.64C244.256 221.743 244.053 221.804 243.844 221.817H157.29C154.586 221.817 154.586 202.413 157.29 202.413H243.844C244.049 202.427 244.249 202.488 244.428 202.589C244.607 202.691 244.761 202.832 244.878 203.002C244.995 203.171 245.072 203.365 245.104 203.569C245.135 203.772 245.121 203.98 245.061 204.177C244.009 207.911 244.009 216.337 245.061 220.024Z" fill="#407BFF"/>
<path opacity="0.5" d="M245.061 220.024C245.126 220.223 245.145 220.434 245.116 220.641C245.086 220.848 245.01 221.046 244.893 221.219C244.775 221.392 244.62 221.536 244.438 221.64C244.256 221.743 244.053 221.804 243.844 221.817H157.29C154.586 221.817 154.586 202.413 157.29 202.413H243.844C244.049 202.427 244.249 202.488 244.428 202.589C244.607 202.691 244.761 202.832 244.878 203.002C244.995 203.171 245.072 203.365 245.104 203.569C245.135 203.772 245.121 203.98 245.061 204.177C244.009 207.911 244.009 216.337 245.061 220.024Z" fill="white"/>
<path opacity="0.8" d="M244.944 204.695H192.429C190.36 204.695 190.36 219.547 192.429 219.547H244.944C244.044 215.825 244.044 208.422 244.944 204.695Z" fill="white"/>
<path opacity="0.6" d="M189.813 220.024C189.878 220.223 189.896 220.434 189.867 220.641C189.838 220.848 189.762 221.046 189.644 221.219C189.527 221.392 189.371 221.536 189.189 221.64C189.008 221.743 188.804 221.804 188.596 221.817H157.29C154.586 221.817 154.586 202.413 157.29 202.413H188.596C188.801 202.427 189.001 202.488 189.18 202.589C189.359 202.691 189.512 202.832 189.629 203.002C189.746 203.171 189.823 203.365 189.855 203.569C189.887 203.772 189.872 203.98 189.813 204.177C188.772 207.911 188.772 216.337 189.813 220.024Z" fill="#407BFF"/>
<path opacity="0.5" d="M177.112 203.865C177.173 203.714 177.198 203.549 177.184 203.386C177.171 203.223 177.119 203.065 177.033 202.926C176.947 202.786 176.83 202.668 176.69 202.583C176.551 202.497 176.393 202.445 176.23 202.431H164.294C161.589 202.431 161.589 221.835 164.294 221.835H176.23C176.393 221.82 176.551 221.767 176.691 221.681C176.83 221.594 176.947 221.476 177.033 221.336C177.119 221.196 177.17 221.038 177.184 220.875C177.198 220.711 177.173 220.546 177.112 220.394C175.907 216.79 175.907 207.458 177.112 203.865Z" fill="white"/>
<path d="M238.852 242.615C238.922 242.873 238.929 243.143 238.873 243.405C238.817 243.666 238.7 243.91 238.531 244.117C238.362 244.324 238.146 244.487 237.901 244.594C237.657 244.701 237.39 244.748 237.123 244.731H147.195C143.355 244.731 143.349 221.799 147.195 221.799H237.159C237.425 221.783 237.692 221.83 237.937 221.937C238.181 222.044 238.397 222.207 238.566 222.414C238.735 222.621 238.852 222.865 238.908 223.126C238.964 223.388 238.957 223.658 238.887 223.916C237.353 228.285 237.358 238.252 238.852 242.615Z" fill="#407BFF"/>
<path opacity="0.2" d="M238.852 242.615C238.922 242.873 238.929 243.143 238.873 243.405C238.817 243.666 238.7 243.91 238.531 244.117C238.362 244.324 238.146 244.487 237.901 244.594C237.657 244.701 237.39 244.748 237.123 244.731H147.195C143.355 244.731 143.349 221.799 147.195 221.799H237.159C237.425 221.783 237.692 221.83 237.937 221.937C238.181 222.044 238.397 222.207 238.566 222.414C238.735 222.621 238.852 222.865 238.908 223.126C238.964 223.388 238.957 223.658 238.887 223.916C237.353 228.285 237.358 238.252 238.852 242.615Z" fill="white"/>
<path opacity="0.8" d="M238.676 224.481H184.303C181.363 224.481 181.363 242.05 184.303 242.05H238.681C237.423 237.646 237.423 228.891 238.676 224.481Z" fill="white"/>
<path opacity="0.6" d="M180.587 242.626C180.658 242.884 180.666 243.155 180.611 243.416C180.556 243.677 180.44 243.922 180.271 244.129C180.102 244.336 179.887 244.5 179.642 244.607C179.397 244.713 179.131 244.76 178.864 244.743H147.195C143.355 244.743 143.349 221.811 147.195 221.811H178.864C179.131 221.795 179.398 221.842 179.642 221.948C179.887 222.055 180.103 222.219 180.272 222.426C180.441 222.633 180.558 222.877 180.614 223.138C180.67 223.399 180.663 223.67 180.593 223.928C179.094 228.297 179.094 238.258 180.587 242.626Z" fill="#407BFF"/>
<path opacity="0.5" d="M161.618 222.611C161.667 222.527 161.692 222.431 161.69 222.334C161.688 222.237 161.66 222.142 161.607 222.06C161.555 221.978 161.481 221.912 161.394 221.869C161.307 221.826 161.209 221.808 161.112 221.817H155.732C151.898 221.817 151.898 244.749 155.732 244.749H161.136C161.233 244.758 161.33 244.74 161.418 244.697C161.505 244.655 161.579 244.589 161.631 244.506C161.683 244.424 161.712 244.33 161.714 244.232C161.716 244.135 161.691 244.039 161.642 243.955C159.307 240.41 159.307 226.151 161.618 222.611Z" fill="white"/>
<path opacity="0.5" d="M170.015 222.611C170.063 222.526 170.088 222.43 170.086 222.333C170.084 222.236 170.055 222.141 170.003 222.059C169.951 221.976 169.877 221.91 169.79 221.866C169.703 221.823 169.606 221.804 169.509 221.811H164.129C160.295 221.811 160.295 244.743 164.129 244.743H169.509C169.606 244.751 169.702 244.732 169.789 244.689C169.875 244.646 169.948 244.58 170 244.498C170.051 244.416 170.079 244.322 170.081 244.225C170.082 244.128 170.058 244.033 170.009 243.949C167.704 240.41 167.704 226.145 170.015 222.611Z" fill="white"/>
<path d="M237.97 190.23C237.866 188.597 237.482 186.994 236.835 185.49L237.364 185.232C238.037 186.799 238.434 188.469 238.54 190.171L237.97 190.23Z" fill="#407BFF"/>
<path d="M234.283 182.944H219.677V183.532H234.283V182.944Z" fill="#407BFF"/>
<path d="M139.092 200.826C138.792 201.625 139.527 202.431 140.521 202.431H234.283C237.453 202.431 237.453 185.002 234.283 185.002H140.521C139.527 185.002 138.792 185.814 139.092 186.614C140.327 189.924 140.327 197.503 139.092 200.826Z" fill="#407BFF"/>
<path opacity="0.2" d="M139.092 200.826C138.792 201.625 139.527 202.431 140.521 202.431H194.617C197.792 202.431 197.792 185.002 194.617 185.002H140.521C139.527 185.002 138.792 185.814 139.092 186.614C140.327 189.924 140.327 197.503 139.092 200.826Z" fill="black"/>
<path opacity="0.8" d="M139.233 187.043H193.047C195.481 187.043 195.481 200.396 193.047 200.396H139.233C140.274 197.045 140.274 190.394 139.233 187.043Z" fill="white"/>
<path opacity="0.2" d="M205.642 188.889C205.406 188.119 206.089 187.372 207.029 187.372H228.821C231.131 187.372 231.131 200.067 228.821 200.067H207.029C206.089 200.067 205.406 199.32 205.642 198.544C206.412 196.104 206.412 191.335 205.642 188.889Z" fill="white"/>
<path d="M27.8687 87.2481C25.2168 90.0881 18.7429 87.2481 17.7551 95.0685C16.6849 103.5 20.7421 107.552 15.5031 109.768C7.27107 113.208 1.39106 126.956 12.8218 132.112C24.2525 137.269 48.5957 131.866 45.8556 121.358C43.1155 110.85 43.6565 105.211 46.8905 100.261C51.1535 93.7161 50.2421 85.3077 46.767 82.2618C41.3574 77.499 33.8839 80.7801 27.8687 87.2481Z" fill="#263238"/>
<path d="M42.016 121.076C41.9711 121.077 41.9273 121.062 41.8934 121.032C41.8595 121.003 41.8382 120.962 41.8337 120.917C41.8296 120.893 41.8303 120.869 41.8358 120.846C41.8413 120.822 41.8515 120.8 41.8658 120.781C41.8802 120.762 41.8983 120.746 41.919 120.734C41.9398 120.722 41.9628 120.714 41.9866 120.711C44.2563 120.4 45.6087 119.841 46.2437 118.947C47.0317 117.836 46.6906 116.184 46.2437 114.09C45.5499 110.686 44.5915 106.023 47.6491 100.131C51.3593 92.9869 50.0011 85.1548 46.526 82.5911C46.4872 82.5628 46.4612 82.5205 46.4535 82.4731C46.4458 82.4258 46.457 82.3774 46.4848 82.3383C46.5141 82.2991 46.5575 82.2729 46.6058 82.2653C46.6541 82.2576 46.7035 82.269 46.7435 82.2971C50.3656 84.949 51.765 92.9928 47.9725 100.302C44.9795 106.076 45.9203 110.668 46.6024 114.02C47.0493 116.195 47.4021 117.918 46.5201 119.159C45.8263 120.141 44.3974 120.746 42.0219 121.076H42.016Z" fill="#263238"/>
<path d="M12.3691 110.892C11.9976 110.89 11.6265 110.866 11.2578 110.821C11.2337 110.818 11.2105 110.81 11.1895 110.798C11.1685 110.787 11.15 110.771 11.1352 110.751C11.1205 110.732 11.1096 110.71 11.1034 110.687C11.0972 110.664 11.0957 110.639 11.099 110.615C11.1019 110.591 11.1095 110.568 11.1215 110.547C11.1334 110.526 11.1495 110.507 11.1686 110.493C11.1878 110.478 11.2097 110.467 11.2331 110.461C11.2564 110.455 11.2808 110.453 11.3048 110.456C12.9747 110.662 14.186 110.415 15.0033 109.698C16.5321 108.351 16.5556 105.535 16.5733 102.271C16.5733 98.5788 16.6262 94.3981 19.0194 91.5463C19.0348 91.5278 19.0537 91.5125 19.0751 91.5013C19.0965 91.4901 19.1198 91.4832 19.1438 91.481C19.1679 91.4788 19.1921 91.4814 19.2151 91.4886C19.2381 91.4957 19.2595 91.5074 19.2781 91.5228C19.2966 91.5383 19.3119 91.5572 19.3231 91.5786C19.3343 91.5999 19.3412 91.6233 19.3434 91.6473C19.3456 91.6713 19.343 91.6956 19.3359 91.7186C19.3287 91.7416 19.317 91.763 19.3016 91.7816C16.9907 94.5334 16.9496 98.6435 16.9496 102.277C16.9496 105.623 16.9084 108.516 15.2561 109.974C14.4415 110.629 13.4121 110.956 12.3691 110.892Z" fill="#263238"/>
<path d="M70.0812 214.615C66.1593 214.568 64.6187 214.321 62.8135 214.35C61.0084 214.38 60.5792 214.697 58.6976 214.615C57.4275 214.562 57.4216 213.051 57.9096 212.016C58.2918 211.204 58.7622 210.387 59.1974 209.376L64.1718 209.74C64.8421 211.634 68.1702 212.445 71.0867 213.115C72.2451 213.392 71.6512 214.632 70.0812 214.615Z" fill="#407BFF"/>
<path d="M43.9226 144.9C43.9226 144.9 57.0821 156.219 70.3826 168.226C76.0039 173.312 64.2145 212.09 64.2145 212.09C63.9676 212.919 59.5811 211.738 58.9225 211.085C58.9225 211.085 58.2522 180.985 61.104 174.923C31.6099 167.467 27 152.985 27 152.985L29.1168 144L43.9226 144.9Z" fill="#263238"/>
<path opacity="0.2" d="M29.1682 154.033C30.8192 156.341 32.7754 158.414 34.9835 160.195C37.9235 156.756 37.1003 151.199 37.1003 151.199L29.1682 154.033Z" fill="black"/>
<path d="M65.4596 207.894C65.3773 208.482 65.2361 209.523 65.1597 210.293C65.1478 210.418 65.089 210.533 64.9951 210.616C64.9012 210.699 64.7793 210.743 64.654 210.74C62.6863 210.586 60.7373 210.247 58.8328 209.728C58.7411 209.703 58.66 209.649 58.6017 209.573C58.5434 209.498 58.511 209.406 58.5094 209.311L58.4683 207.165C58.468 207.095 58.4823 207.026 58.5103 206.962C58.5383 206.898 58.5793 206.841 58.6309 206.794C58.6824 206.747 58.7432 206.711 58.8094 206.689C58.8755 206.666 58.9456 206.658 59.0151 206.665L65.0833 207.4C65.141 207.406 65.1967 207.424 65.2472 207.453C65.2977 207.482 65.3419 207.52 65.3771 207.566C65.4123 207.613 65.4377 207.665 65.4519 207.722C65.4661 207.778 65.4687 207.837 65.4596 207.894Z" fill="#263238"/>
<path opacity="0.3" d="M65.4596 207.894C65.3773 208.482 65.2361 209.523 65.1597 210.293C65.1478 210.418 65.089 210.533 64.9951 210.616C64.9012 210.699 64.7793 210.743 64.654 210.74C62.6863 210.586 60.7373 210.247 58.8328 209.728C58.7411 209.703 58.66 209.649 58.6017 209.573C58.5434 209.498 58.511 209.406 58.5094 209.311L58.4683 207.165C58.468 207.095 58.4823 207.026 58.5103 206.962C58.5383 206.898 58.5793 206.841 58.6309 206.794C58.6824 206.747 58.7432 206.711 58.8094 206.689C58.8755 206.666 58.9456 206.658 59.0151 206.665L65.0833 207.4C65.141 207.406 65.1967 207.424 65.2472 207.453C65.2977 207.482 65.3419 207.52 65.3771 207.566C65.4123 207.613 65.4377 207.665 65.4519 207.722C65.4661 207.778 65.4687 207.837 65.4596 207.894Z" fill="white"/>
<path d="M12.5043 242.739C8.51766 242.739 7.21229 241.239 4.98377 240.828C3.10217 240.475 2.60238 240.64 1.08534 240.375C-0.18474 240.152 -0.2847 239.281 0.49734 237.994C1.00753 237.103 1.44032 236.171 1.79094 235.207L7.83558 235.606C8.46474 237.223 9.9171 240.51 12.1339 240.898C14.2213 241.304 14.0919 242.739 12.5043 242.739Z" fill="#407BFF"/>
<path d="M43.2332 142.344C43.2332 142.344 29.327 167.069 23.7292 182.363C17.8492 198.427 8.48824 224.699 7.81204 235.606C6.81244 236.083 3.5314 235.9 1.7674 235.207C1.7674 235.207 0.132751 197.575 11.4518 182.498C14.1507 150.211 18.6312 145.048 23.394 141.115L43.2332 142.344Z" fill="#263238"/>
<path d="M8.54119 233.378C8.469 234.122 8.44935 234.871 8.48239 235.618C8.49047 235.748 8.44678 235.876 8.36087 235.974C8.27496 236.072 8.15378 236.132 8.02375 236.141C5.77171 236.347 2.63179 235.624 1.63807 235.377C1.54571 235.354 1.46349 235.301 1.40402 235.227C1.34454 235.152 1.31108 235.061 1.30878 234.965L1.23235 232.86C1.23136 232.791 1.24476 232.723 1.27169 232.659C1.29863 232.595 1.3385 232.538 1.38881 232.49C1.43911 232.442 1.49873 232.406 1.56391 232.383C1.62908 232.359 1.69839 232.35 1.76743 232.355L8.14135 232.902C8.1991 232.906 8.25539 232.922 8.30691 232.948C8.35844 232.975 8.40416 233.011 8.4414 233.056C8.47864 233.1 8.50664 233.151 8.52378 233.207C8.54092 233.262 8.54683 233.32 8.54119 233.378Z" fill="#263238"/>
<path opacity="0.3" d="M8.54119 233.378C8.469 234.122 8.44935 234.871 8.48239 235.618C8.49047 235.748 8.44678 235.876 8.36087 235.974C8.27496 236.072 8.15378 236.132 8.02375 236.141C5.77171 236.347 2.63179 235.624 1.63807 235.377C1.54571 235.354 1.46349 235.301 1.40402 235.227C1.34454 235.152 1.31108 235.061 1.30878 234.965L1.23235 232.86C1.23136 232.791 1.24476 232.723 1.27169 232.659C1.29863 232.595 1.3385 232.538 1.38881 232.49C1.43911 232.442 1.49873 232.406 1.56391 232.383C1.62908 232.359 1.69839 232.35 1.76743 232.355L8.14135 232.902C8.1991 232.906 8.25539 232.922 8.30691 232.948C8.35844 232.975 8.40416 233.011 8.4414 233.056C8.47864 233.1 8.50664 233.151 8.52378 233.207C8.54092 233.262 8.54683 233.32 8.54119 233.378Z" fill="white"/>
<path d="M46.9199 118.089C47.5079 119.2 48.143 120.441 48.7898 121.617C49.4366 122.793 50.0893 123.969 50.7478 125.115C52.0767 127.426 53.4644 129.69 54.952 131.824L54.1523 131.113C54.7424 131.528 55.3929 131.849 56.081 132.065C56.9134 132.345 57.7667 132.557 58.6329 132.7C59.5384 132.865 60.4792 132.977 61.4377 133.065C62.3961 133.153 63.4016 133.206 64.3189 133.265H64.4423C64.8243 133.287 65.1866 133.441 65.4672 133.701C65.7477 133.961 65.929 134.311 65.9798 134.69C66.0306 135.069 65.9477 135.454 65.7455 135.779C65.5433 136.104 65.2343 136.348 64.8716 136.47C63.821 136.819 62.7459 137.09 61.6552 137.281C60.5592 137.476 59.4512 137.596 58.3389 137.64C57.1588 137.685 55.9771 137.614 54.8109 137.428C53.4947 137.23 52.222 136.808 51.0477 136.181C50.8036 136.048 50.5863 135.871 50.4068 135.658L50.248 135.47C49.3131 134.353 48.4017 133.212 47.5667 132.042C46.7318 130.872 45.9145 129.69 45.1559 128.514C44.3974 127.338 43.6624 126.085 42.9686 124.845C42.2747 123.604 41.6162 122.375 40.987 121.017C40.6567 120.245 40.6337 119.376 40.9226 118.588C41.2116 117.8 41.7907 117.152 42.5416 116.776C43.2926 116.401 44.1585 116.326 44.9625 116.568C45.7665 116.81 46.4478 117.35 46.867 118.077L46.9199 118.089Z" fill="#FFB573"/>
<path d="M43.6742 113.344C47.5139 114.608 48.1372 116.331 50.2422 122.693C48.8428 126.509 43.1862 128.443 43.1862 128.443C43.1862 128.443 36.5065 117.565 43.6742 113.344Z" fill="#407BFF"/>
<path d="M48.9309 121.623C48.7133 123.728 48.1723 126.238 47.0375 131.172C46.1555 135.358 46.1437 143.52 44.7325 143.949C42.0219 145.29 35.2363 144.772 23.394 141.115C23.7703 135 24.4818 130.848 22.4473 116.819C22.3193 116.083 22.3568 115.328 22.5573 114.609C22.7577 113.89 23.116 113.225 23.606 112.661C24.096 112.098 24.7055 111.651 25.39 111.353C26.0745 111.055 26.8168 110.914 27.5629 110.939C28.4214 110.939 29.3269 111.009 30.2501 111.091C33.5069 111.287 36.7454 111.718 39.9403 112.379C40.9811 112.614 42.0571 112.891 43.0803 113.173C44.8821 113.688 46.4499 114.811 47.5166 116.351C48.5834 117.892 49.0832 119.755 48.9309 121.623Z" fill="#407BFF"/>
<path d="M7.47693 145.942L8.65293 144.866C8.87181 144.666 9.03946 144.416 9.14178 144.138C9.2441 143.86 9.2781 143.561 9.24093 143.267L8.91753 140.462C8.85568 139.911 8.66342 139.382 8.35667 138.92C8.04992 138.458 7.63748 138.075 7.15353 137.804L6.56553 137.469C4.46637 139.121 3.41385 142.45 3.41385 142.45L3.00814 143.367C2.91894 143.552 2.86751 143.754 2.85683 143.959C2.84615 144.165 2.87643 144.37 2.94591 144.564C3.0154 144.758 3.12271 144.935 3.26159 145.087C3.40047 145.239 3.56815 145.362 3.75489 145.448L5.56005 146.272C5.87739 146.407 6.22702 146.448 6.56701 146.389C6.907 146.331 7.22293 146.176 7.47693 145.942Z" fill="#FFB573"/>
<path d="M69.1992 131.818L67.6939 131.23C67.4154 131.125 67.1156 131.088 66.8199 131.123C66.5241 131.158 66.2411 131.263 65.9946 131.43L63.6426 133.006C63.181 133.317 62.8006 133.734 62.5335 134.222C62.2665 134.71 62.1205 135.255 62.1079 135.811V136.511C64.5364 137.616 67.9879 137.016 67.9879 137.016L68.9875 136.958C69.1932 136.951 69.3955 136.903 69.5827 136.818C69.77 136.732 69.9385 136.611 70.0784 136.46C70.2184 136.309 70.327 136.132 70.3982 135.939C70.4693 135.746 70.5015 135.54 70.4928 135.335L70.3987 133.353C70.3715 133.008 70.2433 132.678 70.03 132.405C69.8167 132.132 69.5277 131.928 69.1992 131.818Z" fill="#FFB573"/>
<path d="M25.9518 118.712L25.1992 119.059L24.376 119.435C23.8292 119.7 23.2882 119.976 22.7472 120.258C21.6594 120.846 20.601 121.434 19.5603 122.052C18.5195 122.669 17.514 123.357 16.538 124.057C15.5619 124.757 14.6564 125.521 13.7744 126.303L14.1624 125.809C13.8758 126.231 13.624 126.675 13.4098 127.138C13.1511 127.673 12.91 128.255 12.6748 128.849C12.2044 130.025 11.7458 131.283 11.3224 132.548C10.8991 133.812 10.4698 135.094 10.0523 136.375L8.78225 140.239C8.65911 140.618 8.40239 140.94 8.0598 141.144C7.7172 141.349 7.31204 141.422 6.91962 141.35C6.52721 141.278 6.17424 141.066 5.92632 140.754C5.67841 140.441 5.55242 140.049 5.57176 139.651C5.63644 138.234 5.76581 136.858 5.92457 135.47C6.08333 134.082 6.28325 132.7 6.51257 131.313C6.74189 129.925 7.04177 128.532 7.42397 127.12C7.61213 126.415 7.81793 125.709 8.07665 124.968C8.34995 124.153 8.70041 123.365 9.12329 122.616C9.19746 122.494 9.28205 122.378 9.37612 122.269L9.51725 122.122C10.4858 121.054 11.5229 120.051 12.6219 119.118C13.7049 118.197 14.8397 117.339 16.0205 116.548C17.1858 115.758 18.393 115.032 19.6367 114.373C20.26 114.043 20.8892 113.732 21.5301 113.426C21.8535 113.279 22.171 113.126 22.5062 112.985C22.8413 112.844 23.1471 112.72 23.5646 112.561C24.3653 112.241 25.2598 112.249 26.0551 112.582C26.8505 112.915 27.483 113.548 27.8163 114.343C28.1495 115.139 28.1569 116.033 27.8367 116.834C27.5165 117.635 26.8945 118.277 26.1047 118.624L25.9518 118.712Z" fill="#FFB573"/>
<path d="M31.6319 112.467C28.7507 110.404 26.9985 110.18 20.0248 113.208C19.1957 117.595 21.9123 124.033 21.9123 124.033C21.9123 124.033 31.1909 119.2 31.6319 112.467Z" fill="#407BFF"/>
<path d="M32.3845 100.249C32.8138 103.477 33.0901 109.327 30.7852 111.139C30.7852 111.139 33.7957 111.086 39.5522 115.795C41.7102 113.443 40.4754 112.426 40.4754 112.426C37.0474 111.127 37.2884 108.534 38.0352 106.164L32.3845 100.249Z" fill="#FFB573"/>
<path d="M38.3352 114.843C36.236 114.843 35.1717 117.895 35.1717 117.895C35.1717 117.895 30.1267 113.873 29.4387 111.044C30.1085 110.774 30.764 110.47 31.4026 110.133C31.4026 110.133 37.2885 113.491 38.3352 114.843Z" fill="white"/>
<path d="M40.3461 114.766C40.3461 114.766 41.9337 115.354 42.457 117.706C43.5331 113.226 41.4339 112.52 41.4339 112.52C40.9079 112.126 40.2539 111.941 39.5994 112.003C40.0286 112.302 40.3386 112.744 40.4752 113.249C40.6117 113.754 40.566 114.291 40.3461 114.766Z" fill="white"/>
<path opacity="0.2" d="M34.6895 102.66L38.0294 106.188C37.8475 106.739 37.7156 107.306 37.6354 107.881C36.3183 107.511 34.5778 105.799 34.519 104.353C34.4711 103.783 34.5289 103.209 34.6895 102.66Z" fill="black"/>
<path d="M28.7625 95.5506C29.9385 100.572 30.3677 102.718 33.3842 105.012C37.9177 108.457 43.8035 106.223 44.1211 101.025C44.4033 96.3209 42.3923 88.9121 37.0651 87.5009C35.9362 87.1615 34.7372 87.1297 33.5919 87.4087C32.4466 87.6877 31.3966 88.2674 30.5502 89.088C29.7039 89.9085 29.092 90.9401 28.7777 92.0763C28.4635 93.2124 28.4582 94.4118 28.7625 95.5506Z" fill="#FFB573"/>
<path d="M29.7445 99.1609C31.5908 98.2554 33.5488 93.8043 30.9205 91.6992C33.0902 92.1049 35.5774 91.5228 37.8765 89.7471C40.8753 87.3951 45.2912 93.2339 43.8388 89.8059C41.7455 84.8667 35.4363 83.6319 29.7268 87.7361C24.0173 91.8403 24.4231 96.8325 29.7445 99.1609Z" fill="#263238"/>
<path d="M28.1804 98.1555C28.1603 98.1535 28.1415 98.1451 28.1266 98.1315C28.1117 98.118 28.1015 98.1001 28.0975 98.0803C28.0936 98.0606 28.0961 98.0401 28.1046 98.0219C28.1132 98.0036 28.1274 97.9886 28.1451 97.9791C29.6151 97.344 35.8538 96.0151 36.1184 95.9622C36.1304 95.9587 36.143 95.9578 36.1553 95.9596C36.1677 95.9613 36.1796 95.9657 36.1901 95.9723C36.2007 95.979 36.2097 95.9878 36.2166 95.9983C36.2235 96.0087 36.2281 96.0205 36.2301 96.0328C36.2337 96.0561 36.2285 96.0798 36.2154 96.0994C36.2024 96.119 36.1824 96.133 36.1595 96.1386C36.0949 96.1386 29.6915 97.5204 28.2157 98.1496L28.1804 98.1555Z" fill="white"/>
<path opacity="0.2" d="M35.7479 96.0681C35.1176 95.7909 34.4033 95.774 33.7605 96.021C34.4136 96.1656 35.0887 96.1816 35.7479 96.0681Z" fill="black"/>
<path opacity="0.2" d="M35.695 96.5149C35.3892 96.4504 35.0729 96.4533 34.7683 96.5233C34.4637 96.5934 34.178 96.729 33.931 96.9207C34.541 96.9109 35.1421 96.7727 35.695 96.5149Z" fill="black"/>
<path d="M36.8416 95.9975C36.9239 96.4267 37.212 96.7443 37.4884 96.709C37.7648 96.6737 37.9176 96.3033 37.8353 95.874C37.753 95.4448 37.459 95.1331 37.1885 95.1625C36.918 95.1919 36.7593 95.5741 36.8416 95.9975Z" fill="#263238"/>
<path d="M42.0043 95.4389C42.0866 95.8623 42.3806 96.1798 42.6511 96.1504C42.9216 96.121 43.0803 95.7388 42.998 95.3154C42.9157 94.8921 42.6276 94.5687 42.3512 94.604C42.0749 94.6392 41.922 95.0097 42.0043 95.4389Z" fill="#263238"/>
<path d="M42.2159 94.6451L43.1685 94.2217C43.1685 94.2217 42.8039 95.0861 42.2159 94.6451Z" fill="#263238"/>
<path d="M41.0399 96.2562C41.5489 97.2155 42.1772 98.1065 42.9098 98.9081C42.7093 99.0764 42.474 99.1981 42.2208 99.2642C41.9675 99.3303 41.7028 99.3392 41.4456 99.2903L41.0399 96.2562Z" fill="#ED893E"/>
<path d="M39.1877 101.19C39.4245 101.21 39.6625 101.21 39.8992 101.19C39.9153 101.187 39.9308 101.182 39.9448 101.174C39.9587 101.165 39.9707 101.154 39.9801 101.141C39.9895 101.128 39.9961 101.113 39.9993 101.097C40.0026 101.081 40.0026 101.064 39.9992 101.048C39.9934 101.015 39.975 100.984 39.9477 100.964C39.9204 100.943 39.8863 100.933 39.8522 100.937C39.32 101.001 38.7801 100.947 38.2716 100.777C37.7632 100.607 37.2988 100.326 36.9122 99.9547C36.9007 99.943 36.887 99.9337 36.8718 99.9273C36.8567 99.921 36.8404 99.9177 36.824 99.9177C36.8075 99.9177 36.7913 99.921 36.7761 99.9273C36.761 99.9337 36.7473 99.943 36.7358 99.9547C36.7135 99.9787 36.701 100.01 36.701 100.043C36.701 100.076 36.7135 100.107 36.7358 100.131C37.3971 100.77 38.2689 101.147 39.1877 101.19Z" fill="#263238"/>
<path d="M27.5689 100.049C27.8522 100.453 28.2165 100.794 28.6386 101.05C29.0607 101.306 29.5314 101.472 30.0208 101.536C31.2439 101.636 31.5085 100.213 30.8852 98.9493C30.3266 97.8144 29.0154 96.3856 27.9452 96.8795C26.875 97.3734 26.7751 99.0081 27.5689 100.049Z" fill="#FFB573"/>
<path d="M35.1894 92.7576C35.2222 92.7576 35.2545 92.7502 35.2841 92.736C35.3136 92.7217 35.3395 92.701 35.3599 92.6753C35.549 92.4331 35.795 92.2414 36.0761 92.1173C36.3572 91.9931 36.6646 91.9404 36.971 91.9638C37.0028 91.9688 37.0353 91.9672 37.0665 91.959C37.0977 91.9509 37.1268 91.9365 37.1522 91.9167C37.1775 91.8968 37.1985 91.872 37.2139 91.8437C37.2293 91.8154 37.2387 91.7842 37.2415 91.7522C37.2441 91.6846 37.2224 91.6184 37.1803 91.5655C37.1382 91.5127 37.0786 91.4766 37.0122 91.464C36.6253 91.4297 36.2359 91.4918 35.8789 91.6447C35.5218 91.7976 35.2082 92.0365 34.9659 92.3402C34.9375 92.3803 34.9208 92.4275 34.9178 92.4766C34.9147 92.5257 34.9253 92.5746 34.9485 92.618C34.9718 92.6614 35.0066 92.6974 35.0491 92.722C35.0917 92.7467 35.1402 92.759 35.1894 92.7576Z" fill="#263238"/>
<path d="M42.9568 92.5401C42.9883 92.5436 43.0201 92.5407 43.0504 92.5316C43.0807 92.5225 43.1089 92.5074 43.1332 92.4872C43.1567 92.4642 43.1753 92.4367 43.1881 92.4064C43.2008 92.3761 43.2073 92.3436 43.2073 92.3107C43.2073 92.2779 43.2008 92.2454 43.1881 92.2151C43.1753 92.1848 43.1567 92.1573 43.1332 92.1343C42.8792 91.8153 42.555 91.5591 42.1858 91.3857C41.8166 91.2123 41.4124 91.1265 41.0047 91.1347C40.9722 91.1374 40.9406 91.1469 40.9121 91.1627C40.8835 91.1785 40.8587 91.2002 40.8392 91.2264C40.8197 91.2525 40.8061 91.2825 40.7991 91.3144C40.7921 91.3462 40.7921 91.3792 40.7989 91.4111C40.809 91.4776 40.8435 91.5379 40.8957 91.5803C40.9479 91.6227 41.014 91.6441 41.0811 91.6404C41.4044 91.637 41.7241 91.7078 42.0157 91.8475C42.3073 91.9871 42.5629 92.1919 42.7628 92.446C42.7862 92.475 42.8157 92.4985 42.8493 92.5148C42.8828 92.531 42.9195 92.5397 42.9568 92.5401Z" fill="#263238"/>
<path d="M38.4351 98.6612C37.1944 98.6612 36.1183 97.344 36.0007 95.6565C35.9295 94.8617 36.1128 94.0648 36.5241 93.3809C36.6864 93.091 36.9158 92.8442 37.193 92.6611C37.4702 92.478 37.7872 92.3639 38.1176 92.3284C39.417 92.2402 40.5578 93.5867 40.6812 95.3331C40.8047 97.0794 39.8463 98.5671 38.5586 98.6553L38.4351 98.6612ZM38.241 92.5401H38.1352C37.8327 92.5748 37.5427 92.6808 37.2892 92.8495C37.0357 93.0182 36.8258 93.2446 36.677 93.5103C36.2865 94.1607 36.1135 94.9187 36.183 95.6741C36.2948 97.3146 37.359 98.5788 38.535 98.5024C39.711 98.426 40.5989 97.0148 40.4872 95.3742C40.3755 93.7337 39.3876 92.5401 38.241 92.5401Z" fill="white"/>
<path d="M43.9329 98.3436C42.6922 98.3436 41.6103 97.0324 41.4927 95.3448C41.4243 94.5502 41.6073 93.7542 42.016 93.0693C42.1796 92.7793 42.4101 92.5325 42.6883 92.3494C42.9664 92.1664 43.2843 92.0523 43.6153 92.0167C44.9031 91.9285 46.0555 93.2751 46.1731 95.0155C46.2415 95.8102 46.0585 96.6062 45.6498 97.2911C45.4869 97.5817 45.2566 97.829 44.9783 98.0122C44.7 98.1953 44.3818 98.309 44.0505 98.3436H43.9329ZM43.7388 92.199H43.6271C43.3246 92.2337 43.0346 92.3398 42.7811 92.5084C42.5276 92.6771 42.3177 92.9036 42.1689 93.1692C41.7837 93.8218 41.6111 94.578 41.6749 95.3331C41.7867 96.9207 42.7863 98.1613 43.9329 98.1613H44.0387C44.3416 98.1281 44.6322 98.0226 44.8859 97.8538C45.1397 97.6849 45.3492 97.4577 45.4969 97.1911C45.8842 96.5416 46.0571 95.7865 45.9909 95.0332C45.8791 93.4397 44.8795 92.199 43.7388 92.199Z" fill="white"/>
<path d="M41.628 95.5859C41.6123 95.5851 41.5971 95.5803 41.5838 95.5721C41.5704 95.5639 41.5593 95.5525 41.5515 95.5389C41.3281 95.1861 40.6754 95.5683 40.6695 95.5683C40.6595 95.5747 40.6484 95.579 40.6367 95.5809C40.625 95.5829 40.6131 95.5825 40.6015 95.5798C40.59 95.577 40.5792 95.572 40.5696 95.565C40.5601 95.5579 40.5521 95.5491 40.546 95.5389C40.5312 95.5217 40.5229 95.4998 40.5229 95.4771C40.5229 95.4544 40.5312 95.4325 40.546 95.4154C40.5813 95.4154 41.3575 94.9332 41.675 95.4154C41.6823 95.4251 41.6874 95.4362 41.6899 95.4481C41.6924 95.46 41.6922 95.4723 41.6894 95.4841C41.6866 95.4959 41.6812 95.5069 41.6736 95.5164C41.6661 95.5258 41.6565 95.5335 41.6456 95.5389C41.6459 95.5475 41.6446 95.5561 41.6415 95.5642C41.6385 95.5722 41.6339 95.5796 41.628 95.5859Z" fill="white"/>
<path d="M37.0709 95.2037L38.0176 94.7862C38.0176 94.7862 37.6589 95.6506 37.0709 95.2037Z" fill="#263238"/>
</svg>
