<svg width="294" height="294" viewBox="0 0 294 294" fill="none" xmlns="http://www.w3.org/2000/svg">
<path opacity="0.7" d="M39.9429 98.2489C39.9429 98.2489 23.5494 140.585 46.5873 183.215C69.6251 225.845 117.077 248.365 155.056 267.622C193.035 286.879 232.472 277.501 251.211 245.96C269.951 214.42 244.249 191.906 244.214 146.929C244.179 101.953 250.947 90.0463 226.574 52.0498C202.201 14.0532 142.455 5.63891 97.2729 33.8218C52.091 62.0046 39.9429 98.2489 39.9429 98.2489Z" fill="white"/>
<path d="M37.4497 81.8261C53.1552 51.3442 82.32 28.2828 118.629 25.037C143.602 22.8596 168.49 30.0601 188.442 45.2348C198.356 52.8788 207.164 62.6102 213.015 73.7176C219.73 86.4772 221.688 101.189 228.597 113.89C237.187 129.678 253.322 136.193 264.159 149.834C273.079 161.071 276.142 176.13 275.119 190.441C273.25 216.566 257.944 241.368 235.429 254.757C216.396 266.076 193.452 269.198 171.337 268.169C137.233 266.587 103.282 255.339 76.4224 234.271C49.5625 213.203 30.2585 182.057 25.6839 148.229C22.5733 125.244 27.0951 101.918 37.4497 81.8261Z" fill="#3362CC"/>
<path opacity="0.7" d="M37.4497 81.8261C53.1552 51.3442 82.32 28.2828 118.629 25.037C143.602 22.8596 168.49 30.0601 188.442 45.2348C198.356 52.8788 207.164 62.6102 213.015 73.7176C219.73 86.4772 221.688 101.189 228.597 113.89C237.187 129.678 253.322 136.193 264.159 149.834C273.079 161.071 276.142 176.13 275.119 190.441C273.25 216.566 257.944 241.368 235.429 254.757C216.396 266.076 193.452 269.198 171.337 268.169C137.233 266.587 103.282 255.339 76.4224 234.271C49.5625 213.203 30.2585 182.057 25.6839 148.229C22.5733 125.244 27.0951 101.918 37.4497 81.8261Z" fill="white"/>
<path d="M27.0891 92.9687C27.783 95.7205 27.4419 90.6578 28.8002 84.4721C30.1585 78.2863 32.4928 80.7912 32.4928 80.7912" stroke="#263238" stroke-linecap="round" stroke-linejoin="round"/>
<path d="M26.6658 86.6477L30.9288 84.9013" stroke="#263238" stroke-linecap="round" stroke-linejoin="round"/>
<path d="M34.4508 82.8022C34.4508 82.8022 31.9048 88.0942 35.7444 90.3168" stroke="#263238" stroke-linecap="round" stroke-linejoin="round"/>
<path d="M38.0671 81.3204C38.0671 81.3204 42.2772 83.6724 39.643 88.7174" stroke="#263238" stroke-linecap="round" stroke-linejoin="round"/>
<path d="M35.1858 84.5897L38.2022 86.7888" stroke="#263238" stroke-linecap="round" stroke-linejoin="round"/>
<path d="M37.5498 83.6195L35.1919 87.3768" stroke="#263238" stroke-linecap="round" stroke-linejoin="round"/>
<path d="M51.0955 139.935C51.6692 136.438 49.3002 133.139 45.804 132.565C42.3078 131.992 39.0084 134.361 38.4347 137.857C37.8609 141.353 40.23 144.652 43.7261 145.226C47.2223 145.8 50.5217 143.431 51.0955 139.935Z" stroke="#263238" stroke-linecap="round" stroke-linejoin="round"/>
<path d="M54.9008 148.375C58.7501 147.585 61.2306 143.825 60.4411 139.975C59.6517 136.126 55.8913 133.646 52.042 134.435C48.1927 135.225 45.7122 138.985 46.5017 142.834C47.2911 146.684 51.0515 149.164 54.9008 148.375Z" stroke="#263238" stroke-linecap="round" stroke-linejoin="round"/>
<path d="M50.6092 136.245L47.6575 137.298" stroke="#263238" stroke-linecap="round" stroke-linejoin="round"/>
<path d="M51.0207 137.463L46.7754 138.997" stroke="#263238" stroke-linecap="round" stroke-linejoin="round"/>
<path d="M51.1795 138.933L46.4402 140.755" stroke="#263238" stroke-linecap="round" stroke-linejoin="round"/>
<path d="M50.8443 140.938L46.5225 142.913" stroke="#263238" stroke-linecap="round" stroke-linejoin="round"/>
<path d="M50.0799 142.478L46.7988 143.842" stroke="#263238" stroke-linecap="round" stroke-linejoin="round"/>
<path d="M47.8633 129.119C47.681 128.531 45.5995 128.166 45.5113 129.707C45.4231 131.247 47.7045 129.966 48.3513 129.119C48.3513 129.119 47.1753 130.701 47.6692 131.012" stroke="#263238" stroke-linecap="round" stroke-linejoin="round"/>
<path d="M59.3881 131.036L57.5417 134.875C57.5417 134.875 58.4649 132.953 59.4527 133.111C60.6699 133.329 59.8585 135.322 58.3885 134.587" stroke="#263238" stroke-linecap="round" stroke-linejoin="round"/>
<path d="M260.313 193.728L263.212 196.468" stroke="#263238" stroke-linecap="round" stroke-linejoin="round"/>
<path d="M263.212 193.011L260.784 196.639" stroke="#263238" stroke-linecap="round" stroke-linejoin="round"/>
<path d="M266.064 194.052L268.969 192.97" stroke="#263238" stroke-linecap="round" stroke-linejoin="round"/>
<path d="M270.362 189.948L272.126 191.506" stroke="#263238" stroke-linecap="round" stroke-linejoin="round"/>
<path d="M273.479 188.072L271.244 195.739" stroke="#263238" stroke-linecap="round" stroke-linejoin="round"/>
<path d="M138.162 150.657L145.965 145.289L156.296 146.012L156.943 159.113L149.358 164.534L139.997 163.852L138.162 150.657Z" stroke="#263238" stroke-linecap="round" stroke-linejoin="round"/>
<path d="M139.997 163.852L147.553 158.413L156.943 159.113" stroke="#263238" stroke-linecap="round" stroke-linejoin="round"/>
<path d="M147.553 158.413L145.965 145.289" stroke="#263238" stroke-linecap="round" stroke-linejoin="round"/>
<path d="M138.162 150.657L148.47 151.851L156.296 146.012" stroke="#263238" stroke-linecap="round" stroke-linejoin="round"/>
<path d="M148.47 151.851L149.358 164.534" stroke="#263238" stroke-linecap="round" stroke-linejoin="round"/>
<path d="M229.232 106.646L225.774 117.388L236.535 115.936L229.232 106.646Z" stroke="#263238" stroke-linecap="round" stroke-linejoin="round"/>
<path d="M229.232 106.646L231.154 116.6" stroke="#263238" stroke-linecap="round" stroke-linejoin="round"/>
<path d="M230.849 115.007L232.107 114.807L232.401 116.495" stroke="#263238" stroke-linecap="round" stroke-linejoin="round"/>
<path d="M93.7212 204.953L99.0955 207.593" stroke="#263238" stroke-linecap="round" stroke-linejoin="round"/>
<path d="M97.3611 202.936L95.8206 208.552" stroke="#263238" stroke-linecap="round" stroke-linejoin="round"/>
<path d="M98.1077 200.196C98.1958 200.105 98.3041 200.036 98.4239 199.994C98.5437 199.952 98.6716 199.939 98.7974 199.956C98.9232 199.972 99.0434 200.018 99.1483 200.089C99.2531 200.161 99.3398 200.256 99.4013 200.367C99.9422 201.214 98.8838 202.989 98.8838 202.989L101.042 202.166" stroke="#263238" stroke-linecap="round" stroke-linejoin="round"/>
<path d="M135.916 19.992C141.049 22.8791 135.169 29.9351 135.169 34.0511C135.169 38.1671 141.049 37.5791 143.989 38.7551C145.165 38.7551 147.517 38.7551 147.453 41.7421" stroke="#263238" stroke-linecap="round" stroke-linejoin="round"/>
<path d="M130.195 23.7376C131.089 28.6003 136.663 26.8775 140.085 27.9888C145.965 29.8998 142.702 35.968 140.949 39.6371C139.897 41.8244 138.85 44.8938 140.732 46.9694" stroke="#263238" stroke-linecap="round" stroke-linejoin="round"/>
<path d="M130.948 25.625L137.069 20.5388" stroke="#263238" stroke-linecap="round" stroke-linejoin="round"/>
<path d="M133.347 27.1421L137.957 23.3201" stroke="#263238" stroke-linecap="round" stroke-linejoin="round"/>
<path d="M136.057 31.0111L139.95 27.9535" stroke="#263238" stroke-linecap="round" stroke-linejoin="round"/>
<path d="M135.252 35.5858L142.86 30.1174" stroke="#263238" stroke-linecap="round" stroke-linejoin="round"/>
<path d="M138.168 37.7202L143.472 33.8276" stroke="#263238" stroke-linecap="round" stroke-linejoin="round"/>
<path d="M140.426 45.9934L147.053 40.5955" stroke="#263238" stroke-linecap="round" stroke-linejoin="round"/>
<path d="M140.591 41.748L144.913 38.708" stroke="#263238" stroke-linecap="round" stroke-linejoin="round"/>
<path d="M54.0673 207.882C60.3811 205.357 63.4523 198.192 60.9269 191.878C58.4016 185.564 51.236 182.493 44.9222 185.018C38.6084 187.543 35.5372 194.709 38.0625 201.023C40.5879 207.337 47.7535 210.408 54.0673 207.882Z" stroke="#263238" stroke-linecap="round" stroke-linejoin="round"/>
<path d="M52.5908 184.538C56.8832 179.499 60.5346 176.647 61.94 177.576C64.0803 178.981 60.2406 188.577 53.3669 199.003C46.4932 209.428 39.1844 216.743 37.044 215.331C35.6328 214.408 36.8206 209.928 39.7606 203.995" stroke="#263238" stroke-linecap="round" stroke-linejoin="round"/>
<path d="M37.4437 198.979C31.4579 197.256 27.6359 195.245 27.877 193.64C28.2239 191.1 38.5668 190.512 50.9207 192.364C63.2746 194.216 72.9883 197.727 72.6179 200.255C72.3533 202.019 67.3259 202.825 60.1817 202.554" stroke="#263238" stroke-linecap="round" stroke-linejoin="round"/>
<path d="M39.0138 190.059C34.4979 181.91 32.24 175.553 33.7688 174.56C35.7798 173.26 43.5531 181.692 51.1324 193.376C58.7118 205.059 63.2217 215.62 61.2166 216.925C59.8878 217.783 56.0364 214.385 51.3853 208.599" stroke="#263238" stroke-linecap="round" stroke-linejoin="round"/>
<path d="M63.6745 182.903C63.4552 183.238 63.1418 183.499 62.7739 183.656C62.406 183.812 62 183.856 61.6072 183.781C61.2144 183.707 60.8525 183.518 60.567 183.238C60.2816 182.958 60.0855 182.6 60.0035 182.209C59.9215 181.818 59.9572 181.411 60.1062 181.04C60.2552 180.669 60.5108 180.351 60.8406 180.125C61.1705 179.899 61.5599 179.776 61.9596 179.771C62.3593 179.767 62.7514 179.88 63.0865 180.099C63.3096 180.244 63.5019 180.432 63.6523 180.651C63.8027 180.871 63.9082 181.118 63.9629 181.379C64.0175 181.639 64.0201 181.908 63.9706 182.17C63.9212 182.431 63.8205 182.681 63.6745 182.903Z" fill="#263238"/>
<path d="M56.9772 213.885C56.758 214.219 56.4446 214.481 56.0766 214.637C55.7087 214.794 55.3027 214.837 54.9099 214.763C54.5172 214.689 54.1552 214.5 53.8698 214.22C53.5843 213.94 53.3882 213.582 53.3062 213.191C53.2242 212.799 53.2599 212.393 53.4089 212.022C53.5579 211.651 53.8135 211.332 54.1434 211.106C54.4732 210.881 54.8626 210.758 55.2623 210.753C55.662 210.748 56.0542 210.862 56.3892 211.08C56.6124 211.225 56.8046 211.413 56.955 211.633C57.1054 211.853 57.211 212.1 57.2656 212.361C57.3202 212.621 57.3229 212.89 57.2734 213.152C57.2239 213.413 57.1232 213.662 56.9772 213.885Z" fill="#263238"/>
<path d="M46.1698 192.864C45.9506 193.198 45.6372 193.46 45.2693 193.616C44.9013 193.773 44.4954 193.816 44.1026 193.742C43.7098 193.668 43.3478 193.479 43.0624 193.199C42.777 192.919 42.5809 192.561 42.4988 192.17C42.4168 191.778 42.4526 191.372 42.6016 191.001C42.7506 190.63 43.0061 190.311 43.336 190.085C43.6659 189.86 44.0552 189.737 44.455 189.732C44.8547 189.727 45.2468 189.841 45.5818 190.059C46.0313 190.354 46.3456 190.814 46.4558 191.34C46.5661 191.866 46.4632 192.414 46.1698 192.864Z" fill="#263238"/>
<path d="M175.124 104.852H182.051L185.514 98.8546L182.051 92.857H175.124L171.661 98.8546L175.124 104.852Z" stroke="#263238" stroke-linecap="round" stroke-linejoin="round"/>
<path d="M174.118 118.017L170.655 112.02H163.729" stroke="#263238" stroke-linecap="round" stroke-linejoin="round"/>
<path d="M164.658 98.8546H171.584L175.048 92.857L171.584 86.8535H164.658L161.194 92.857L164.658 98.8546Z" stroke="#263238" stroke-linecap="round" stroke-linejoin="round"/>
<path d="M175.124 92.857H182.051L185.514 86.8535L182.051 80.8559H175.124L171.661 86.8535L175.124 92.857Z" stroke="#263238" stroke-linecap="round" stroke-linejoin="round"/>
<path d="M175.048 93.786C175.561 93.786 175.977 93.3701 175.977 92.857C175.977 92.3439 175.561 91.9279 175.048 91.9279C174.535 91.9279 174.119 92.3439 174.119 92.857C174.119 93.3701 174.535 93.786 175.048 93.786Z" fill="#263238"/>
<path d="M160.583 81.191C161.096 81.191 161.512 80.7751 161.512 80.262C161.512 79.7489 161.096 79.333 160.583 79.333C160.07 79.333 159.654 79.7489 159.654 80.262C159.654 80.7751 160.07 81.191 160.583 81.191Z" fill="#263238"/>
<path d="M173.189 118.017C173.189 117.834 173.244 117.654 173.346 117.501C173.448 117.349 173.593 117.229 173.763 117.159C173.933 117.089 174.12 117.07 174.3 117.106C174.48 117.142 174.645 117.231 174.775 117.361C174.905 117.49 174.994 117.656 175.03 117.836C175.066 118.016 175.047 118.203 174.977 118.373C174.906 118.543 174.787 118.688 174.635 118.79C174.482 118.892 174.302 118.947 174.118 118.947C173.996 118.947 173.876 118.922 173.763 118.876C173.65 118.829 173.548 118.761 173.462 118.674C173.375 118.588 173.307 118.486 173.26 118.373C173.213 118.26 173.189 118.139 173.189 118.017Z" fill="#263238"/>
<path d="M163.729 112.949C164.242 112.949 164.658 112.533 164.658 112.02C164.658 111.507 164.242 111.091 163.729 111.091C163.216 111.091 162.8 111.507 162.8 112.02C162.8 112.533 163.216 112.949 163.729 112.949Z" fill="#263238"/>
<path d="M192.217 87.024C192.217 86.8388 192.272 86.6579 192.375 86.504C192.478 86.3501 192.624 86.2303 192.796 86.1597C192.967 86.0891 193.155 86.071 193.337 86.1075C193.518 86.1441 193.685 86.2337 193.815 86.365C193.946 86.4964 194.034 86.6635 194.07 86.8452C194.105 87.027 194.086 87.2152 194.014 87.3859C193.942 87.5566 193.822 87.7022 193.667 87.8042C193.513 87.9062 193.331 87.9601 193.146 87.9589C193.024 87.9589 192.902 87.9347 192.789 87.8877C192.676 87.8406 192.573 87.7716 192.487 87.6847C192.401 87.5979 192.332 87.4947 192.286 87.3813C192.24 87.2679 192.216 87.1465 192.217 87.024Z" fill="#263238"/>
<path d="M170.585 112.949C171.098 112.949 171.514 112.533 171.514 112.02C171.514 111.507 171.098 111.091 170.585 111.091C170.071 111.091 169.656 111.507 169.656 112.02C169.656 112.533 170.071 112.949 170.585 112.949Z" fill="#263238"/>
<path d="M184.585 87.024C184.585 86.8391 184.64 86.6583 184.743 86.5046C184.845 86.3508 184.991 86.231 185.162 86.1602C185.333 86.0895 185.521 86.071 185.702 86.107C185.884 86.1431 186.05 86.2322 186.181 86.3629C186.312 86.4937 186.401 86.6602 186.437 86.8416C186.473 87.023 186.454 87.2109 186.384 87.3818C186.313 87.5526 186.193 87.6986 186.039 87.8014C185.886 87.9041 185.705 87.9589 185.52 87.9589C185.272 87.9589 185.034 87.8604 184.859 87.6851C184.683 87.5098 184.585 87.272 184.585 87.024Z" fill="#263238"/>
<path d="M174.118 104.858C174.117 104.673 174.171 104.491 174.274 104.336C174.376 104.182 174.522 104.061 174.693 103.99C174.864 103.918 175.052 103.899 175.234 103.935C175.416 103.971 175.583 104.06 175.714 104.191C175.846 104.322 175.935 104.489 175.971 104.671C176.006 104.853 175.987 105.042 175.916 105.213C175.844 105.384 175.724 105.53 175.569 105.632C175.414 105.734 175.233 105.788 175.047 105.787C174.802 105.786 174.566 105.687 174.392 105.513C174.218 105.339 174.12 105.104 174.118 104.858Z" fill="#263238"/>
<path d="M185.52 87.0122H193.146" stroke="#263238" stroke-linecap="round" stroke-linejoin="round"/>
<path d="M175.048 104.858L170.585 112.02" stroke="#263238" stroke-linecap="round" stroke-linejoin="round"/>
<path d="M164.658 86.8535L160.583 80.262" stroke="#263238" stroke-linecap="round" stroke-linejoin="round"/>
<path d="M213.785 63.21C214.584 60.5096 216.249 58.147 218.524 56.4867C220.798 54.8264 223.556 53.9606 226.371 54.0228C229.187 54.085 231.903 55.0718 234.103 56.8309C236.302 58.59 237.861 61.0238 238.54 63.7568" stroke="#263238" stroke-linecap="round" stroke-linejoin="round"/>
<path d="M224.616 79.5799C221.488 79.2219 218.6 77.7254 216.504 75.3755C214.408 73.0257 213.25 69.9868 213.25 66.838" stroke="#263238" stroke-linecap="round" stroke-linejoin="round"/>
<path d="M238.91 66.838C238.91 70.2382 237.56 73.4992 235.156 75.904C232.752 78.3089 229.492 79.6607 226.092 79.6622" stroke="#263238" stroke-linecap="round" stroke-linejoin="round"/>
<path d="M239.639 58.7059C243.65 58.1944 246.337 58.4707 246.754 59.6703C247.583 62.0575 239.004 67.2025 227.591 71.1656C216.178 75.1288 206.259 76.3989 205.424 74.0057C204.983 72.7297 207.229 70.6658 211.157 68.4138" stroke="#263238" stroke-linecap="round" stroke-linejoin="round"/>
<path d="M170.585 49.9212L171.814 52.4084L174.56 52.8083L172.572 54.7487L173.043 57.4829L170.585 56.1893L168.127 57.4829L168.597 54.7487L166.61 52.8083L169.356 52.4084L170.585 49.9212Z" stroke="#263238" stroke-linecap="round" stroke-linejoin="round"/>
<path d="M83.7724 43.2944C83.7708 45.5058 82.8921 47.6263 81.3289 49.1906C79.7658 50.7548 77.646 51.6351 75.4346 51.6382C75.1641 51.6382 74.8995 51.6264 74.6408 51.6029C73.0314 51.4502 71.5011 50.8334 70.2358 49.8273C68.9705 48.8212 68.0247 47.4692 67.5133 45.9356C67.002 44.402 66.9472 42.753 67.3555 41.1888C67.7639 39.6247 68.6178 38.2129 69.8135 37.1249C71.0092 36.037 72.4952 35.3199 74.0909 35.0607C75.6865 34.8015 77.3231 35.0114 78.8017 35.6649C80.2802 36.3184 81.5371 37.3873 82.4196 38.7418C83.302 40.0963 83.772 41.6779 83.7724 43.2944Z" stroke="#263238" stroke-linecap="round" stroke-linejoin="round"/>
<path d="M82.4375 44.7997C82.4387 45.0558 82.3638 45.3065 82.2224 45.52C82.081 45.7335 81.8793 45.9002 81.6431 45.999C81.4068 46.0979 81.1465 46.1243 80.8952 46.0751C80.6439 46.0258 80.4128 45.9031 80.2313 45.7224C80.0498 45.5417 79.926 45.3112 79.8756 45.0601C79.8252 44.8091 79.8505 44.5487 79.9482 44.3119C80.046 44.0752 80.2118 43.8728 80.4246 43.7304C80.6375 43.588 80.8878 43.512 81.1439 43.512C81.486 43.512 81.8141 43.6475 82.0566 43.8888C82.299 44.1301 82.436 44.4577 82.4375 44.7997Z" stroke="#263238" stroke-linecap="round" stroke-linejoin="round"/>
<path d="M70.8245 48.0808C70.8249 48.3872 70.7577 48.69 70.6276 48.9675C70.4975 49.245 70.3077 49.4903 70.0718 49.686C68.9754 48.7809 68.1308 47.6083 67.6199 46.2815C67.9434 46.0828 68.3162 45.9789 68.6959 45.9816C68.974 45.9777 69.2502 46.0291 69.5083 46.1329C69.7663 46.2366 70.0012 46.3906 70.1993 46.5859C70.3973 46.7813 70.5546 47.014 70.6619 47.2706C70.7692 47.5272 70.8245 47.8026 70.8245 48.0808Z" stroke="#263238" stroke-linecap="round" stroke-linejoin="round"/>
<path d="M81.1439 49.392C79.602 50.8524 77.5581 51.6649 75.4344 51.6617C75.164 51.6617 74.8994 51.6499 74.6406 51.6264C74.5933 51.4002 74.5696 51.1696 74.5701 50.9384C74.5704 50.1568 74.8348 49.3981 75.3203 48.7855C75.8058 48.1728 76.4839 47.7421 77.2449 47.5631C78.0058 47.3841 78.8048 47.4673 79.5125 47.7993C80.2202 48.1312 80.7951 48.6925 81.1439 49.392Z" stroke="#263238" stroke-linecap="round" stroke-linejoin="round"/>
<path d="M73.4118 39.984C74.4704 39.984 75.3286 39.1258 75.3286 38.0671C75.3286 37.0085 74.4704 36.1502 73.4118 36.1502C72.3531 36.1502 71.4949 37.0085 71.4949 38.0671C71.4949 39.1258 72.3531 39.984 73.4118 39.984Z" stroke="#263238" stroke-linecap="round" stroke-linejoin="round"/>
<path d="M75.1876 43.512C75.1876 43.6876 75.1356 43.8593 75.038 44.0053C74.9404 44.1513 74.8018 44.2651 74.6395 44.3323C74.4773 44.3995 74.2988 44.4171 74.1265 44.3828C73.9543 44.3486 73.7961 44.264 73.6719 44.1398C73.5477 44.0157 73.4632 43.8574 73.4289 43.6852C73.3947 43.513 73.4123 43.3345 73.4795 43.1722C73.5467 43.01 73.6605 42.8713 73.8065 42.7738C73.9525 42.6762 74.1241 42.6241 74.2997 42.6241C74.4163 42.6241 74.5318 42.6471 74.6395 42.6917C74.7472 42.7363 74.8451 42.8017 74.9276 42.8842C75.01 42.9666 75.0754 43.0645 75.12 43.1722C75.1647 43.2799 75.1876 43.3954 75.1876 43.512Z" stroke="#263238" stroke-linecap="round" stroke-linejoin="round"/>
<path d="M82.2024 38.4258C81.969 38.5023 81.7247 38.5401 81.4791 38.5375C81.1582 38.5375 80.8404 38.4742 80.544 38.3512C80.2475 38.2282 79.9782 38.048 79.7516 37.8207C79.5249 37.5935 79.3453 37.3238 79.223 37.0271C79.1007 36.7303 79.0382 36.4124 79.0389 36.0915C79.0329 35.9896 79.0329 35.8875 79.0389 35.7857C80.2984 36.3861 81.3863 37.2941 82.2024 38.4258Z" stroke="#263238" stroke-linecap="round" stroke-linejoin="round"/>
<path d="M273.92 140.115L274.819 138.092L273.361 137.292C273.415 136.936 273.425 136.575 273.391 136.216L274.884 135.487L274.09 133.423L272.491 133.882C272.277 133.594 272.028 133.333 271.75 133.106L272.297 131.53L270.274 130.63L269.469 132.088C269.111 132.044 268.75 132.044 268.393 132.088L267.669 130.595L265.6 131.389L266.064 132.982C265.776 133.2 265.513 133.451 265.282 133.729L263.712 133.182L262.836 135.175L264.294 135.981C264.24 136.337 264.23 136.698 264.265 137.057L262.765 137.78L263.559 139.85L265.159 139.385C265.374 139.674 265.623 139.936 265.899 140.167L265.358 141.737L267.381 142.637L268.181 141.179C268.537 141.233 268.898 141.242 269.257 141.208L269.986 142.708L272.05 141.914L271.591 140.314C271.878 140.098 272.138 139.85 272.367 139.574L273.92 140.115ZM267.769 138.986C267.305 138.779 266.912 138.44 266.641 138.01C266.37 137.58 266.232 137.08 266.245 136.572C266.258 136.064 266.421 135.571 266.714 135.156C267.007 134.741 267.416 134.422 267.891 134.24C268.365 134.057 268.883 134.019 269.378 134.131C269.874 134.243 270.326 134.499 270.676 134.867C271.026 135.235 271.259 135.699 271.345 136.2C271.432 136.701 271.368 137.216 271.162 137.68C270.884 138.302 270.371 138.789 269.735 139.034C269.099 139.278 268.392 139.261 267.769 138.986Z" stroke="#263238" stroke-linecap="round" stroke-linejoin="round"/>
<path d="M263.171 150.493L264.394 147.747L262.419 146.653C262.489 146.17 262.501 145.681 262.454 145.195L264.488 144.207L263.424 141.402L261.254 142.031C260.964 141.638 260.627 141.283 260.249 140.973L260.99 138.833L258.22 137.592L257.132 139.568C256.649 139.498 256.16 139.485 255.674 139.527L254.686 137.498L251.876 138.58L252.505 140.744C252.114 141.039 251.759 141.378 251.446 141.755L249.312 141.038L248.089 143.784L250.065 144.877C249.994 145.36 249.982 145.85 250.029 146.336L247.995 147.323L249.077 150.128L251.247 149.505C251.538 149.897 251.876 150.252 252.252 150.563L251.511 152.698L254.263 153.921L255.351 151.939C255.833 152.011 256.323 152.025 256.809 151.98L257.797 154.009L260.607 152.933L259.978 150.763C260.369 150.47 260.724 150.133 261.037 149.758L263.171 150.493ZM254.822 148.958C254.19 148.677 253.657 148.215 253.288 147.63C252.92 147.045 252.733 146.365 252.752 145.674C252.77 144.983 252.993 144.313 253.393 143.749C253.792 143.186 254.35 142.753 254.995 142.506C255.64 142.259 256.344 142.209 257.018 142.362C257.692 142.515 258.305 142.865 258.78 143.367C259.255 143.869 259.571 144.501 259.686 145.182C259.802 145.863 259.714 146.563 259.431 147.194C259.245 147.613 258.978 147.991 258.645 148.306C258.312 148.622 257.921 148.868 257.492 149.032C257.064 149.196 256.608 149.274 256.15 149.261C255.691 149.248 255.24 149.145 254.822 148.958Z" stroke="#263238" stroke-linecap="round" stroke-linejoin="round"/>
<path d="M141.279 124.427C140.473 125.953 139.563 127.423 138.556 128.825C133.332 136.088 125.656 141.216 116.945 143.259C108.235 145.303 99.0791 144.126 91.1694 139.944C90.3521 139.515 89.5524 139.056 88.788 138.574C88.0236 138.092 87.2768 137.598 86.5595 137.069C85.6892 136.44 84.8543 135.769 84.0546 135.069C84.0034 135.031 83.9561 134.988 83.9135 134.94C78.7028 130.329 74.8943 124.345 72.9231 117.672C70.9519 110.999 70.8975 103.906 72.7661 97.2032C74.6347 90.5006 78.351 84.4589 83.4903 79.7682C88.6296 75.0775 94.9848 71.927 101.83 70.6767C108.674 69.4264 115.733 70.1266 122.199 72.6975C128.665 75.2683 134.277 79.6061 138.394 85.2151C142.512 90.8242 144.969 97.4783 145.484 104.417C145.999 111.356 144.552 118.3 141.308 124.456L141.279 124.427Z" fill="#3362CC"/>
<mask id="mask0_1289_1323" style="mask-type:luminance" maskUnits="userSpaceOnUse" x="71" y="70" width="75" height="75">
<path d="M141.279 124.427C140.473 125.953 139.563 127.423 138.556 128.825C133.332 136.088 125.656 141.216 116.945 143.259C108.235 145.303 99.0791 144.126 91.1694 139.944C90.3521 139.515 89.5524 139.056 88.788 138.574C88.0236 138.092 87.2768 137.598 86.5595 137.069C85.6892 136.44 84.8543 135.769 84.0546 135.069C84.0034 135.031 83.9561 134.988 83.9135 134.94C78.7028 130.329 74.8943 124.345 72.9231 117.672C70.9519 110.999 70.8975 103.906 72.7661 97.2032C74.6347 90.5006 78.351 84.4589 83.4903 79.7682C88.6296 75.0775 94.9848 71.927 101.83 70.6767C108.674 69.4264 115.733 70.1266 122.199 72.6975C128.665 75.2683 134.277 79.6061 138.394 85.2151C142.512 90.8242 144.969 97.4783 145.484 104.417C145.999 111.356 144.552 118.3 141.308 124.456L141.279 124.427Z" fill="white"/>
</mask>
<g mask="url(#mask0_1289_1323)">
<g opacity="0.6">
<path d="M141.279 124.427C140.473 125.953 139.563 127.423 138.556 128.825L137.839 128.237L136.604 127.584L135.305 126.902L135.522 125.332L135.452 123.915C135.375 122.498 136.398 123.656 137.216 123.227C137.853 122.772 138.368 122.166 138.715 121.463C138.715 121.463 139.303 119.576 139.109 118.817C138.792 117.943 138.419 117.091 137.992 116.265L135.887 119.205L134.123 119.07L132.453 118.188L132.235 115.865L131.377 115.419L131.018 114.084L126.379 112.784L125.85 111.855C125.32 110.926 123.186 110.45 123.186 110.45L123.709 109.239L124.533 107.886C125.362 106.534 126.22 108.78 126.22 108.78L127.202 109.292L129.025 107.763L129.507 105.57L132.476 105.74C132.418 105.443 132.464 105.135 132.605 104.868C132.746 104.6 132.975 104.389 133.253 104.27C134.24 103.882 133.805 101.736 133.429 100.942C133.053 100.148 131.665 100.789 131.665 100.789C131.665 100.789 130.154 98.49 129.948 97.5727C129.742 96.6554 132.829 96.9847 134.152 96.0615C135.475 95.1384 135.022 93.3038 134.376 93.2627C133.729 93.2215 135.64 89.0879 139.315 90.2227C140.338 90.5402 140.985 90.4285 141.385 90.0757C144.142 95.3845 145.573 101.282 145.554 107.264C145.536 113.246 144.069 119.135 141.279 124.427Z" fill="white"/>
<path d="M115.565 108.521L114.307 110.103C114.307 110.103 113.772 108.827 113.008 109.515L111.832 110.562L110.979 112.949L109.45 113.937L108.515 113.449L107.633 112.978L106.675 112.473L105.758 114.237L105.011 115.648C105.375 116.341 105.827 116.983 106.357 117.559L107.98 120.422L109.956 121.422C110.78 121.453 111.6 121.551 112.408 121.716L113.766 122.427L113.284 125.367C113.284 125.367 112.261 127.032 111.579 126.573L110.891 126.12L109.774 129.989L109.727 132.118C109.727 132.118 109.062 132.394 108.392 132.618C107.722 132.841 108.145 132.723 106.74 133.158C105.334 133.594 105.446 133.576 104.305 133.899C103.333 134.24 102.397 134.677 101.512 135.205L101.612 137.251L98.9251 137.645L97.4198 136.845L97.7903 135.552L97.9667 133.529L97.7608 132.018L97.1141 130.683L98.9251 129.042L98.5252 128.013L97.4963 125.967L95.3207 127.143L94.2035 127.731L91.6751 126.596L91.3987 125.062L90.552 122.304L89.7641 120.587L88.3646 118.694L88.0118 117.065L88.7997 115.571L89.2172 114.783L87.9295 113.049L87.5767 111.814L85.407 109.844C85.407 109.844 86.0361 109.803 85.895 108.927C85.7539 108.051 87.1357 106.575 87.1357 106.575C87.9177 106.987 90.2638 108.621 90.2638 108.621L92.316 108.903C92.316 108.903 92.7276 108.903 93.1274 108.127C93.5944 107.413 94.143 106.756 94.7621 106.169C94.7621 106.169 93.8154 102.882 94.4916 102.441C95.1678 102 95.8557 99.8483 95.8557 99.8483L96.3967 98.8193C96.3967 98.8193 95.1207 98.2607 94.8797 97.5845C94.6386 96.9083 91.4928 97.8079 91.4928 97.8079L89.3231 99.3132L87.612 100.636L86.8711 102.042C86.8711 102.042 85.3599 100.225 85.3541 101.242C85.2388 102.285 85.01 103.312 84.672 104.305C84.672 104.305 84.9836 104.47 84.572 105.258C84.1604 106.046 83.7135 106.005 82.808 106.116C81.6275 106.128 80.4479 106.048 79.28 105.875C79.28 105.875 78.692 108.051 79.0977 108.427L79.4976 108.792C79.4976 108.792 78.8684 110.373 78.2451 110.044L76.7281 109.245L74.6054 110.103L72.2534 112.702L71.7301 112.596C70.2886 102.928 72.7223 93.0808 78.5019 85.1969C84.2816 77.313 92.9399 72.0296 102.594 70.4953C102.729 71.0833 102.876 71.636 102.876 71.636L102.288 74.5408L101.536 75.9755L100.889 77.2044L99.9776 78.9331L102.312 81.0852L101.812 83.6312L100.548 84.425L100.183 86.336L102.353 90.5755L102.941 92.2396C102.578 93.0362 102.399 93.9044 102.418 94.7797C102.418 94.7797 102.682 96.3673 103.841 96.9965C104.999 97.6256 106.522 98.3665 106.522 98.3665L106.399 100.719L105.875 101.307L106.745 103.841C109.397 104.882 109.145 105.752 109.397 104.882L109.656 104.017L111.461 103.365L113.76 106.11C114.028 106.107 114.292 106.171 114.528 106.296C114.765 106.421 114.966 106.604 115.113 106.828C115.783 107.675 116.83 106.94 115.565 108.521Z" fill="white"/>
<path d="M84.4016 129.001C84.4663 129.836 83.4079 130.883 83.4079 130.883L84.2722 131.336L84.5368 133.688L83.8841 134.934C79.2593 130.849 75.7317 125.669 73.6235 119.87L74.0939 117.377L76.1696 117.083C76.1696 117.083 78.0277 115.848 78.8509 116.177C79.6741 116.506 80.4267 118.529 80.4267 118.529C80.4267 118.529 81.0147 121.257 80.9383 121.204H80.903H80.95L81.7967 121.651L82.0378 122.727L80.8618 124.962H78.9685C78.9685 124.962 78.5921 124.762 78.5569 125.744C78.5875 126.085 78.6911 126.415 78.8605 126.712C79.0299 127.009 79.2612 127.267 79.5388 127.467L81.5851 126.943L82.1319 124.827L84.1429 124.433C84.1429 124.433 83.8547 125.732 84.3251 125.979L84.8014 126.232L85.0837 127.784C84.873 127.909 84.6991 128.088 84.5793 128.301C84.4596 128.515 84.3983 128.756 84.4016 129.001Z" fill="white"/>
<path d="M94.1271 132.329C93.9448 131.824 93.8684 131.383 92.616 130.724C91.3635 130.066 91.44 130.301 90.946 130.848C90.7333 131.129 90.4429 131.342 90.1106 131.46C89.7783 131.578 89.4187 131.596 89.0762 131.512C88.253 131.33 88.6823 132.259 88.6823 132.259L88.8822 134.77L86.5596 137.063C87.2769 137.592 88.0198 138.094 88.7881 138.568L89.282 137.051L93.1393 138.18C92.322 137.939 92.8041 136.822 92.8041 136.822L91.9809 136.387C91.9809 136.387 94.3094 132.823 94.1271 132.329Z" fill="white"/>
<path d="M118.423 119.276L117.159 118L115.713 118.453L115.125 119.629L114.684 120.475L115.272 121.651L116.448 123.08L117.118 121.798C117.118 121.798 118.982 121.798 119.958 120.722C120.934 119.646 118.423 119.276 118.423 119.276Z" fill="white"/>
<path d="M114.707 113.519L117.059 114.754L117.153 114.201C117.276 113.759 117.492 113.347 117.788 112.996L115.989 111.091L114.707 113.519Z" fill="white"/>
<path d="M113.907 140.891L113.231 139.897L112.443 139.485H110.038L108.668 142.084C108.668 142.084 107.357 141.908 105.634 141.755C103.911 141.602 104.335 142.314 104.335 142.314L103.888 143.948C108.234 144.483 112.642 144.247 116.906 143.249C116.41 142.903 115.896 142.585 115.365 142.296L113.907 140.891Z" fill="white"/>
</g>
</g>
<path d="M141.279 124.427C140.473 125.953 139.563 127.423 138.556 128.825C133.332 136.088 125.656 141.216 116.945 143.259C108.235 145.303 99.0791 144.126 91.1694 139.944C90.3521 139.515 89.5524 139.056 88.788 138.574C88.0236 138.092 87.2768 137.598 86.5595 137.069C85.6892 136.44 84.8543 135.769 84.0546 135.069C84.0034 135.031 83.9561 134.988 83.9135 134.94C78.7028 130.329 74.8943 124.345 72.9231 117.672C70.9519 110.999 70.8975 103.906 72.7661 97.2032C74.6347 90.5006 78.351 84.4589 83.4903 79.7682C88.6296 75.0775 94.9848 71.927 101.83 70.6767C108.674 69.4264 115.733 70.1266 122.199 72.6975C128.665 75.2683 134.277 79.6061 138.394 85.2151C142.512 90.8242 144.969 97.4783 145.484 104.417C145.999 111.356 144.552 118.3 141.308 124.456L141.279 124.427Z" stroke="#263238" stroke-linecap="round" stroke-linejoin="round"/>
<path d="M116.906 143.249C112.642 144.247 108.235 144.483 103.888 143.948L104.335 142.314C104.335 142.314 103.911 141.602 105.634 141.755C107.357 141.908 108.668 142.084 108.668 142.084L110.038 139.485H112.443L113.231 139.897L113.907 140.891L115.366 142.296C115.896 142.585 116.411 142.903 116.906 143.249Z" stroke="#263238" stroke-linecap="round" stroke-linejoin="round"/>
<path d="M141.408 90.0816C141.008 90.4344 140.362 90.5461 139.338 90.2286C135.663 89.0938 133.758 93.2215 134.399 93.2686C135.04 93.3156 135.493 95.1737 134.176 96.0674C132.859 96.9612 129.766 96.6554 129.972 97.5786C130.177 98.5018 131.689 100.795 131.689 100.795C131.689 100.795 133.041 100.16 133.423 100.948C133.805 101.736 134.24 103.888 133.253 104.276C132.975 104.395 132.746 104.606 132.605 104.874C132.464 105.141 132.418 105.449 132.476 105.746L129.507 105.575L129.025 107.769L127.202 109.297L126.22 108.786C126.22 108.786 125.362 106.54 124.533 107.892L123.709 109.245L123.186 110.456C123.186 110.456 125.32 110.932 125.85 111.861L126.379 112.79L131.018 114.09L131.377 115.424L132.235 115.871L132.453 118.194L134.182 119.099L135.946 119.235L138.051 116.295C138.478 117.12 138.851 117.973 139.168 118.847C139.374 119.605 138.774 121.493 138.774 121.493C138.427 122.195 137.912 122.801 137.275 123.257C136.434 123.686 135.405 122.527 135.511 123.945L135.581 125.362L135.364 126.932L136.663 127.614L137.898 128.266L138.615 128.854" stroke="#263238" stroke-linecap="round" stroke-linejoin="round"/>
<path d="M71.7771 112.596L72.3004 112.702L74.6524 110.103L76.7751 109.245L78.2921 110.044C78.9154 110.373 79.5446 108.792 79.5446 108.792L79.1447 108.427C78.739 108.051 79.327 105.875 79.327 105.875C80.4949 106.048 81.6745 106.128 82.855 106.116C83.7841 106.005 84.2251 106.04 84.619 105.258C85.013 104.476 84.719 104.305 84.719 104.305C85.057 103.312 85.2858 102.285 85.4011 101.242C85.4011 100.225 86.9181 102.042 86.9181 102.042L87.659 100.636L89.3171 99.3191L91.4869 97.8138C91.4869 97.8138 94.6327 96.9083 94.8737 97.5904C95.1148 98.2724 96.3908 98.8252 96.3908 98.8252L95.8498 99.8542C95.8498 99.8542 95.156 101.994 94.4857 102.447C93.8153 102.9 94.7561 106.175 94.7561 106.175C94.1371 106.762 93.5885 107.419 93.1215 108.133C92.7099 108.921 92.3101 108.909 92.3101 108.909L90.2579 108.627C90.2579 108.627 87.9059 106.992 87.1298 106.581C87.1298 106.581 85.748 108.057 85.8891 108.933C86.0302 109.809 85.4011 109.85 85.4011 109.85L87.5708 111.82L87.9236 113.055L89.2113 114.789L88.7938 115.577L88.0059 117.071L88.3587 118.7L89.7581 120.593L90.5519 122.304L91.4104 125.073L91.6868 126.608L94.2152 127.743L95.3324 127.155L97.508 125.979L98.537 128.025L98.9368 129.054L97.1258 130.695L97.7726 132.03L97.9784 133.541L97.802 135.563L97.4315 136.857L98.9368 137.657L101.624 137.269L101.524 135.216C102.409 134.689 103.345 134.252 104.317 133.911C105.458 133.588 105.346 133.605 106.751 133.17C108.157 132.735 107.727 132.853 108.404 132.629C109.08 132.406 109.738 132.129 109.738 132.129L109.785 130.001L110.903 126.132L111.591 126.585C112.273 127.043 113.296 125.379 113.296 125.379L113.778 122.439L112.39 121.716C111.582 121.551 110.762 121.453 109.938 121.422L108.004 120.405L106.381 117.541C105.851 116.965 105.398 116.323 105.034 115.63L105.781 114.219L106.698 112.455L107.657 112.961L108.539 113.431L109.474 113.919L111.003 112.931L111.855 110.544L113.031 109.497C113.796 108.804 114.331 110.085 114.331 110.085L115.589 108.504C116.853 106.922 115.807 107.657 115.16 106.845C115.013 106.622 114.812 106.439 114.575 106.314C114.339 106.188 114.075 106.125 113.807 106.128L111.508 103.382L109.68 104.076L109.421 104.94C109.168 105.811 109.421 104.94 106.769 103.9L105.899 101.365L106.422 100.777L106.546 98.4253C106.546 98.4253 105.023 97.6786 103.864 97.0553C102.706 96.432 102.441 94.8385 102.441 94.8385C102.423 93.9632 102.602 93.095 102.965 92.2984L102.377 90.6343L100.207 86.3948L100.571 84.4838L101.836 83.69L102.335 81.144L100.066 78.9919L100.977 77.2632L101.624 76.0343L102.377 74.5996L102.965 71.6948C102.965 71.6948 102.818 71.1539 102.682 70.5541" stroke="#263238" stroke-linecap="round" stroke-linejoin="round"/>
<path d="M84.084 135.064C84.0383 135.011 83.9871 134.964 83.9311 134.922L84.5838 133.676L84.3192 131.324L83.4548 130.871C83.4548 130.871 84.5132 129.825 84.4485 128.99C84.4371 128.74 84.4927 128.493 84.6096 128.273C84.7265 128.052 84.9003 127.867 85.113 127.737L84.8307 126.185L84.3545 125.932C83.8841 125.685 84.1722 124.386 84.1722 124.386L82.1612 124.779L81.6144 126.896L79.5681 127.42C79.2906 127.22 79.0592 126.962 78.8898 126.665C78.7204 126.368 78.6168 126.038 78.5862 125.697C78.6215 124.715 78.9978 124.915 78.9978 124.915H80.8911L82.0671 122.68L81.8261 121.604L80.9793 121.157" stroke="#263238" stroke-linecap="round" stroke-linejoin="round"/>
<path d="M80.9265 121.157C81.0206 121.21 80.415 118.482 80.415 118.482C80.415 118.482 79.6623 116.489 78.8391 116.13C78.0159 115.771 76.1579 117.036 76.1579 117.036L74.0822 117.33L73.6118 119.823" stroke="#263238" stroke-linecap="round" stroke-linejoin="round"/>
<path d="M89.282 137.051L88.7881 138.568C88.0041 138.09 87.2613 137.588 86.5596 137.063L88.8822 134.77L88.6823 132.259C88.6823 132.259 88.253 131.33 89.0762 131.512C89.4187 131.596 89.7783 131.578 90.1106 131.46C90.4429 131.342 90.7333 131.129 90.946 130.848C91.4282 130.301 91.3694 130.066 92.616 130.724C93.8625 131.383 93.9448 131.824 94.1271 132.329C94.3094 132.835 91.9809 136.404 91.9809 136.404L92.8041 136.839C92.8041 136.839 92.322 137.957 93.1393 138.198L89.282 137.051Z" stroke="#263238" stroke-linecap="round" stroke-linejoin="round"/>
<path d="M115.712 118.453L117.159 118L118.423 119.276C118.423 119.276 120.922 119.599 119.946 120.687C118.97 121.775 117.106 121.763 117.106 121.763L116.424 123.045L115.248 121.616L114.66 120.44L115.101 119.593L115.712 118.453Z" stroke="#263238" stroke-linecap="round" stroke-linejoin="round"/>
<path d="M117.788 112.996C117.492 113.347 117.276 113.759 117.153 114.201L117.059 114.754L114.707 113.519L115.989 111.091L117.788 112.996Z" stroke="#263238" stroke-linecap="round" stroke-linejoin="round"/>
<path d="M245.39 251.693C242.238 254.316 217.96 270.98 183.315 268.293C181.451 252.522 174.342 187.737 182.427 177.576C182.427 177.576 202.043 168.221 220.112 172.149C238.181 176.077 245.214 179.84 246.501 183.097C247.477 185.561 246.084 231.437 245.39 251.693Z" fill="#263238"/>
<path d="M219.512 179.07C209.104 188.084 195.698 186.178 195.992 179.258C196.039 178.176 197.197 176.835 197.197 176.835L196.792 176.212L195.028 173.548C193.74 171.555 192.129 169.05 191.006 167.227C190.065 165.675 213.52 151.245 213.52 159.542C213.52 171.231 219.259 173.431 219.259 173.431C221.423 174.301 223.44 175.677 219.512 179.07Z" fill="white" stroke="#263238" stroke-linecap="round" stroke-linejoin="round"/>
<path d="M226.092 196.921C226.092 196.921 223.993 204.118 224.986 206.182" stroke="white" stroke-linecap="round" stroke-linejoin="round"/>
<path d="M223.64 176.024C223.64 182.968 202.925 189.771 196.856 182.803" stroke="white" stroke-linecap="round" stroke-linejoin="round"/>
<path d="M206.6 168.009C206.6 168.009 205.212 173.242 198.744 177.329C198.435 176.799 197.937 176.406 197.35 176.229C197.156 176.198 196.957 176.198 196.762 176.229L194.998 173.566C198.344 171.155 206.6 168.009 206.6 168.009Z" fill="#263238"/>
<path d="M209.504 161.577C209.504 161.577 209.434 166.739 208.328 167.792C200.126 175.659 192.105 176.282 190.782 174.207C181.874 160.236 183.979 156.567 183.074 154.174C181.468 149.975 179.499 143.119 180.369 138.968C182.309 129.695 199.773 122.504 208.969 131.83C213.379 136.293 214.773 145.977 213.844 154.044" fill="white"/>
<path d="M209.504 161.577C209.504 161.577 209.434 166.739 208.328 167.792C200.126 175.659 192.105 176.282 190.782 174.207C181.874 160.236 183.979 156.567 183.074 154.174C181.468 149.975 179.499 143.119 180.369 138.968C182.309 129.695 199.773 122.504 208.969 131.83C213.379 136.293 214.773 145.977 213.844 154.044" stroke="#263238" stroke-linecap="round" stroke-linejoin="round"/>
<path d="M184.197 149.858C184.197 149.858 181.745 148.758 181.216 150.069" stroke="#263238" stroke-linecap="round" stroke-linejoin="round"/>
<path d="M190.142 149.94C190.142 149.94 195.24 147.806 197.533 150.399" stroke="#263238" stroke-linecap="round" stroke-linejoin="round"/>
<path d="M195.804 153.556C195.886 154.321 195.516 154.985 194.969 155.05C194.422 155.114 193.917 154.532 193.834 153.768C193.752 153.003 194.122 152.333 194.669 152.274C195.216 152.216 195.698 152.792 195.804 153.556Z" fill="#263238"/>
<path d="M185.808 153.786C185.896 154.55 185.52 155.22 184.973 155.279C184.426 155.338 183.92 154.767 183.838 154.003C183.756 153.239 184.126 152.568 184.673 152.51C185.22 152.451 185.714 153.021 185.808 153.786Z" fill="#263238"/>
<path d="M186.055 151.775C186.766 152.921 186.378 154.879 185.438 157.566C184.497 160.254 185.326 161.224 188.936 161.494" fill="white"/>
<path d="M186.055 151.775C186.766 152.921 186.378 154.879 185.438 157.566C184.497 160.254 185.326 161.224 188.936 161.494" stroke="#263238" stroke-linecap="round" stroke-linejoin="round"/>
<path d="M188.936 166.145C188.936 166.145 193.64 165.716 195.792 164.534" stroke="#263238" stroke-linecap="round" stroke-linejoin="round"/>
<path d="M218.736 139.485C218.736 135.993 215.29 128.825 209.246 128.019C205.77 124.386 200.819 123.051 194.81 124.433C180.922 127.62 176.694 141.332 176.088 143.601C176.029 143.813 176 143.931 176 143.931L179.716 142.99L178.117 146.112L180.063 147.4L179.616 147.894L181.874 150.069L181.169 146.094C181.604 143.531 184.555 139.944 184.555 139.944C183.478 141.34 182.807 143.007 182.615 144.76C183.791 141.708 190.847 138.88 190.847 138.88C188.56 140.738 187.319 144.372 187.319 144.372C189.495 141.69 194.593 139.956 197.856 139.033C198.956 141.684 200.702 144.454 203.195 145.989C205.547 147.435 205.465 150.422 205.465 150.422C207.995 152.181 209.86 154.741 210.757 157.69L213.603 161.582C213.603 161.582 218.736 155.285 218.736 139.485Z" fill="#263238"/>
<path d="M206.758 151.422C205.806 149.381 209.263 143.854 211.715 144.536C213.091 144.924 214.89 147.435 215.243 150.069C215.596 152.704 213.732 157.713 211.745 158.801C210.48 159.507 209.44 157.584 209.44 157.584" fill="white"/>
<path d="M206.758 151.422C205.806 149.381 209.263 143.854 211.715 144.536C213.091 144.924 214.89 147.435 215.243 150.069C215.596 152.704 213.732 157.713 211.745 158.801C210.48 159.507 209.44 157.584 209.44 157.584" stroke="#263238" stroke-linecap="round" stroke-linejoin="round"/>
<path d="M56.7478 251.223L123.186 235.688L261.766 251.693L226.086 276.095L56.7478 251.223Z" fill="white"/>
<path d="M56.7478 251.223L123.186 235.688L261.766 251.693" fill="white"/>
<path d="M56.7478 251.223L123.186 235.688L261.766 251.693" stroke="#263238" stroke-linecap="round" stroke-linejoin="round"/>
<path d="M114.242 254.339L141.138 242.45L175.142 244.208L160.018 257.138L114.242 254.339Z" fill="white" stroke="#263238" stroke-linecap="round" stroke-linejoin="round"/>
<path d="M183.738 176.988C175.112 180.516 173.254 188.448 158.595 219.794C158.595 219.794 152.086 221.129 148.599 229.038C145.112 236.946 150.951 243.191 157.672 242.979C157.672 242.979 160.371 245.331 165.904 245.09C171.437 244.849 195.892 207.429 195.892 207.429L183.738 176.988Z" fill="#263238"/>
<path d="M161.165 221.635C165.022 225.069 167.239 230.108 166.063 235.694" stroke="white" stroke-linecap="round" stroke-linejoin="round"/>
<path d="M164.887 223.287C164.887 223.287 169.626 224.322 170.361 230.39" stroke="white" stroke-linecap="round" stroke-linejoin="round"/>
<path d="M178.752 205.53C176.513 200.005 175.739 193.995 176.506 188.084" stroke="white" stroke-linecap="round" stroke-linejoin="round"/>
<path d="M178.082 197.533C177.723 200.002 180.275 213.15 180.257 226.974" stroke="white" stroke-linecap="round" stroke-linejoin="round"/>
<path d="M242.562 179.587C253.352 185.008 254.633 201.69 244.455 221.635C237.264 235.712 227.338 256.497 221.059 257.891C214.779 259.284 208.652 255.374 208.652 255.374C208.652 255.374 203.36 255.127 201.76 251.364C197.386 241.08 208.505 228.085 212.856 231.196C212.856 231.196 226.827 200.814 229.373 198.897" fill="#263238"/>
<path d="M200.761 245.114C199.332 238.017 210.504 229.643 212.856 231.196C212.856 231.196 221.153 231.66 222.393 237.399" stroke="white" stroke-linecap="round" stroke-linejoin="round"/>
<path d="M231.155 246.625C236.011 238.058 244.455 221.635 244.455 221.635" stroke="white" stroke-linecap="round" stroke-linejoin="round"/>
<path d="M212.856 231.196C212.856 231.196 218.671 227.715 223.017 231.008" stroke="white" stroke-linecap="round" stroke-linejoin="round"/>
<path d="M214.843 226.968C214.843 226.968 218.054 219.912 221.311 213.444C224.569 206.976 232.025 197.397 235.123 196.933" stroke="white" stroke-linecap="round" stroke-linejoin="round"/>
<path d="M153.562 239.651C152.864 239.617 152.181 239.43 151.563 239.104C141.567 233.889 133.794 225.269 129.113 219.083C127.293 216.719 125.618 214.247 124.097 211.68L126.496 201.402C126.496 201.402 128.754 207.282 137.827 213.062C146.9 218.842 157.678 220.747 161.165 226.586C164.252 231.672 158.813 239.904 153.562 239.651Z" fill="white"/>
<mask id="mask1_1289_1323" style="mask-type:luminance" maskUnits="userSpaceOnUse" x="124" y="201" width="39" height="39">
<path d="M153.562 239.651C152.864 239.617 152.181 239.43 151.563 239.104C141.567 233.889 133.794 225.269 129.113 219.083C127.293 216.719 125.618 214.247 124.097 211.68L126.496 201.402C126.496 201.402 128.754 207.282 137.827 213.062C146.9 218.842 157.678 220.747 161.165 226.586C164.252 231.672 158.813 239.904 153.562 239.651Z" fill="white"/>
</mask>
<g mask="url(#mask1_1289_1323)">
<path opacity="0.4" d="M153.562 239.651C153.451 238.908 153.253 238.18 152.974 237.481C150.875 232.225 138.174 221.776 138.174 221.776C135.152 221.682 131.83 220.424 129.125 219.083C127.301 216.719 125.622 214.247 124.097 211.68L126.496 201.402C126.496 201.402 128.754 207.282 137.827 213.062C146.9 218.842 157.678 220.747 161.165 226.586C164.252 231.672 158.813 239.904 153.562 239.651Z" fill="#3362CC"/>
</g>
<path d="M153.562 239.651C152.864 239.617 152.181 239.43 151.563 239.104C141.567 233.889 133.794 225.269 129.113 219.083C127.293 216.719 125.618 214.247 124.097 211.68L126.496 201.402C126.496 201.402 128.754 207.282 137.827 213.062C146.9 218.842 157.678 220.747 161.165 226.586C164.252 231.672 158.813 239.904 153.562 239.651Z" stroke="#263238" stroke-linecap="round" stroke-linejoin="round"/>
<path d="M130.924 211.057C130.924 211.057 129.683 216.537 126.414 215.308C124.65 214.644 121.252 209.375 120.611 206.717L130.924 211.057Z" fill="white" stroke="#263238" stroke-linecap="round" stroke-linejoin="round"/>
<path d="M116.512 177.311L119.182 175.935C119.182 175.935 126.726 176 131.406 179.805C135.657 183.262 137.815 188.677 137.815 188.677C137.815 188.677 154.332 179.558 171.202 184.791L178.082 223.134L146.453 225.204L126.714 206.453L116.512 177.311Z" fill="white" stroke="#263238" stroke-linecap="round" stroke-linejoin="round"/>
<path d="M180.257 224.669C180.257 224.669 176.547 224.557 171.584 224.722C164.081 224.957 153.715 225.804 148.975 228.561L148.752 228.485L144.413 226.968L144.324 226.839C143.525 225.663 137.074 216.402 127.86 212.633L114.83 176.224C114.83 176.224 128.354 176.812 135.745 189.03L139.456 190.371C139.456 190.371 161.535 183.832 173.895 186.184L180.257 224.669Z" fill="#3362CC"/>
<mask id="mask2_1289_1323" style="mask-type:luminance" maskUnits="userSpaceOnUse" x="114" y="176" width="67" height="53">
<path d="M180.257 224.669C180.257 224.669 176.547 224.557 171.584 224.722C164.081 224.957 153.715 225.804 148.975 228.561L148.752 228.485L144.413 226.968L144.324 226.839C143.525 225.663 137.074 216.402 127.86 212.633L114.83 176.224C114.83 176.224 128.354 176.812 135.745 189.03L139.456 190.371C139.456 190.371 161.535 183.832 173.895 186.184L180.257 224.669Z" fill="white"/>
</mask>
<g mask="url(#mask2_1289_1323)">
<path opacity="0.3" d="M144.324 226.845C143.525 225.669 137.074 216.408 127.86 212.638L114.83 176.229C114.83 176.229 128.354 176.817 135.745 189.036L144.324 226.845Z" fill="black" fill-opacity="0.7"/>
<path opacity="0.3" d="M171.584 224.722C164.081 224.957 153.715 225.804 148.976 228.561L148.752 228.485L140.085 191.688C140.085 191.688 147.176 190.095 149.358 190.9C149.352 190.912 163.77 201.549 171.584 224.722Z" fill="black" fill-opacity="0.7"/>
</g>
<path d="M180.257 224.669C180.257 224.669 176.547 224.557 171.584 224.722C164.081 224.957 153.715 225.804 148.975 228.561L148.752 228.485L144.413 226.968L144.324 226.839C143.525 225.663 137.074 216.402 127.86 212.633L114.83 176.224C114.83 176.224 128.354 176.812 135.745 189.03L139.456 190.371C139.456 190.371 161.535 183.832 173.895 186.184L180.257 224.669Z" stroke="#263238" stroke-linecap="round" stroke-linejoin="round"/>
<path d="M139.468 190.377L147.976 225.674" stroke="#263238" stroke-linecap="round" stroke-linejoin="round"/>
<path d="M144.413 226.974L136.146 191.7" stroke="#263238" stroke-linecap="round" stroke-linejoin="round"/>
<path d="M123.409 211.709C121.522 211.186 117.717 199.844 119.458 194.957C119.458 194.957 121.528 191.365 122.398 191.118C123.715 190.735 129.031 190.847 128.772 191.741C128.184 193.811 124.103 193.775 124.103 193.775L122.78 196.198L122.833 197.533C122.833 197.533 124.756 196.133 125.461 196.174C125.826 196.174 127.708 197.115 129.201 197.903C130.477 198.579 131.259 198.95 130.965 199.561C130.018 201.596 125.991 200.149 125.991 200.149L124.474 202.437C124.474 202.437 125.938 202.689 126.579 202.76C127.219 202.831 132.541 206.376 132.382 206.817C131.753 208.546 126.708 206.676 126.708 206.676L125.814 207.423C125.814 207.423 129.53 208.381 129.93 208.522C130.518 208.74 132.782 210.48 132.747 210.68C132.476 212.209 129.354 211.086 129.354 211.086L126.62 210.974C126.203 211.342 125.702 211.6 125.161 211.727" fill="white"/>
<path d="M123.409 211.709C121.522 211.186 117.717 199.844 119.458 194.957C119.458 194.957 121.528 191.365 122.398 191.118C123.715 190.735 129.031 190.847 128.772 191.741C128.184 193.811 124.103 193.775 124.103 193.775L122.78 196.198L122.833 197.533C122.833 197.533 124.756 196.133 125.461 196.174C125.826 196.174 127.708 197.115 129.201 197.903C130.477 198.579 131.259 198.95 130.965 199.561C130.018 201.596 125.991 200.149 125.991 200.149L124.474 202.437C124.474 202.437 125.938 202.689 126.579 202.76C127.219 202.831 132.541 206.376 132.382 206.817C131.753 208.546 126.708 206.676 126.708 206.676L125.814 207.423C125.814 207.423 129.53 208.381 129.93 208.522C130.518 208.74 132.782 210.48 132.747 210.68C132.476 212.209 129.354 211.086 129.354 211.086L126.62 210.974C126.203 211.342 125.702 211.6 125.161 211.727" stroke="#263238" stroke-linecap="round" stroke-linejoin="round"/>
<path d="M122.81 197.533C122.81 197.533 121.046 199.014 120.593 199.444C120.14 199.873 120.252 201.237 120.252 201.237" stroke="#263238" stroke-linecap="round" stroke-linejoin="round"/>
<path d="M121.534 204.248C121.534 205.741 122.533 206.647 122.992 207.129C123.451 207.611 122.257 208.922 123.58 209.863" stroke="#263238" stroke-linecap="round" stroke-linejoin="round"/>
<path d="M208.628 251.588C204.895 252.605 200.837 246.043 195.886 238.881C192.617 234.177 188.96 229.161 184.756 225.945C184.42 225.692 184.079 225.445 183.738 225.21L186.196 212.862C191.3 215.537 194.463 219.824 199.761 224.228C208.287 231.325 215.843 235.682 217.936 238.822C220.03 241.962 215.026 249.841 208.628 251.588Z" fill="white"/>
<mask id="mask3_1289_1323" style="mask-type:luminance" maskUnits="userSpaceOnUse" x="183" y="212" width="36" height="40">
<path d="M208.628 251.588C204.895 252.605 200.837 246.043 195.886 238.881C192.617 234.177 188.96 229.161 184.756 225.945C184.42 225.692 184.079 225.445 183.738 225.21L186.196 212.862C191.3 215.537 194.463 219.824 199.761 224.228C208.287 231.325 215.843 235.682 217.936 238.822C220.03 241.962 215.026 249.841 208.628 251.588Z" fill="white"/>
</mask>
<g mask="url(#mask3_1289_1323)">
<path opacity="0.4" d="M195.886 238.875C192.617 234.171 188.96 229.155 184.756 225.939C185.31 225.967 185.864 225.883 186.384 225.692C186.384 225.692 193.029 231.084 195.886 238.875Z" fill="#3362CC"/>
</g>
<path d="M208.628 251.588C204.895 252.605 200.837 246.043 195.886 238.881C192.617 234.177 188.96 229.161 184.756 225.945C184.42 225.692 184.079 225.445 183.738 225.21L186.196 212.862C191.3 215.537 194.463 219.824 199.761 224.228C208.287 231.325 215.843 235.682 217.936 238.822C220.03 241.962 215.026 249.841 208.628 251.588Z" stroke="#263238" stroke-linecap="round" stroke-linejoin="round"/>
<path d="M187.572 224.722C187.317 225.178 186.896 225.519 186.396 225.674C186.263 225.726 186.128 225.772 185.99 225.81H185.879C181.933 226.839 173.054 224.698 173.054 224.698C173.054 224.698 167.239 221.935 166.886 221.282C166.64 220.765 166.423 220.235 166.234 219.694L166.075 219.23C166.075 219.23 163.981 218.054 163.723 217.137C163.464 216.219 163.023 215.961 164.311 215.796C165.598 215.631 172.543 215.796 172.543 215.796L164.987 212.715C164.987 212.715 159.983 210.192 159.519 209.304C159.054 208.417 158.472 207.829 161.03 208.181C163.588 208.534 169.174 210.157 169.174 210.157L173.578 211.092L169.203 209.228C169.203 209.228 160.595 208.187 162.223 205.512H167.11C169.878 205.634 172.631 205.984 175.342 206.559C176.765 206.994 186.173 212.838 186.173 212.838" fill="white"/>
<mask id="mask4_1289_1323" style="mask-type:luminance" maskUnits="userSpaceOnUse" x="159" y="205" width="29" height="22">
<path d="M187.572 224.722C187.317 225.178 186.896 225.519 186.396 225.674C186.263 225.726 186.128 225.772 185.99 225.81H185.879C181.933 226.839 173.054 224.698 173.054 224.698C173.054 224.698 167.239 221.935 166.886 221.282C166.64 220.765 166.423 220.235 166.234 219.694L166.075 219.23C166.075 219.23 163.981 218.054 163.723 217.137C163.464 216.219 163.023 215.961 164.311 215.796C165.598 215.631 172.543 215.796 172.543 215.796L164.987 212.715C164.987 212.715 159.983 210.192 159.519 209.304C159.054 208.417 158.472 207.829 161.03 208.181C163.588 208.534 169.174 210.157 169.174 210.157L173.578 211.092L169.203 209.228C169.203 209.228 160.595 208.187 162.223 205.512H167.11C169.878 205.634 172.631 205.984 175.342 206.559C176.765 206.994 186.173 212.838 186.173 212.838" fill="white"/>
</mask>
<g mask="url(#mask4_1289_1323)">
<path opacity="0.4" d="M185.867 225.833C181.921 226.862 173.042 224.722 173.042 224.722C173.042 224.722 167.227 221.958 166.874 221.306C166.629 220.788 166.411 220.258 166.222 219.718L173.36 220.5C173.11 220.95 172.979 221.456 172.979 221.97C172.979 222.484 173.11 222.99 173.36 223.44C174.154 224.869 183.197 226.315 185.867 225.833Z" fill="#3362CC"/>
</g>
<path d="M187.572 224.722C187.317 225.178 186.896 225.519 186.396 225.674C186.263 225.726 186.128 225.772 185.99 225.81H185.879C181.933 226.839 173.054 224.698 173.054 224.698C173.054 224.698 167.239 221.935 166.886 221.282C166.64 220.765 166.423 220.235 166.234 219.694L166.075 219.23C166.075 219.23 163.981 218.054 163.723 217.137C163.464 216.219 163.023 215.961 164.311 215.796C165.598 215.631 172.543 215.796 172.543 215.796L164.987 212.715C164.987 212.715 159.983 210.192 159.519 209.304C159.054 208.417 158.472 207.829 161.03 208.181C163.588 208.534 169.174 210.157 169.174 210.157L173.578 211.092L169.203 209.228C169.203 209.228 160.595 208.187 162.223 205.512H167.11C169.878 205.634 172.631 205.984 175.342 206.559C176.765 206.994 186.173 212.838 186.173 212.838" stroke="#263238" stroke-linecap="round" stroke-linejoin="round"/>
<path d="M166.063 219.253L174.654 220.518" stroke="#263238" stroke-linecap="round" stroke-linejoin="round"/>
<path d="M80.4265 245.561L101.959 252.029L141.355 243.038C141.355 243.038 117.294 236.205 117.071 236.376C116.847 236.547 80.4265 245.561 80.4265 245.561Z" fill="#3362CC"/>
<mask id="mask5_1289_1323" style="mask-type:luminance" maskUnits="userSpaceOnUse" x="80" y="236" width="62" height="17">
<path d="M80.4265 245.561L101.959 252.029L141.355 243.038C141.355 243.038 117.294 236.205 117.071 236.376C116.847 236.547 80.4265 245.561 80.4265 245.561Z" fill="white"/>
</mask>
<g mask="url(#mask5_1289_1323)">
<path opacity="0.3" d="M80.4265 245.561L101.959 252.029L141.355 243.038C141.355 243.038 117.294 236.205 117.071 236.376C116.847 236.547 80.4265 245.561 80.4265 245.561Z" fill="black" fill-opacity="0.7"/>
</g>
<path d="M80.4265 245.561L101.959 252.029L141.355 243.038C141.355 243.038 117.294 236.205 117.071 236.376C116.847 236.547 80.4265 245.561 80.4265 245.561Z" stroke="#263238" stroke-linecap="round" stroke-linejoin="round"/>
<path d="M80.7381 237.975C79.2269 238.081 78.8506 243.526 80.4264 245.561L115.213 238.34L118 231.743L80.7381 237.975Z" fill="#3362CC"/>
<mask id="mask6_1289_1323" style="mask-type:luminance" maskUnits="userSpaceOnUse" x="79" y="231" width="39" height="15">
<path d="M80.7381 237.975C79.2269 238.081 78.8506 243.526 80.4264 245.561L115.213 238.34L118 231.743L80.7381 237.975Z" fill="white"/>
</mask>
<g mask="url(#mask6_1289_1323)">
<path opacity="0.3" d="M80.7381 237.975C79.2269 238.081 78.8506 243.526 80.4264 245.561L115.213 238.34L118 231.743L80.7381 237.975Z" fill="black" fill-opacity="0.7"/>
</g>
<path d="M80.7381 237.975C79.2269 238.081 78.8506 243.526 80.4264 245.561L115.213 238.34L118 231.743L80.7381 237.975Z" stroke="#263238" stroke-linecap="round" stroke-linejoin="round"/>
<path d="M139.668 237.899C139.668 237.899 139.15 240.762 139.485 242.526L101.918 251.029L82.1141 245.196C82.1141 245.196 80.0561 241.556 81.8495 238.728L118.035 232.583L139.668 237.899Z" fill="white" stroke="#263238" stroke-linecap="round" stroke-linejoin="round"/>
<path d="M80.7383 237.975L118 231.743L141.138 237.605L102.224 245.361L80.7383 237.975Z" fill="#3362CC" stroke="#263238" stroke-linecap="round" stroke-linejoin="round"/>
<path d="M82.0613 241.456L101.765 247.325L134.017 240.833" stroke="#263238" stroke-linecap="round" stroke-linejoin="round"/>
<path d="M139.379 241.433L104.699 248.83" stroke="#263238" stroke-linecap="round" stroke-linejoin="round"/>
<path d="M82.5256 243.767C82.8255 243.797 97.3785 248.277 97.3785 248.277" stroke="#263238" stroke-linecap="round" stroke-linejoin="round"/>
<path d="M136.545 240.075L139.303 239.628" stroke="#263238" stroke-linecap="round" stroke-linejoin="round"/>
<path d="M101.124 249.365L99.6602 249.036" stroke="#263238" stroke-linecap="round" stroke-linejoin="round"/>
<path d="M81.8496 238.728C82.6206 239.616 83.0668 240.74 83.1149 241.916C83.163 243.091 82.8101 244.248 82.1142 245.196C81.4699 244.25 81.1036 243.143 81.0569 242C81.0101 240.857 81.2847 239.723 81.8496 238.728Z" fill="#263238"/>
<mask id="mask7_1289_1323" style="mask-type:luminance" maskUnits="userSpaceOnUse" x="81" y="238" width="3" height="8">
<path d="M81.8496 238.728C82.6206 239.616 83.0668 240.74 83.1149 241.916C83.163 243.091 82.8101 244.248 82.1142 245.196C81.4699 244.25 81.1036 243.143 81.0569 242C81.0101 240.857 81.2847 239.723 81.8496 238.728Z" fill="white"/>
</mask>
<g mask="url(#mask7_1289_1323)">
<path opacity="0.3" d="M81.8496 238.728C82.6206 239.616 83.0668 240.74 83.1149 241.916C83.163 243.091 82.8101 244.248 82.1142 245.196C81.4699 244.25 81.1036 243.143 81.0569 242C81.0101 240.857 81.2847 239.723 81.8496 238.728Z" fill="white" fill-opacity="0.7"/>
</g>
<path d="M81.8496 238.728C82.6206 239.616 83.0668 240.74 83.1149 241.916C83.163 243.091 82.8101 244.248 82.1142 245.196C81.4699 244.25 81.1036 243.143 81.0569 242C81.0101 240.857 81.2847 239.723 81.8496 238.728Z" stroke="#263238" stroke-linecap="round" stroke-linejoin="round"/>
<path d="M162.329 247.325L199.932 248.865L196.268 261.807L150.01 260.043L162.329 247.325Z" fill="white"/>
<mask id="mask8_1289_1323" style="mask-type:luminance" maskUnits="userSpaceOnUse" x="150" y="247" width="50" height="15">
<path d="M162.329 247.325L199.932 248.865L196.268 261.807L150.01 260.043L162.329 247.325Z" fill="white"/>
</mask>
<g mask="url(#mask8_1289_1323)">
<path opacity="0.4" d="M162.329 247.325L199.932 248.865L196.268 261.807L150.01 260.043L162.329 247.325Z" fill="#3362CC"/>
</g>
<path d="M162.329 247.325L199.932 248.865L196.268 261.807L150.01 260.043L162.329 247.325Z" stroke="#263238" stroke-linecap="round" stroke-linejoin="round"/>
</svg>
